%FSLAX45Y45*%
G04 Gerber Fmt 4.5, Leading zero omitted, Abs format (unit mm)*
G04 Created by KiCad (PCBNEW (5.1.10-1-10_14)) date 2021-12-22 18:05:12*
%MOMM*%
%LPD*%
G01*
G04 APERTURE LIST*
%TA.AperFunction,Profile*%
%ADD10C,0.200000*%
%TD*%
%ADD11C,0.200000*%
%ADD12C,0.300000*%
G04 APERTURE END LIST*
D10*
X11526550Y-10267000D02*
X11506380Y-10261577D01*
X11506380Y-10261577D02*
X11485928Y-10257400D01*
X11485928Y-10257400D02*
X11465252Y-10254478D01*
X11465252Y-10254478D02*
X11461094Y-10254046D01*
X6704390Y-8316663D02*
X6687037Y-8305365D01*
X6687037Y-8305365D02*
X6669034Y-8302007D01*
X7758693Y-9762379D02*
X7776048Y-9773662D01*
X7776048Y-9773662D02*
X7794049Y-9777009D01*
X14471321Y-8761772D02*
X14480269Y-8743885D01*
X14480269Y-8743885D02*
X14487817Y-8722423D01*
X14487817Y-8722423D02*
X14492435Y-8700159D01*
X14492435Y-8700159D02*
X14494044Y-8677390D01*
X14494044Y-8677390D02*
X14494030Y-8674523D01*
X10518882Y-2401771D02*
X10518882Y-2251911D01*
X12369016Y-2451809D02*
X10568920Y-2451809D01*
X14494030Y-2727017D02*
X14489097Y-2705348D01*
X14489097Y-2705348D02*
X14475836Y-2688448D01*
X14475836Y-2688448D02*
X14456533Y-2678606D01*
X14456533Y-2678606D02*
X14444042Y-2677030D01*
X14493978Y-2726890D02*
X14493978Y-8674295D01*
X5571750Y-8302031D02*
X2256750Y-8302031D01*
X1119037Y-2727017D02*
X1118860Y-8251893D01*
X4868912Y-2676853D02*
X1169050Y-2677030D01*
X8568926Y-1976829D02*
X6868906Y-1976829D01*
X8618964Y-2151835D02*
X8618964Y-2026867D01*
X10468844Y-2201873D02*
X9856750Y-2201873D01*
X11526550Y-10267000D02*
X12955958Y-11093108D01*
X12418800Y-2501847D02*
X12419029Y-2627018D01*
X12419029Y-2502024D02*
X12414103Y-2480346D01*
X12414103Y-2480346D02*
X12400843Y-2463438D01*
X12400843Y-2463438D02*
X12381538Y-2453590D01*
X12381538Y-2453590D02*
X12369042Y-2452012D01*
X4918950Y-2251911D02*
X4918950Y-2626815D01*
X6768830Y-2201873D02*
X6057750Y-2201873D01*
X6819046Y-2027019D02*
X6818868Y-2151835D01*
X14443940Y-2676853D02*
X12469041Y-2677030D01*
X1119037Y-8252020D02*
X1123973Y-8273696D01*
X1123973Y-8273696D02*
X1137242Y-8290598D01*
X1137242Y-8290598D02*
X1156553Y-8300436D01*
X1156553Y-8300436D02*
X1169049Y-8302007D01*
X1169049Y-8302007D02*
X1169050Y-8302007D01*
X1169050Y-2677030D02*
X1147372Y-2681955D01*
X1147372Y-2681955D02*
X1130463Y-2695215D01*
X1130463Y-2695215D02*
X1120615Y-2714522D01*
X1120615Y-2714522D02*
X1119037Y-2727017D01*
X1119037Y-2727017D02*
X1119037Y-2727017D01*
X4869039Y-2677030D02*
X4890717Y-2672105D01*
X4890717Y-2672105D02*
X4907626Y-2658844D01*
X4907626Y-2658844D02*
X4917474Y-2639538D01*
X4917474Y-2639538D02*
X4919051Y-2627043D01*
X4919051Y-2627043D02*
X4919051Y-2627018D01*
X4969038Y-2202025D02*
X4947369Y-2206958D01*
X4947369Y-2206958D02*
X4930469Y-2220219D01*
X4930469Y-2220219D02*
X4920627Y-2239521D01*
X4920627Y-2239521D02*
X4919051Y-2252013D01*
X6769033Y-2202025D02*
X6790712Y-2197100D01*
X6790712Y-2197100D02*
X6807620Y-2183840D01*
X6807620Y-2183840D02*
X6817468Y-2164533D01*
X6817468Y-2164533D02*
X6819046Y-2152038D01*
X6819046Y-2152038D02*
X6819046Y-2152013D01*
X6869033Y-1977007D02*
X6847357Y-1981943D01*
X6847357Y-1981943D02*
X6830455Y-1995212D01*
X6830455Y-1995212D02*
X6820616Y-2014523D01*
X6820616Y-2014523D02*
X6819046Y-2027019D01*
X6819046Y-2027019D02*
X6819046Y-2027019D01*
X8619041Y-2027019D02*
X8614116Y-2005341D01*
X8614116Y-2005341D02*
X8600855Y-1988432D01*
X8600855Y-1988432D02*
X8581549Y-1978584D01*
X8581549Y-1978584D02*
X8569053Y-1977007D01*
X8619041Y-2152013D02*
X8623966Y-2173691D01*
X8623966Y-2173691D02*
X8637226Y-2190600D01*
X8637226Y-2190600D02*
X8656533Y-2200448D01*
X8656533Y-2200448D02*
X8669028Y-2202025D01*
X8669028Y-2202025D02*
X8669053Y-2202025D01*
X10519035Y-2252013D02*
X10514102Y-2230343D01*
X10514102Y-2230343D02*
X10500841Y-2213444D01*
X10500841Y-2213444D02*
X10481539Y-2203601D01*
X10481539Y-2203601D02*
X10469048Y-2202025D01*
X10519035Y-2402025D02*
X10523971Y-2423700D01*
X10523971Y-2423700D02*
X10537240Y-2440602D01*
X10537240Y-2440602D02*
X10556551Y-2450441D01*
X10556551Y-2450441D02*
X10569047Y-2452012D01*
X13148770Y-11055161D02*
X14471372Y-8761925D01*
X13148460Y-11055623D02*
X13148770Y-11055161D01*
X12955958Y-11093108D02*
X12974364Y-11103587D01*
X12974364Y-11103587D02*
X12993639Y-11110987D01*
X12993639Y-11110987D02*
X13013456Y-11115372D01*
X13013456Y-11115372D02*
X13033490Y-11116805D01*
X13033490Y-11116805D02*
X13059973Y-11114234D01*
X13059973Y-11114234D02*
X13085486Y-11106679D01*
X13085486Y-11106679D02*
X13103518Y-11097834D01*
X13103518Y-11097834D02*
X13120242Y-11086333D01*
X13120242Y-11086333D02*
X13135332Y-11072242D01*
X13135332Y-11072242D02*
X13148460Y-11055623D01*
X7794049Y-9777009D02*
X11461094Y-10254046D01*
X6704390Y-8316663D02*
X7758693Y-9762379D01*
X12419029Y-2627018D02*
X12423954Y-2648696D01*
X12423954Y-2648696D02*
X12437215Y-2665605D01*
X12437215Y-2665605D02*
X12456521Y-2675453D01*
X12456521Y-2675453D02*
X12469017Y-2677030D01*
X12469017Y-2677030D02*
X12469041Y-2677030D01*
X8669053Y-2202025D02*
X9372750Y-2202025D01*
X4969038Y-2202025D02*
X5581750Y-2202025D01*
X1169050Y-8302007D02*
X1780750Y-8302031D01*
X6669034Y-8302007D02*
X6055750Y-8302107D01*
X23020466Y-8302807D02*
X23632750Y-8302807D01*
X28520450Y-8302807D02*
X27907750Y-8302807D01*
X24720462Y-2202825D02*
X24107750Y-2202825D01*
X21020447Y-2202825D02*
X20316750Y-2202825D01*
X17220483Y-2677830D02*
X17220459Y-2677830D01*
X17270471Y-2627818D02*
X17265546Y-2649496D01*
X17265546Y-2649496D02*
X17252285Y-2666405D01*
X17252285Y-2666405D02*
X17232978Y-2676253D01*
X17232978Y-2676253D02*
X17220483Y-2677830D01*
X22985109Y-8317463D02*
X21930807Y-9763179D01*
X21930807Y-9763179D02*
X21913452Y-9774462D01*
X21913452Y-9774462D02*
X21895451Y-9777809D01*
X21895451Y-9777809D02*
X18228406Y-10254846D01*
X16733542Y-11093908D02*
X16715136Y-11104387D01*
X16715136Y-11104387D02*
X16695861Y-11111787D01*
X16695861Y-11111787D02*
X16676044Y-11116172D01*
X16676044Y-11116172D02*
X16656010Y-11117605D01*
X16656010Y-11117605D02*
X16629527Y-11115034D01*
X16629527Y-11115034D02*
X16604014Y-11107479D01*
X16604014Y-11107479D02*
X16585982Y-11098634D01*
X16585982Y-11098634D02*
X16569258Y-11087133D01*
X16569258Y-11087133D02*
X16554168Y-11073042D01*
X16554168Y-11073042D02*
X16541040Y-11056423D01*
X16541040Y-11056423D02*
X16540730Y-11055961D01*
X16540730Y-11055961D02*
X15218128Y-8762725D01*
X19170465Y-2402825D02*
X19165529Y-2424500D01*
X19165529Y-2424500D02*
X19152260Y-2441402D01*
X19152260Y-2441402D02*
X19132949Y-2451241D01*
X19132949Y-2451241D02*
X19120453Y-2452812D01*
X19170465Y-2252813D02*
X19175398Y-2231143D01*
X19175398Y-2231143D02*
X19188659Y-2214244D01*
X19188659Y-2214244D02*
X19207961Y-2204401D01*
X19207961Y-2204401D02*
X19220452Y-2202825D01*
X21020472Y-2202825D02*
X21020447Y-2202825D01*
X21070459Y-2152813D02*
X21065534Y-2174491D01*
X21065534Y-2174491D02*
X21052274Y-2191400D01*
X21052274Y-2191400D02*
X21032967Y-2201248D01*
X21032967Y-2201248D02*
X21020472Y-2202825D01*
X21070459Y-2027819D02*
X21075384Y-2006141D01*
X21075384Y-2006141D02*
X21088645Y-1989232D01*
X21088645Y-1989232D02*
X21107951Y-1979384D01*
X21107951Y-1979384D02*
X21120447Y-1977807D01*
X22870454Y-2027819D02*
X22870454Y-2027819D01*
X22820467Y-1977807D02*
X22842143Y-1982743D01*
X22842143Y-1982743D02*
X22859045Y-1996012D01*
X22859045Y-1996012D02*
X22868883Y-2015323D01*
X22868883Y-2015323D02*
X22870454Y-2027819D01*
X22870454Y-2152838D02*
X22870454Y-2152813D01*
X22920466Y-2202825D02*
X22898788Y-2197900D01*
X22898788Y-2197900D02*
X22881880Y-2184640D01*
X22881880Y-2184640D02*
X22872032Y-2165333D01*
X22872032Y-2165333D02*
X22870454Y-2152838D01*
X24720462Y-2202825D02*
X24742131Y-2207758D01*
X24742131Y-2207758D02*
X24759030Y-2221019D01*
X24759030Y-2221019D02*
X24768873Y-2240321D01*
X24768873Y-2240321D02*
X24770449Y-2252813D01*
X24770449Y-2627843D02*
X24770449Y-2627818D01*
X24820461Y-2677830D02*
X24798783Y-2672905D01*
X24798783Y-2672905D02*
X24781874Y-2659644D01*
X24781874Y-2659644D02*
X24772026Y-2640338D01*
X24772026Y-2640338D02*
X24770449Y-2627843D01*
X28570463Y-2727817D02*
X28570463Y-2727817D01*
X28520450Y-2677830D02*
X28542128Y-2682755D01*
X28542128Y-2682755D02*
X28559037Y-2696015D01*
X28559037Y-2696015D02*
X28568885Y-2715322D01*
X28568885Y-2715322D02*
X28570463Y-2727817D01*
X28520451Y-8302807D02*
X28520450Y-8302807D01*
X28570463Y-8252820D02*
X28565527Y-8274496D01*
X28565527Y-8274496D02*
X28552258Y-8291398D01*
X28552258Y-8291398D02*
X28532947Y-8301236D01*
X28532947Y-8301236D02*
X28520451Y-8302807D01*
X22985109Y-8317463D02*
X23002462Y-8306165D01*
X23002462Y-8306165D02*
X23020466Y-8302807D01*
X15245559Y-2677653D02*
X17220459Y-2677830D01*
X22870632Y-2027667D02*
X22870632Y-2152635D01*
X22920670Y-2202673D02*
X23631750Y-2202673D01*
X24770550Y-2252711D02*
X24770550Y-2627615D01*
X17270471Y-2502824D02*
X17275397Y-2481146D01*
X17275397Y-2481146D02*
X17288657Y-2464238D01*
X17288657Y-2464238D02*
X17307962Y-2454390D01*
X17307962Y-2454390D02*
X17320458Y-2452812D01*
X17270700Y-2502647D02*
X17270471Y-2627818D01*
X18162950Y-10267800D02*
X16733542Y-11093908D01*
X19220656Y-2202673D02*
X19832750Y-2202673D01*
X21070536Y-2152635D02*
X21070536Y-2027667D01*
X21120574Y-1977629D02*
X22820594Y-1977629D01*
X24820588Y-2677653D02*
X28520450Y-2677830D01*
X28570463Y-2727817D02*
X28570640Y-8252693D01*
X24117750Y-8302731D02*
X27432750Y-8302731D01*
X15195522Y-2727690D02*
X15195522Y-8675095D01*
X15195470Y-2727817D02*
X15200402Y-2706148D01*
X15200402Y-2706148D02*
X15213664Y-2689248D01*
X15213664Y-2689248D02*
X15232967Y-2679406D01*
X15232967Y-2679406D02*
X15245458Y-2677830D01*
X17320484Y-2452609D02*
X19120580Y-2452609D01*
X19170618Y-2402571D02*
X19170618Y-2252711D01*
X15218179Y-8762572D02*
X15209231Y-8744685D01*
X15209231Y-8744685D02*
X15201683Y-8723223D01*
X15201683Y-8723223D02*
X15197065Y-8700959D01*
X15197065Y-8700959D02*
X15195456Y-8678190D01*
X15195456Y-8678190D02*
X15195470Y-8675323D01*
X18162950Y-10267800D02*
X18183119Y-10262377D01*
X18183119Y-10262377D02*
X18203571Y-10258200D01*
X18203571Y-10258200D02*
X18224248Y-10255278D01*
X18224248Y-10255278D02*
X18228406Y-10254846D01*
X2256250Y-8325300D02*
X2258600Y-8347600D01*
X2256250Y-8324700D02*
X2256250Y-8325300D01*
X2256750Y-8302031D02*
X2256250Y-8324700D01*
X1778860Y-8348800D02*
X1778770Y-8349300D01*
X1778960Y-8348400D02*
X1778860Y-8348800D01*
X1778960Y-8348300D02*
X1778960Y-8348400D01*
X1778960Y-8348300D02*
X1778960Y-8348300D01*
X1778960Y-8348300D02*
X1778960Y-8348300D01*
X1781230Y-8325200D02*
X1778960Y-8348300D01*
X1781230Y-8325200D02*
X1781230Y-8325200D01*
X1781250Y-8325000D02*
X1781230Y-8325200D01*
X1780750Y-8302031D02*
X1781250Y-8325000D01*
X1068750Y-8562500D02*
X1068750Y-11649700D01*
X28619450Y-8560800D02*
X28619550Y-11648600D01*
X6582070Y-11374500D02*
X6601660Y-11384900D01*
X19798350Y-1830660D02*
X19781150Y-1816630D01*
X19781150Y-1816630D02*
X19761550Y-1806210D01*
X28586450Y-11729000D02*
X28600450Y-11711800D01*
X28030250Y-8447600D02*
X28007150Y-8445300D01*
X6056250Y-1912500D02*
X6057750Y-2201873D01*
X6058440Y-1890160D02*
X6056250Y-1912500D01*
X6064860Y-1868910D02*
X6058440Y-1890160D01*
X6075280Y-1849320D02*
X6064860Y-1868910D01*
X6089300Y-1832120D02*
X6075280Y-1849320D01*
X6106410Y-1817970D02*
X6089300Y-1832120D01*
X6125930Y-1807410D02*
X6106410Y-1817970D01*
X6147130Y-1800850D02*
X6125930Y-1807410D01*
X6169440Y-1798500D02*
X6147130Y-1800850D01*
X6170020Y-1798500D02*
X6169440Y-1798500D01*
X9257260Y-1798500D02*
X6170020Y-1798500D01*
X9279590Y-1800690D02*
X9257260Y-1798500D01*
X9300840Y-1807110D02*
X9279590Y-1800690D01*
X9320430Y-1817530D02*
X9300840Y-1807110D01*
X9337630Y-1831560D02*
X9320430Y-1817530D01*
X9351780Y-1848660D02*
X9337630Y-1831560D01*
X9362340Y-1868180D02*
X9351780Y-1848660D01*
X9368900Y-1889380D02*
X9362340Y-1868180D01*
X9371250Y-1911690D02*
X9368900Y-1889380D01*
X9371250Y-1912270D02*
X9371250Y-1911690D01*
X9372750Y-2202025D02*
X9371250Y-1912270D01*
X20317050Y-1911600D02*
X20316750Y-2202825D01*
X20319150Y-1889260D02*
X20317050Y-1911600D01*
X20325650Y-1868010D02*
X20319150Y-1889260D01*
X20336050Y-1848420D02*
X20325650Y-1868010D01*
X20350050Y-1831220D02*
X20336050Y-1848420D01*
X20367150Y-1817070D02*
X20350050Y-1831220D01*
X20386650Y-1806510D02*
X20367150Y-1817070D01*
X20407850Y-1799950D02*
X20386650Y-1806510D01*
X20430150Y-1797600D02*
X20407850Y-1799950D01*
X20430750Y-1797600D02*
X20430150Y-1797600D01*
X23518050Y-1797600D02*
X20430750Y-1797600D01*
X23540350Y-1799790D02*
X23518050Y-1797600D01*
X23561550Y-1806210D02*
X23540350Y-1799790D01*
X23581150Y-1816630D02*
X23561550Y-1806210D01*
X23598350Y-1830660D02*
X23581150Y-1816630D01*
X23612550Y-1847760D02*
X23598350Y-1830660D01*
X23623050Y-1867280D02*
X23612550Y-1847760D01*
X23629650Y-1888480D02*
X23623050Y-1867280D01*
X23631950Y-1910790D02*
X23629650Y-1888480D01*
X23631950Y-1911370D02*
X23631950Y-1910790D01*
X23631750Y-2202673D02*
X23631950Y-1911370D01*
X5571250Y-8324500D02*
X5571750Y-8302031D01*
X5569060Y-8346800D02*
X5571250Y-8324500D01*
X5562640Y-8368100D02*
X5569060Y-8346800D01*
X5552220Y-8387700D02*
X5562640Y-8368100D01*
X5538200Y-8404900D02*
X5552220Y-8387700D01*
X5521090Y-8419000D02*
X5538200Y-8404900D01*
X5501570Y-8429600D02*
X5521090Y-8419000D01*
X5480370Y-8436200D02*
X5501570Y-8429600D01*
X5458060Y-8438500D02*
X5480370Y-8436200D01*
X5457480Y-8438500D02*
X5458060Y-8438500D01*
X2370240Y-8438500D02*
X5457480Y-8438500D01*
X2347910Y-8436300D02*
X2370240Y-8438500D01*
X2326660Y-8429900D02*
X2347910Y-8436300D01*
X2307070Y-8419500D02*
X2326660Y-8429900D01*
X2289860Y-8405400D02*
X2307070Y-8419500D01*
X2275720Y-8388300D02*
X2289860Y-8405400D01*
X2265160Y-8368800D02*
X2275720Y-8388300D01*
X2258600Y-8347600D02*
X2265160Y-8368800D01*
X27431950Y-8323600D02*
X27432750Y-8302731D01*
X27429850Y-8345900D02*
X27431950Y-8323600D01*
X27423350Y-8367200D02*
X27429850Y-8345900D01*
X27412950Y-8386800D02*
X27423350Y-8367200D01*
X27398950Y-8404000D02*
X27412950Y-8386800D01*
X27381850Y-8418100D02*
X27398950Y-8404000D01*
X27362350Y-8428700D02*
X27381850Y-8418100D01*
X27341150Y-8435300D02*
X27362350Y-8428700D01*
X27318850Y-8437600D02*
X27341150Y-8435300D01*
X27318250Y-8437600D02*
X27318850Y-8437600D01*
X24230950Y-8437600D02*
X27318250Y-8437600D01*
X24208650Y-8435400D02*
X24230950Y-8437600D01*
X24187450Y-8429000D02*
X24208650Y-8435400D01*
X24167850Y-8418600D02*
X24187450Y-8429000D01*
X24150650Y-8404500D02*
X24167850Y-8418600D01*
X24136450Y-8387400D02*
X24150650Y-8404500D01*
X24125950Y-8367900D02*
X24136450Y-8387400D01*
X24119350Y-8346700D02*
X24125950Y-8367900D01*
X24117050Y-8324400D02*
X24119350Y-8346700D01*
X24117050Y-8323800D02*
X24117050Y-8324400D01*
X24117750Y-8302731D02*
X24117050Y-8323800D01*
X9856250Y-1912500D02*
X9856750Y-2201873D01*
X9858450Y-1890160D02*
X9856250Y-1912500D01*
X9864850Y-1868910D02*
X9858450Y-1890160D01*
X9875250Y-1849320D02*
X9864850Y-1868910D01*
X9889350Y-1832120D02*
X9875250Y-1849320D01*
X9906450Y-1817970D02*
X9889350Y-1832120D01*
X9925950Y-1807410D02*
X9906450Y-1817970D01*
X9947150Y-1800850D02*
X9925950Y-1807410D01*
X9969450Y-1798500D02*
X9947150Y-1800850D01*
X9970050Y-1798500D02*
X9969450Y-1798500D01*
X19718050Y-1797600D02*
X9970050Y-1798500D01*
X19740350Y-1799790D02*
X19718050Y-1797600D01*
X19761550Y-1806210D02*
X19740350Y-1799790D01*
X19812550Y-1847760D02*
X19798350Y-1830660D01*
X19823050Y-1867280D02*
X19812550Y-1847760D01*
X19829650Y-1888480D02*
X19823050Y-1867280D01*
X19831950Y-1910790D02*
X19829650Y-1888480D01*
X19831950Y-1911370D02*
X19831950Y-1910790D01*
X19832750Y-2202673D02*
X19831950Y-1911370D01*
X23632050Y-8323600D02*
X23632750Y-8302807D01*
X23629850Y-8345900D02*
X23632050Y-8323600D01*
X23623350Y-8367200D02*
X23629850Y-8345900D01*
X23612950Y-8386800D02*
X23623350Y-8367200D01*
X23598950Y-8404000D02*
X23612950Y-8386800D01*
X23581850Y-8418100D02*
X23598950Y-8404000D01*
X23562350Y-8428700D02*
X23581850Y-8418100D01*
X23541150Y-8435300D02*
X23562350Y-8428700D01*
X23518850Y-8437600D02*
X23541150Y-8435300D01*
X23518250Y-8437600D02*
X23518850Y-8437600D01*
X23399250Y-8437600D02*
X23518250Y-8437600D01*
X23399250Y-8437600D02*
X23399250Y-8437600D01*
X23398650Y-8437600D02*
X23399250Y-8437600D01*
X23398450Y-8437600D02*
X23398650Y-8437600D01*
X23398250Y-8437600D02*
X23398450Y-8437600D01*
X23398150Y-8437600D02*
X23398250Y-8437600D01*
X23375050Y-8440100D02*
X23398150Y-8437600D01*
X23374650Y-8440100D02*
X23375050Y-8440100D01*
X23374250Y-8440200D02*
X23374650Y-8440100D01*
X23374150Y-8440300D02*
X23374250Y-8440200D01*
X23374150Y-8440300D02*
X23374150Y-8440300D01*
X23352050Y-8447100D02*
X23374150Y-8440300D01*
X23351550Y-8447300D02*
X23352050Y-8447100D01*
X23351150Y-8447400D02*
X23351550Y-8447300D01*
X23351150Y-8447500D02*
X23351150Y-8447400D01*
X23351150Y-8447500D02*
X23351150Y-8447500D01*
X23351150Y-8447500D02*
X23351150Y-8447500D01*
X23330750Y-8458500D02*
X23351150Y-8447500D01*
X23330350Y-8458800D02*
X23330750Y-8458500D01*
X23329950Y-8459000D02*
X23330350Y-8458800D01*
X23329950Y-8459100D02*
X23329950Y-8459000D01*
X23312050Y-8473800D02*
X23329950Y-8459100D01*
X23311750Y-8474100D02*
X23312050Y-8473800D01*
X23311450Y-8474500D02*
X23311750Y-8474100D01*
X23311350Y-8474500D02*
X23311450Y-8474500D01*
X23296750Y-8492500D02*
X23311350Y-8474500D01*
X23296450Y-8492900D02*
X23296750Y-8492500D01*
X23296250Y-8493200D02*
X23296450Y-8492900D01*
X23296150Y-8493300D02*
X23296250Y-8493200D01*
X23296150Y-8493300D02*
X23296150Y-8493300D01*
X23296150Y-8493300D02*
X23296150Y-8493300D01*
X23285250Y-8513800D02*
X23296150Y-8493300D01*
X23285150Y-8514200D02*
X23285250Y-8513800D01*
X23284950Y-8514600D02*
X23285150Y-8514200D01*
X23284950Y-8514700D02*
X23284950Y-8514600D01*
X23278250Y-8536800D02*
X23284950Y-8514700D01*
X23278150Y-8537300D02*
X23278250Y-8536800D01*
X23278050Y-8537700D02*
X23278150Y-8537300D01*
X23278050Y-8537800D02*
X23278050Y-8537700D01*
X23278050Y-8537800D02*
X23278050Y-8537800D01*
X23278050Y-8537800D02*
X23278050Y-8537800D01*
X23275750Y-8560900D02*
X23278050Y-8537800D01*
X23275750Y-8560900D02*
X23275750Y-8560900D01*
X23275750Y-8561100D02*
X23275750Y-8560900D01*
X23275750Y-11278600D02*
X23275750Y-8561100D01*
X23273550Y-11300900D02*
X23275750Y-11278600D01*
X23267150Y-11322200D02*
X23273550Y-11300900D01*
X23256750Y-11341800D02*
X23267150Y-11322200D01*
X23242650Y-11359000D02*
X23256750Y-11341800D01*
X23225550Y-11373100D02*
X23242650Y-11359000D01*
X23206050Y-11383700D02*
X23225550Y-11373100D01*
X23184850Y-11390300D02*
X23206050Y-11383700D01*
X23162550Y-11392600D02*
X23184850Y-11390300D01*
X23161950Y-11392600D02*
X23162550Y-11392600D01*
X6645450Y-11393400D02*
X23161950Y-11392600D01*
X6622910Y-11391300D02*
X6645240Y-11393500D01*
X6601660Y-11384900D02*
X6622910Y-11391300D01*
X6564860Y-11360400D02*
X6582070Y-11374500D01*
X6550720Y-11343300D02*
X6564860Y-11360400D01*
X6540160Y-11323800D02*
X6550720Y-11343300D01*
X6533600Y-11302600D02*
X6540160Y-11323800D01*
X6531250Y-11280300D02*
X6533600Y-11302600D01*
X6531250Y-11279700D02*
X6531250Y-11280300D01*
X6531250Y-8562000D02*
X6531250Y-11279700D01*
X6531250Y-8562000D02*
X6531250Y-8562000D01*
X6531250Y-8561400D02*
X6531250Y-8562000D01*
X6531220Y-8561200D02*
X6531250Y-8561400D01*
X6531230Y-8561000D02*
X6531220Y-8561200D01*
X6531220Y-8560900D02*
X6531230Y-8561000D01*
X6528800Y-8537900D02*
X6531220Y-8560900D01*
X6528710Y-8537400D02*
X6528800Y-8537900D01*
X6528620Y-8537000D02*
X6528710Y-8537400D01*
X6528600Y-8536900D02*
X6528620Y-8537000D01*
X6521750Y-8514800D02*
X6528600Y-8536900D01*
X6521570Y-8514300D02*
X6521750Y-8514800D01*
X6521400Y-8513900D02*
X6521570Y-8514300D01*
X6521370Y-8513900D02*
X6521400Y-8513900D01*
X6521370Y-8513900D02*
X6521370Y-8513900D01*
X6521370Y-8513900D02*
X6521370Y-8513900D01*
X6510350Y-8493500D02*
X6521370Y-8513900D01*
X6510090Y-8493100D02*
X6510350Y-8493500D01*
X6509840Y-8492700D02*
X6510090Y-8493100D01*
X6509800Y-8492700D02*
X6509840Y-8492700D01*
X6495030Y-8474800D02*
X6509800Y-8492700D01*
X6494700Y-8474500D02*
X6495030Y-8474800D01*
X6494390Y-8474200D02*
X6494700Y-8474500D01*
X6494340Y-8474100D02*
X6494390Y-8474200D01*
X6476380Y-8459500D02*
X6494340Y-8474100D01*
X6476000Y-8459200D02*
X6476380Y-8459500D01*
X6475620Y-8459000D02*
X6476000Y-8459200D01*
X6475560Y-8458900D02*
X6475620Y-8459000D01*
X6475560Y-8458900D02*
X6475560Y-8458900D01*
X6475560Y-8458900D02*
X6475560Y-8458900D01*
X6455100Y-8448000D02*
X6475560Y-8458900D01*
X6454680Y-8447900D02*
X6455100Y-8448000D01*
X6454260Y-8447700D02*
X6454680Y-8447900D01*
X6454200Y-8447700D02*
X6454260Y-8447700D01*
X6432010Y-8441000D02*
X6454200Y-8447700D01*
X6431560Y-8440900D02*
X6432010Y-8441000D01*
X6431120Y-8440800D02*
X6431560Y-8440900D01*
X6431050Y-8440800D02*
X6431120Y-8440800D01*
X6431050Y-8440800D02*
X6431050Y-8440800D01*
X6431050Y-8440800D02*
X6431050Y-8440800D01*
X6407990Y-8438500D02*
X6431050Y-8440800D01*
X6407990Y-8438500D02*
X6407990Y-8438500D01*
X6407740Y-8438500D02*
X6407990Y-8438500D01*
X6170240Y-8438500D02*
X6407740Y-8438500D01*
X6147910Y-8436300D02*
X6170240Y-8438500D01*
X6126660Y-8429900D02*
X6147910Y-8436300D01*
X6107070Y-8419500D02*
X6126660Y-8429900D01*
X6089860Y-8405400D02*
X6107070Y-8419500D01*
X6075720Y-8388300D02*
X6089860Y-8405400D01*
X6065160Y-8368800D02*
X6075720Y-8388300D01*
X6058600Y-8347600D02*
X6065160Y-8368800D01*
X6056250Y-8325300D02*
X6058600Y-8347600D01*
X6056250Y-8324700D02*
X6056250Y-8325300D01*
X6055750Y-8302107D02*
X6056250Y-8324700D01*
X5581250Y-1912010D02*
X5581750Y-2202025D01*
X5581250Y-1912000D02*
X5581250Y-1912010D01*
X5581250Y-1911410D02*
X5581250Y-1912000D01*
X5581220Y-1911190D02*
X5581250Y-1911410D01*
X5581230Y-1910970D02*
X5581220Y-1911190D01*
X5581220Y-1910900D02*
X5581230Y-1910970D01*
X5578800Y-1887850D02*
X5581220Y-1910900D01*
X5578710Y-1887410D02*
X5578800Y-1887850D01*
X5578620Y-1886960D02*
X5578710Y-1887410D01*
X5578600Y-1886900D02*
X5578620Y-1886960D01*
X5571750Y-1864760D02*
X5578600Y-1886900D01*
X5571570Y-1864340D02*
X5571750Y-1864760D01*
X5571400Y-1863920D02*
X5571570Y-1864340D01*
X5571370Y-1863860D02*
X5571400Y-1863920D01*
X5571370Y-1863860D02*
X5571370Y-1863860D01*
X5571370Y-1863860D02*
X5571370Y-1863860D01*
X5560350Y-1843470D02*
X5571370Y-1863860D01*
X5560090Y-1843090D02*
X5560350Y-1843470D01*
X5559840Y-1842710D02*
X5560090Y-1843090D01*
X5559800Y-1842660D02*
X5559840Y-1842710D01*
X5545030Y-1824800D02*
X5559800Y-1842660D01*
X5544700Y-1824480D02*
X5545030Y-1824800D01*
X5544390Y-1824160D02*
X5544700Y-1824480D01*
X5544340Y-1824120D02*
X5544390Y-1824160D01*
X5526380Y-1809470D02*
X5544340Y-1824120D01*
X5526000Y-1809220D02*
X5526380Y-1809470D01*
X5525620Y-1808960D02*
X5526000Y-1809220D01*
X5525560Y-1808930D02*
X5525620Y-1808960D01*
X5525560Y-1808930D02*
X5525560Y-1808930D01*
X5525560Y-1808930D02*
X5525560Y-1808930D01*
X5505100Y-1798050D02*
X5525560Y-1808930D01*
X5504680Y-1797870D02*
X5505100Y-1798050D01*
X5504260Y-1797700D02*
X5504680Y-1797870D01*
X5504200Y-1797680D02*
X5504260Y-1797700D01*
X5482010Y-1790980D02*
X5504200Y-1797680D01*
X5481560Y-1790890D02*
X5482010Y-1790980D01*
X5481120Y-1790790D02*
X5481560Y-1790890D01*
X5481050Y-1790790D02*
X5481120Y-1790790D01*
X5481050Y-1790790D02*
X5481050Y-1790790D01*
X5481050Y-1790790D02*
X5481050Y-1790790D01*
X5457990Y-1788530D02*
X5481050Y-1790790D01*
X5457990Y-1788530D02*
X5457990Y-1788530D01*
X5457740Y-1788500D02*
X5457990Y-1788530D01*
X1182740Y-1788500D02*
X5457740Y-1788500D01*
X1160410Y-1786310D02*
X1182740Y-1788500D01*
X1139160Y-1779900D02*
X1160410Y-1786310D01*
X1119570Y-1769480D02*
X1139160Y-1779900D01*
X1102360Y-1755450D02*
X1119570Y-1769480D01*
X1088220Y-1738350D02*
X1102360Y-1755450D01*
X1077660Y-1718820D02*
X1088220Y-1738350D01*
X1071100Y-1697620D02*
X1077660Y-1718820D01*
X1068750Y-1675310D02*
X1071100Y-1697620D01*
X1068750Y-1674730D02*
X1068750Y-1675310D01*
X1068750Y-1318750D02*
X1068750Y-1674730D01*
X1070940Y-1296410D02*
X1068750Y-1318750D01*
X1077360Y-1275160D02*
X1070940Y-1296410D01*
X1087780Y-1255570D02*
X1077360Y-1275160D01*
X1101800Y-1238370D02*
X1087780Y-1255570D01*
X1118910Y-1224220D02*
X1101800Y-1238370D01*
X1138430Y-1213660D02*
X1118910Y-1224220D01*
X1159630Y-1207100D02*
X1138430Y-1213660D01*
X1181940Y-1204750D02*
X1159630Y-1207100D01*
X1182520Y-1204750D02*
X1181940Y-1204750D01*
X28505550Y-1203850D02*
X1182520Y-1204750D01*
X28527850Y-1206040D02*
X28505550Y-1203850D01*
X28549050Y-1212460D02*
X28527850Y-1206040D01*
X28568650Y-1222880D02*
X28549050Y-1212460D01*
X28585850Y-1236910D02*
X28568650Y-1222880D01*
X28600050Y-1254010D02*
X28585850Y-1236910D01*
X28610550Y-1273530D02*
X28600050Y-1254010D01*
X28617150Y-1294730D02*
X28610550Y-1273530D01*
X28619450Y-1317040D02*
X28617150Y-1294730D01*
X28619450Y-1317620D02*
X28619450Y-1317040D01*
X28619550Y-1673610D02*
X28619450Y-1317620D01*
X28617350Y-1695940D02*
X28619550Y-1673610D01*
X28610850Y-1717190D02*
X28617350Y-1695940D01*
X28600450Y-1736790D02*
X28610850Y-1717190D01*
X28586450Y-1753990D02*
X28600450Y-1736790D01*
X28569350Y-1768140D02*
X28586450Y-1753990D01*
X28549850Y-1778690D02*
X28569350Y-1768140D01*
X28528650Y-1785260D02*
X28549850Y-1778690D01*
X28506350Y-1787600D02*
X28528650Y-1785260D01*
X28505750Y-1787600D02*
X28506350Y-1787600D01*
X24230550Y-1787600D02*
X28505750Y-1787600D01*
X24230450Y-1787600D02*
X24230550Y-1787600D01*
X24229950Y-1787600D02*
X24230450Y-1787600D01*
X24229650Y-1787630D02*
X24229950Y-1787600D01*
X24229450Y-1787630D02*
X24229650Y-1787630D01*
X24229350Y-1787630D02*
X24229450Y-1787630D01*
X24206350Y-1790050D02*
X24229350Y-1787630D01*
X24205950Y-1790150D02*
X24206350Y-1790050D01*
X24205450Y-1790230D02*
X24205950Y-1790150D01*
X24205350Y-1790250D02*
X24205450Y-1790230D01*
X24205350Y-1790250D02*
X24205350Y-1790250D01*
X24183250Y-1797100D02*
X24205350Y-1790250D01*
X24182850Y-1797280D02*
X24183250Y-1797100D01*
X24182450Y-1797450D02*
X24182850Y-1797280D01*
X24182350Y-1797480D02*
X24182450Y-1797450D01*
X24182350Y-1797480D02*
X24182350Y-1797480D01*
X24182350Y-1797480D02*
X24182350Y-1797480D01*
X24161950Y-1808510D02*
X24182350Y-1797480D01*
X24161550Y-1808760D02*
X24161950Y-1808510D01*
X24161250Y-1809010D02*
X24161550Y-1808760D01*
X24161150Y-1809050D02*
X24161250Y-1809010D01*
X24143350Y-1823820D02*
X24161150Y-1809050D01*
X24142950Y-1824150D02*
X24143350Y-1823820D01*
X24142650Y-1824460D02*
X24142950Y-1824150D01*
X24142650Y-1824520D02*
X24142650Y-1824460D01*
X24127950Y-1842480D02*
X24142650Y-1824520D01*
X24127750Y-1842850D02*
X24127950Y-1842480D01*
X24127450Y-1843230D02*
X24127750Y-1842850D01*
X24127450Y-1843290D02*
X24127450Y-1843230D01*
X24127450Y-1843290D02*
X24127450Y-1843290D01*
X24127450Y-1843290D02*
X24127450Y-1843290D01*
X24116550Y-1863750D02*
X24127450Y-1843290D01*
X24116350Y-1864170D02*
X24116550Y-1863750D01*
X24116150Y-1864590D02*
X24116350Y-1864170D01*
X24116150Y-1864650D02*
X24116150Y-1864590D01*
X24109450Y-1886840D02*
X24116150Y-1864650D01*
X24109350Y-1887290D02*
X24109450Y-1886840D01*
X24109250Y-1887730D02*
X24109350Y-1887290D01*
X24109250Y-1887800D02*
X24109250Y-1887730D01*
X24109250Y-1887800D02*
X24109250Y-1887800D01*
X24109250Y-1887800D02*
X24109250Y-1887800D01*
X24107050Y-1910860D02*
X24109250Y-1887800D01*
X24106950Y-1911110D02*
X24107050Y-1910860D01*
X24107750Y-2202825D02*
X24106950Y-1911110D01*
X27906950Y-8324100D02*
X27907750Y-8302807D01*
X27907050Y-8324100D02*
X27906950Y-8324100D01*
X27907050Y-8324700D02*
X27907050Y-8324100D01*
X27907050Y-8324900D02*
X27907050Y-8324700D01*
X27907050Y-8325100D02*
X27907050Y-8324900D01*
X27907050Y-8325200D02*
X27907050Y-8325100D01*
X27909450Y-8348300D02*
X27907050Y-8325200D01*
X27909550Y-8348700D02*
X27909450Y-8348300D01*
X27909650Y-8349100D02*
X27909550Y-8348700D01*
X27909650Y-8349200D02*
X27909650Y-8349100D01*
X27916550Y-8371300D02*
X27909650Y-8349200D01*
X27916650Y-8371800D02*
X27916550Y-8371300D01*
X27916850Y-8372200D02*
X27916650Y-8371800D01*
X27916850Y-8372200D02*
X27916850Y-8372200D01*
X27916850Y-8372200D02*
X27916850Y-8372200D01*
X27916850Y-8372200D02*
X27916850Y-8372200D01*
X27927950Y-8392600D02*
X27916850Y-8372200D01*
X27928150Y-8393000D02*
X27927950Y-8392600D01*
X27928450Y-8393400D02*
X27928150Y-8393000D01*
X27928450Y-8393400D02*
X27928450Y-8393400D01*
X27943250Y-8411300D02*
X27928450Y-8393400D01*
X27943550Y-8411600D02*
X27943250Y-8411300D01*
X27943850Y-8411900D02*
X27943550Y-8411600D01*
X27943950Y-8412000D02*
X27943850Y-8411900D01*
X27943950Y-8412000D02*
X27943950Y-8412000D01*
X27943950Y-8412000D02*
X27943950Y-8412000D01*
X27961850Y-8426600D02*
X27943950Y-8412000D01*
X27962250Y-8426900D02*
X27961850Y-8426600D01*
X27962650Y-8427100D02*
X27962250Y-8426900D01*
X27962650Y-8427200D02*
X27962650Y-8427100D01*
X27962650Y-8427200D02*
X27962650Y-8427200D01*
X27983150Y-8438100D02*
X27962650Y-8427200D01*
X27983550Y-8438200D02*
X27983150Y-8438100D01*
X27983950Y-8438400D02*
X27983550Y-8438200D01*
X27984050Y-8438400D02*
X27983950Y-8438400D01*
X28006250Y-8445100D02*
X27984050Y-8438400D01*
X28006650Y-8445200D02*
X28006250Y-8445100D01*
X28007150Y-8445300D02*
X28006650Y-8445200D01*
X28007150Y-8445300D02*
X28007150Y-8445300D01*
X28007150Y-8445300D02*
X28007150Y-8445300D01*
X28007150Y-8445300D02*
X28007150Y-8445300D01*
X28030250Y-8447600D02*
X28030250Y-8447600D01*
X28030550Y-8447600D02*
X28030250Y-8447600D01*
X28505550Y-8447600D02*
X28030550Y-8447600D01*
X28527850Y-8449800D02*
X28505550Y-8447600D01*
X28549050Y-8456200D02*
X28527850Y-8449800D01*
X28568650Y-8466600D02*
X28549050Y-8456200D01*
X28585850Y-8480700D02*
X28568650Y-8466600D01*
X28600050Y-8497800D02*
X28585850Y-8480700D01*
X28610550Y-8517300D02*
X28600050Y-8497800D01*
X28617150Y-8538500D02*
X28610550Y-8517300D01*
X28619450Y-8560800D02*
X28617150Y-8538500D01*
X28617350Y-11670900D02*
X28619550Y-11648600D01*
X28610850Y-11692200D02*
X28617350Y-11670900D01*
X28600450Y-11711800D02*
X28610850Y-11692200D01*
X28569350Y-11743100D02*
X28586450Y-11729000D01*
X28549850Y-11753700D02*
X28569350Y-11743100D01*
X28528650Y-11760300D02*
X28549850Y-11753700D01*
X28506350Y-11762600D02*
X28528650Y-11760300D01*
X28505750Y-11762600D02*
X28506350Y-11762600D01*
X1182740Y-11763500D02*
X28505750Y-11762600D01*
X1160410Y-11761300D02*
X1182740Y-11763500D01*
X1139160Y-11754900D02*
X1160410Y-11761300D01*
X1119570Y-11744500D02*
X1139160Y-11754900D01*
X1102360Y-11730400D02*
X1119570Y-11744500D01*
X1088220Y-11713300D02*
X1102360Y-11730400D01*
X1077660Y-11693800D02*
X1088220Y-11713300D01*
X1071100Y-11672600D02*
X1077660Y-11693800D01*
X1068750Y-11650300D02*
X1071100Y-11672600D01*
X1068750Y-11649700D02*
X1068750Y-11650300D01*
X1070940Y-8540200D02*
X1068750Y-8562500D01*
X1077360Y-8518900D02*
X1070940Y-8540200D01*
X1087780Y-8499300D02*
X1077360Y-8518900D01*
X1101800Y-8482100D02*
X1087780Y-8499300D01*
X1118910Y-8468000D02*
X1101800Y-8482100D01*
X1138430Y-8457400D02*
X1118910Y-8468000D01*
X1159630Y-8450800D02*
X1138430Y-8457400D01*
X1181940Y-8448500D02*
X1159630Y-8450800D01*
X1182520Y-8448500D02*
X1181940Y-8448500D01*
X1657740Y-8448500D02*
X1182520Y-8448500D01*
X1657750Y-8448500D02*
X1657740Y-8448500D01*
X1658350Y-8448500D02*
X1657750Y-8448500D01*
X1658560Y-8448500D02*
X1658350Y-8448500D01*
X1658780Y-8448500D02*
X1658560Y-8448500D01*
X1658850Y-8448500D02*
X1658780Y-8448500D01*
X1681900Y-8446000D02*
X1658850Y-8448500D01*
X1682350Y-8446000D02*
X1681900Y-8446000D01*
X1682790Y-8445900D02*
X1682350Y-8446000D01*
X1682860Y-8445900D02*
X1682790Y-8445900D01*
X1705000Y-8439000D02*
X1682860Y-8445900D01*
X1705420Y-8438800D02*
X1705000Y-8439000D01*
X1705830Y-8438700D02*
X1705420Y-8438800D01*
X1705900Y-8438600D02*
X1705830Y-8438700D01*
X1705900Y-8438600D02*
X1705900Y-8438600D01*
X1705900Y-8438600D02*
X1705900Y-8438600D01*
X1726280Y-8427600D02*
X1705900Y-8438600D01*
X1726660Y-8427300D02*
X1726280Y-8427600D01*
X1727040Y-8427100D02*
X1726660Y-8427300D01*
X1727090Y-8427100D02*
X1727040Y-8427100D01*
X1744950Y-8412300D02*
X1727090Y-8427100D01*
X1745270Y-8412000D02*
X1744950Y-8412300D01*
X1745590Y-8411600D02*
X1745270Y-8412000D01*
X1745640Y-8411600D02*
X1745590Y-8411600D01*
X1745640Y-8411600D02*
X1745640Y-8411600D01*
X1745640Y-8411600D02*
X1745640Y-8411600D01*
X1760280Y-8393600D02*
X1745640Y-8411600D01*
X1760540Y-8393200D02*
X1760280Y-8393600D01*
X1760790Y-8392900D02*
X1760540Y-8393200D01*
X1760820Y-8392800D02*
X1760790Y-8392900D01*
X1771700Y-8372400D02*
X1760820Y-8392800D01*
X1771880Y-8371900D02*
X1771700Y-8372400D01*
X1772060Y-8371500D02*
X1771880Y-8371900D01*
X1772080Y-8371400D02*
X1772060Y-8371500D01*
X1778770Y-8349300D02*
X1772080Y-8371400D01*
D11*
X1280750Y-3500500D02*
X1320750Y-3540500D01*
X1320750Y-3500500D02*
X1280750Y-3540500D01*
X1280750Y-5000500D02*
X1320750Y-5040500D01*
X1320750Y-5000500D02*
X1280750Y-5040500D01*
X1280750Y-5400500D02*
X1320750Y-5440500D01*
X1320750Y-5400500D02*
X1280750Y-5440500D01*
X1280750Y-6650500D02*
X1320750Y-6690500D01*
X1320750Y-6650500D02*
X1280750Y-6690500D01*
X1280750Y-6900500D02*
X1320750Y-6940500D01*
X1320750Y-6900500D02*
X1280750Y-6940500D01*
X2340750Y-8120500D02*
X2380750Y-8160500D01*
X2380750Y-8120500D02*
X2340750Y-8160500D01*
X2380750Y-6230500D02*
X2420750Y-6270500D01*
X2420750Y-6230500D02*
X2380750Y-6270500D01*
X2390750Y-3990500D02*
X2430750Y-4030500D01*
X2430750Y-3990500D02*
X2390750Y-4030500D01*
X2410750Y-4337001D02*
X2450750Y-4377001D01*
X2450750Y-4337001D02*
X2410750Y-4377001D01*
X2410750Y-5880500D02*
X2450750Y-5920500D01*
X2450750Y-5880500D02*
X2410750Y-5920500D01*
X2420273Y-4140999D02*
X2460273Y-4180999D01*
X2460273Y-4140999D02*
X2420273Y-4180999D01*
X3150750Y-5420500D02*
X3190750Y-5460500D01*
X3190750Y-5420500D02*
X3150750Y-5460500D01*
X3176484Y-4999491D02*
X3216484Y-5039491D01*
X3216484Y-4999491D02*
X3176484Y-5039491D01*
X3180750Y-3500500D02*
X3220750Y-3540500D01*
X3220750Y-3500500D02*
X3180750Y-3540500D01*
X3190750Y-6900500D02*
X3230750Y-6940500D01*
X3230750Y-6900500D02*
X3190750Y-6940500D01*
X3259695Y-6569445D02*
X3299695Y-6609445D01*
X3299695Y-6569445D02*
X3259695Y-6609445D01*
X3273250Y-5760500D02*
X3313250Y-5800500D01*
X3313250Y-5760500D02*
X3273250Y-5800500D01*
X3283250Y-3840500D02*
X3323250Y-3880500D01*
X3323250Y-3840500D02*
X3283250Y-3880500D01*
X3290750Y-4850500D02*
X3330750Y-4890500D01*
X3330750Y-4850500D02*
X3290750Y-4890500D01*
X3360750Y-3900500D02*
X3400750Y-3940500D01*
X3400750Y-3900500D02*
X3360750Y-3940500D01*
X3452750Y-6252000D02*
X3492750Y-6292000D01*
X3492750Y-6252000D02*
X3452750Y-6292000D01*
X3490750Y-7910500D02*
X3530750Y-7950500D01*
X3530750Y-7910500D02*
X3490750Y-7950500D01*
X3520750Y-4580500D02*
X3560750Y-4620500D01*
X3560750Y-4580500D02*
X3520750Y-4620500D01*
X3520750Y-6020500D02*
X3560750Y-6060500D01*
X3560750Y-6020500D02*
X3520750Y-6060500D01*
X3530750Y-4100500D02*
X3570750Y-4140500D01*
X3570750Y-4100500D02*
X3530750Y-4140500D01*
X3530750Y-6490500D02*
X3570750Y-6530500D01*
X3570750Y-6490500D02*
X3530750Y-6530500D01*
X3690750Y-8115500D02*
X3730750Y-8155500D01*
X3730750Y-8115500D02*
X3690750Y-8155500D01*
X4250750Y-5850500D02*
X4290750Y-5890500D01*
X4290750Y-5850500D02*
X4250750Y-5890500D01*
X4250750Y-7750500D02*
X4290750Y-7790500D01*
X4290750Y-7750500D02*
X4250750Y-7790500D01*
X4270750Y-3950500D02*
X4310750Y-3990500D01*
X4310750Y-3950500D02*
X4270750Y-3990500D01*
X5010750Y-3490500D02*
X5050750Y-3530500D01*
X5050750Y-3490500D02*
X5010750Y-3530500D01*
X5080750Y-3030500D02*
X5120750Y-3070500D01*
X5120750Y-3030500D02*
X5080750Y-3070500D01*
X5080750Y-4530500D02*
X5120750Y-4570500D01*
X5120750Y-4530500D02*
X5080750Y-4570500D01*
X5080750Y-4930500D02*
X5120750Y-4970500D01*
X5120750Y-4930500D02*
X5080750Y-4970500D01*
X5080750Y-6430500D02*
X5120750Y-6470500D01*
X5120750Y-6430500D02*
X5080750Y-6470500D01*
X5090750Y-2630500D02*
X5130750Y-2670500D01*
X5130750Y-2630500D02*
X5090750Y-2670500D01*
X5237708Y-6097458D02*
X5277708Y-6137458D01*
X5277708Y-6097458D02*
X5237708Y-6137458D01*
X6047717Y-7533533D02*
X6087717Y-7573533D01*
X6087717Y-7533533D02*
X6047717Y-7573533D01*
X6050750Y-5645500D02*
X6090750Y-5685500D01*
X6090750Y-5645500D02*
X6050750Y-5685500D01*
X6170750Y-3510500D02*
X6210750Y-3550500D01*
X6210750Y-3510500D02*
X6170750Y-3550500D01*
X6170750Y-7700500D02*
X6210750Y-7740500D01*
X6210750Y-7700500D02*
X6170750Y-7740500D01*
X6183251Y-7300500D02*
X6223251Y-7340500D01*
X6223251Y-7300500D02*
X6183251Y-7340500D01*
X6190751Y-3775499D02*
X6230751Y-3815499D01*
X6230751Y-3775499D02*
X6190751Y-3815499D01*
X6203251Y-5440500D02*
X6243251Y-5480500D01*
X6243251Y-5440500D02*
X6203251Y-5480500D01*
X6218750Y-3604695D02*
X6258750Y-3644695D01*
X6258750Y-3604695D02*
X6218750Y-3644695D01*
X6918250Y-6110500D02*
X6958250Y-6150500D01*
X6958250Y-6110500D02*
X6918250Y-6150500D01*
X6918250Y-6820500D02*
X6958250Y-6860500D01*
X6958250Y-6820500D02*
X6918250Y-6860500D01*
X6980750Y-2790500D02*
X7020750Y-2830500D01*
X7020750Y-2790500D02*
X6980750Y-2830500D01*
X6980750Y-4290500D02*
X7020750Y-4330500D01*
X7020750Y-4290500D02*
X6980750Y-4330500D01*
X6980750Y-4690500D02*
X7020750Y-4730500D01*
X7020750Y-4690500D02*
X6980750Y-4730500D01*
X6980750Y-6190500D02*
X7020750Y-6230500D01*
X7020750Y-6190500D02*
X6980750Y-6230500D01*
X6980750Y-6550500D02*
X7020750Y-6590500D01*
X7020750Y-6550500D02*
X6980750Y-6590500D01*
X7020750Y-5950500D02*
X7060750Y-5990500D01*
X7060750Y-5950500D02*
X7020750Y-5990500D01*
X7043250Y-3140500D02*
X7083250Y-3180500D01*
X7083250Y-3140500D02*
X7043250Y-3180500D01*
X7043250Y-6950500D02*
X7083250Y-6990500D01*
X7083250Y-6950500D02*
X7043250Y-6990500D01*
X7050750Y-6820500D02*
X7090750Y-6860500D01*
X7090750Y-6820500D02*
X7050750Y-6860500D01*
X7080750Y-3230500D02*
X7120750Y-3270500D01*
X7120750Y-3230500D02*
X7080750Y-3270500D01*
X7255750Y-7424000D02*
X7295750Y-7464000D01*
X7295750Y-7424000D02*
X7255750Y-7464000D01*
X7310750Y-3390500D02*
X7350750Y-3430500D01*
X7350750Y-3390500D02*
X7310750Y-3430500D01*
X7320750Y-5290500D02*
X7360750Y-5330500D01*
X7360750Y-5290500D02*
X7320750Y-5330500D01*
X7320750Y-7190500D02*
X7360750Y-7230500D01*
X7360750Y-7190500D02*
X7320750Y-7230500D01*
X7330750Y-3870500D02*
X7370750Y-3910500D01*
X7370750Y-3870500D02*
X7330750Y-3910500D01*
X7330750Y-7660500D02*
X7370750Y-7700500D01*
X7370750Y-7660500D02*
X7330750Y-7700500D01*
X7930750Y-8410500D02*
X7970750Y-8450500D01*
X7970750Y-8410500D02*
X7930750Y-8450500D01*
X8060750Y-3240500D02*
X8100750Y-3280500D01*
X8100750Y-3240500D02*
X8060750Y-3280500D01*
X8060750Y-5150500D02*
X8100750Y-5190500D01*
X8100750Y-5150500D02*
X8060750Y-5190500D01*
X8060750Y-7050500D02*
X8100750Y-7090500D01*
X8100750Y-7050500D02*
X8060750Y-7090500D01*
X8270750Y-9390500D02*
X8310750Y-9430500D01*
X8310750Y-9390500D02*
X8270750Y-9430500D01*
X8880750Y-3030500D02*
X8920750Y-3070500D01*
X8920750Y-3030500D02*
X8880750Y-3070500D01*
X8880750Y-4530500D02*
X8920750Y-4570500D01*
X8920750Y-4530500D02*
X8880750Y-4570500D01*
X8880750Y-4930500D02*
X8920750Y-4970500D01*
X8920750Y-4930500D02*
X8880750Y-4970500D01*
X8880750Y-6430500D02*
X8920750Y-6470500D01*
X8920750Y-6430500D02*
X8880750Y-6470500D01*
X8880750Y-6830500D02*
X8920750Y-6870500D01*
X8920750Y-6830500D02*
X8880750Y-6870500D01*
X8920750Y-6010500D02*
X8960750Y-6050500D01*
X8960750Y-6010500D02*
X8920750Y-6050500D01*
X9010750Y-9250500D02*
X9050750Y-9290500D01*
X9050750Y-9250500D02*
X9010750Y-9290500D01*
X9840750Y-5655500D02*
X9880750Y-5695500D01*
X9880750Y-5655500D02*
X9840750Y-5695500D01*
X9860750Y-7550500D02*
X9900750Y-7590500D01*
X9900750Y-7550500D02*
X9860750Y-7590500D01*
X9968250Y-3725500D02*
X10008250Y-3765500D01*
X10008250Y-3725500D02*
X9968250Y-3765500D01*
X9970750Y-7310500D02*
X10010750Y-7350500D01*
X10010750Y-7310500D02*
X9970750Y-7350500D01*
X9980750Y-8500500D02*
X10020750Y-8540500D01*
X10020750Y-8500500D02*
X9980750Y-8540500D01*
X10024370Y-3480343D02*
X10064370Y-3520343D01*
X10064370Y-3480343D02*
X10024370Y-3520343D01*
X10039750Y-3568000D02*
X10079750Y-3608000D01*
X10079750Y-3568000D02*
X10039750Y-3608000D01*
X10065750Y-5470500D02*
X10105750Y-5510500D01*
X10105750Y-5470500D02*
X10065750Y-5510500D01*
X10250750Y-9540500D02*
X10290750Y-9580500D01*
X10290750Y-9540500D02*
X10250750Y-9580500D01*
X10780750Y-3260500D02*
X10820750Y-3300500D01*
X10820750Y-3260500D02*
X10780750Y-3300500D01*
X10780750Y-4770500D02*
X10820750Y-4810500D01*
X10820750Y-4770500D02*
X10780750Y-4810500D01*
X10780750Y-5160500D02*
X10820750Y-5200500D01*
X10820750Y-5160500D02*
X10780750Y-5200500D01*
X10780750Y-6660500D02*
X10820750Y-6700500D01*
X10820750Y-6660500D02*
X10780750Y-6700500D01*
X10780750Y-7060500D02*
X10820750Y-7100500D01*
X10820750Y-7060500D02*
X10780750Y-7100500D01*
X10820750Y-6260500D02*
X10860750Y-6300500D01*
X10860750Y-6260500D02*
X10820750Y-6300500D01*
X10843250Y-7420500D02*
X10883250Y-7460500D01*
X10883250Y-7420500D02*
X10843250Y-7460500D01*
X10866251Y-3619372D02*
X10906251Y-3659372D01*
X10906251Y-3619372D02*
X10866251Y-3659372D01*
X10936252Y-3660500D02*
X10976252Y-3700500D01*
X10976252Y-3660500D02*
X10936252Y-3700500D01*
X11000750Y-9650500D02*
X11040750Y-9690500D01*
X11040750Y-9650500D02*
X11000750Y-9690500D01*
X11110750Y-5760500D02*
X11150750Y-5800500D01*
X11150750Y-5760500D02*
X11110750Y-5800500D01*
X11120750Y-3870500D02*
X11160750Y-3910500D01*
X11160750Y-3870500D02*
X11120750Y-3910500D01*
X11120750Y-7670500D02*
X11160750Y-7710500D01*
X11160750Y-7670500D02*
X11120750Y-7710500D01*
X11120750Y-8160500D02*
X11160750Y-8200500D01*
X11160750Y-8160500D02*
X11120750Y-8200500D01*
X11130750Y-4350500D02*
X11170750Y-4390500D01*
X11170750Y-4350500D02*
X11130750Y-4390500D01*
X11770750Y-5890500D02*
X11810750Y-5930500D01*
X11810750Y-5890500D02*
X11770750Y-5930500D01*
X11840750Y-5620500D02*
X11880750Y-5660500D01*
X11880750Y-5620500D02*
X11840750Y-5660500D01*
X11860750Y-3720500D02*
X11900750Y-3760500D01*
X11900750Y-3720500D02*
X11860750Y-3760500D01*
X11860750Y-7520500D02*
X11900750Y-7560500D01*
X11900750Y-7520500D02*
X11860750Y-7560500D01*
X11870750Y-5490500D02*
X11910750Y-5530500D01*
X11910750Y-5490500D02*
X11870750Y-5530500D01*
X11880750Y-8240500D02*
X11920750Y-8280500D01*
X11920750Y-8240500D02*
X11880750Y-8280500D01*
X12240750Y-9880500D02*
X12280750Y-9920500D01*
X12280750Y-9880500D02*
X12240750Y-9920500D01*
X12340750Y-5400500D02*
X12380750Y-5440500D01*
X12380750Y-5400500D02*
X12340750Y-5440500D01*
X12440750Y-6880500D02*
X12480750Y-6920500D01*
X12480750Y-6880500D02*
X12440750Y-6920500D01*
X12460750Y-3610500D02*
X12500750Y-3650500D01*
X12500750Y-3610500D02*
X12460750Y-3650500D01*
X12460750Y-7060500D02*
X12500750Y-7100500D01*
X12500750Y-7060500D02*
X12460750Y-7100500D01*
X12475751Y-4070500D02*
X12515751Y-4110500D01*
X12515751Y-4070500D02*
X12475751Y-4110500D01*
X12609750Y-7710500D02*
X12649750Y-7750500D01*
X12649750Y-7710500D02*
X12609750Y-7750500D01*
X12629374Y-8618235D02*
X12669374Y-8658235D01*
X12669374Y-8618235D02*
X12629374Y-8658235D01*
X13250750Y-10090500D02*
X13290750Y-10130500D01*
X13290750Y-10090500D02*
X13250750Y-10130500D01*
X13500069Y-9391177D02*
X13540069Y-9431177D01*
X13540069Y-9391177D02*
X13500069Y-9431177D01*
X13534750Y-7876000D02*
X13574750Y-7916000D01*
X13574750Y-7876000D02*
X13534750Y-7916000D01*
X16013750Y-9443500D02*
X16053750Y-9483500D01*
X16053750Y-9443500D02*
X16013750Y-9483500D01*
X16160750Y-7750500D02*
X16200750Y-7790500D01*
X16200750Y-7750500D02*
X16160750Y-7790500D01*
X16500750Y-10025500D02*
X16540750Y-10065500D01*
X16540750Y-10025500D02*
X16500750Y-10065500D01*
X16668750Y-8647500D02*
X16708750Y-8687500D01*
X16708750Y-8647500D02*
X16668750Y-8687500D01*
X16691056Y-8542806D02*
X16731056Y-8582806D01*
X16731056Y-8542806D02*
X16691056Y-8582806D01*
X17086376Y-3118902D02*
X17126376Y-3158902D01*
X17126376Y-3118902D02*
X17086376Y-3158902D01*
X17158750Y-6069500D02*
X17198750Y-6109500D01*
X17198750Y-6069500D02*
X17158750Y-6109500D01*
X17165749Y-4010500D02*
X17205749Y-4050500D01*
X17205749Y-4010500D02*
X17165749Y-4050500D01*
X17173450Y-3600500D02*
X17213450Y-3640500D01*
X17213450Y-3600500D02*
X17173450Y-3640500D01*
X17233750Y-5851500D02*
X17273750Y-5891500D01*
X17273750Y-5851500D02*
X17233750Y-5891500D01*
X17250750Y-5184500D02*
X17290750Y-5224500D01*
X17290750Y-5184500D02*
X17250750Y-5224500D01*
X17315750Y-4081500D02*
X17355750Y-4121500D01*
X17355750Y-4081500D02*
X17315750Y-4121500D01*
X17315750Y-4606500D02*
X17355750Y-4646500D01*
X17355750Y-4606500D02*
X17315750Y-4646500D01*
X17409750Y-6281500D02*
X17449750Y-6321500D01*
X17449750Y-6281500D02*
X17409750Y-6321500D01*
X17421750Y-7047500D02*
X17461750Y-7087500D01*
X17461750Y-7047500D02*
X17421750Y-7087500D01*
X17430750Y-3260500D02*
X17470750Y-3300500D01*
X17470750Y-3260500D02*
X17430750Y-3300500D01*
X17430750Y-4760500D02*
X17470750Y-4800500D01*
X17470750Y-4760500D02*
X17430750Y-4800500D01*
X17430750Y-6670500D02*
X17470750Y-6710500D01*
X17470750Y-6670500D02*
X17430750Y-6710500D01*
X17440750Y-5170500D02*
X17480750Y-5210500D01*
X17480750Y-5170500D02*
X17440750Y-5210500D01*
X17503250Y-5821501D02*
X17543250Y-5861501D01*
X17543250Y-5821501D02*
X17503250Y-5861501D01*
X17503250Y-6230000D02*
X17543250Y-6270000D01*
X17543250Y-6230000D02*
X17503250Y-6270000D01*
X17678750Y-7448500D02*
X17718750Y-7488500D01*
X17718750Y-7448500D02*
X17678750Y-7488500D01*
X17683750Y-8218500D02*
X17723750Y-8258500D01*
X17723750Y-8218500D02*
X17683750Y-8258500D01*
X17684249Y-8345500D02*
X17724249Y-8385500D01*
X17724249Y-8345500D02*
X17684249Y-8385500D01*
X17705344Y-4426939D02*
X17745344Y-4466939D01*
X17745344Y-4426939D02*
X17705344Y-4466939D01*
X17750750Y-7683500D02*
X17790750Y-7723500D01*
X17790750Y-7683500D02*
X17750750Y-7723500D01*
X17757750Y-3644500D02*
X17797750Y-3684500D01*
X17797750Y-3644500D02*
X17757750Y-3684500D01*
X17773750Y-5766500D02*
X17813750Y-5806500D01*
X17813750Y-5766500D02*
X17773750Y-5806500D01*
X17783751Y-3870500D02*
X17823751Y-3910500D01*
X17823751Y-3870500D02*
X17783751Y-3910500D01*
X18098750Y-8869500D02*
X18138750Y-8909500D01*
X18138750Y-8869500D02*
X18098750Y-8909500D01*
X18513750Y-5618500D02*
X18553750Y-5658500D01*
X18553750Y-5618500D02*
X18513750Y-5658500D01*
X18516750Y-7532500D02*
X18556750Y-7572500D01*
X18556750Y-7532500D02*
X18516750Y-7572500D01*
X18674750Y-9728500D02*
X18714750Y-9768500D01*
X18714750Y-9728500D02*
X18674750Y-9768500D01*
X19293750Y-6167500D02*
X19333750Y-6207500D01*
X19333750Y-6167500D02*
X19293750Y-6207500D01*
X19330750Y-3020500D02*
X19370750Y-3060500D01*
X19370750Y-3020500D02*
X19330750Y-3060500D01*
X19330750Y-4530500D02*
X19370750Y-4570500D01*
X19370750Y-4530500D02*
X19330750Y-4570500D01*
X19330750Y-4910500D02*
X19370750Y-4950500D01*
X19370750Y-4910500D02*
X19330750Y-4950500D01*
X19330750Y-6430500D02*
X19370750Y-6470500D01*
X19370750Y-6430500D02*
X19330750Y-6470500D01*
X19331750Y-6812500D02*
X19371750Y-6852500D01*
X19371750Y-6812500D02*
X19331750Y-6852500D01*
X19665750Y-7416500D02*
X19705750Y-7456500D01*
X19705750Y-7416500D02*
X19665750Y-7456500D01*
X19670750Y-5516500D02*
X19710750Y-5556500D01*
X19710750Y-5516500D02*
X19670750Y-5556500D01*
X20288750Y-8413500D02*
X20328750Y-8453500D01*
X20328750Y-8413500D02*
X20288750Y-8453500D01*
X20412750Y-7303500D02*
X20452750Y-7343500D01*
X20452750Y-7303500D02*
X20412750Y-7343500D01*
X20419750Y-5394500D02*
X20459750Y-5434500D01*
X20459750Y-5394500D02*
X20419750Y-5434500D01*
X20423750Y-3498500D02*
X20463750Y-3538500D01*
X20463750Y-3498500D02*
X20423750Y-3538500D01*
X21190750Y-5882000D02*
X21230750Y-5922000D01*
X21230750Y-5882000D02*
X21190750Y-5922000D01*
X21230750Y-2780500D02*
X21270750Y-2820500D01*
X21270750Y-2780500D02*
X21230750Y-2820500D01*
X21230750Y-4290500D02*
X21270750Y-4330500D01*
X21270750Y-4290500D02*
X21230750Y-4330500D01*
X21230750Y-4690500D02*
X21270750Y-4730500D01*
X21270750Y-4690500D02*
X21230750Y-4730500D01*
X21230750Y-6200500D02*
X21270750Y-6240500D01*
X21270750Y-6200500D02*
X21230750Y-6240500D01*
X21235750Y-6578500D02*
X21275750Y-6618500D01*
X21275750Y-6578500D02*
X21235750Y-6618500D01*
X21294750Y-5878000D02*
X21334750Y-5918000D01*
X21334750Y-5878000D02*
X21294750Y-5918000D01*
X21356750Y-9253500D02*
X21396750Y-9293500D01*
X21396750Y-9253500D02*
X21356750Y-9293500D01*
X21412750Y-7556500D02*
X21452750Y-7596500D01*
X21452750Y-7556500D02*
X21412750Y-7596500D01*
X21495249Y-3950886D02*
X21535249Y-3990886D01*
X21535249Y-3950886D02*
X21495249Y-3990886D01*
X21501750Y-7757500D02*
X21541750Y-7797500D01*
X21541750Y-7757500D02*
X21501750Y-7797500D01*
X21505750Y-6971500D02*
X21545750Y-7011500D01*
X21545750Y-6971500D02*
X21505750Y-7011500D01*
X21509750Y-3185500D02*
X21549750Y-3225500D01*
X21549750Y-3185500D02*
X21509750Y-3225500D01*
X21569750Y-5295500D02*
X21609750Y-5335500D01*
X21609750Y-5295500D02*
X21569750Y-5335500D01*
X21580750Y-7193500D02*
X21620750Y-7233500D01*
X21620750Y-7193500D02*
X21580750Y-7233500D01*
X21584750Y-3390500D02*
X21624750Y-3430500D01*
X21624750Y-3390500D02*
X21584750Y-3430500D01*
X22303217Y-5169033D02*
X22343217Y-5209033D01*
X22343217Y-5169033D02*
X22303217Y-5209033D01*
X22306717Y-7052533D02*
X22346717Y-7092533D01*
X22346717Y-7052533D02*
X22306717Y-7092533D01*
X23103445Y-5831305D02*
X23143445Y-5871305D01*
X23143445Y-5831305D02*
X23103445Y-5871305D01*
X23130750Y-3010500D02*
X23170750Y-3050500D01*
X23170750Y-3010500D02*
X23130750Y-3050500D01*
X23130750Y-4530500D02*
X23170750Y-4570500D01*
X23170750Y-4530500D02*
X23130750Y-4570500D01*
X23140750Y-4930500D02*
X23180750Y-4970500D01*
X23180750Y-4930500D02*
X23140750Y-4970500D01*
X23140750Y-6430500D02*
X23180750Y-6470500D01*
X23180750Y-6430500D02*
X23140750Y-6470500D01*
X23470750Y-7415500D02*
X23510750Y-7455500D01*
X23510750Y-7415500D02*
X23470750Y-7455500D01*
X23477750Y-5515500D02*
X23517750Y-5555500D01*
X23517750Y-5515500D02*
X23477750Y-5555500D01*
X24207750Y-5409500D02*
X24247750Y-5449500D01*
X24247750Y-5409500D02*
X24207750Y-5449500D01*
X24213750Y-3494500D02*
X24253750Y-3534500D01*
X24253750Y-3494500D02*
X24213750Y-3534500D01*
X24979750Y-6390001D02*
X25019750Y-6430001D01*
X25019750Y-6390001D02*
X24979750Y-6430001D01*
X25030750Y-3490500D02*
X25070750Y-3530500D01*
X25070750Y-3490500D02*
X25030750Y-3530500D01*
X25030750Y-5010500D02*
X25070750Y-5050500D01*
X25070750Y-5010500D02*
X25030750Y-5050500D01*
X25030750Y-5400500D02*
X25070750Y-5440500D01*
X25070750Y-5400500D02*
X25030750Y-5440500D01*
X25030750Y-6900500D02*
X25070750Y-6940500D01*
X25070750Y-6900500D02*
X25030750Y-6940500D01*
X25297249Y-6553402D02*
X25337249Y-6593402D01*
X25337249Y-6553402D02*
X25297249Y-6593402D01*
X25311499Y-4675665D02*
X25351499Y-4715665D01*
X25351499Y-4675665D02*
X25311499Y-4715665D01*
X25337750Y-5780500D02*
X25377750Y-5820500D01*
X25377750Y-5780500D02*
X25337750Y-5820500D01*
X25355750Y-3874500D02*
X25395750Y-3914500D01*
X25395750Y-3874500D02*
X25355750Y-3914500D01*
X25380750Y-6022500D02*
X25420750Y-6062500D01*
X25420750Y-6022500D02*
X25380750Y-6062500D01*
X25396750Y-4115500D02*
X25436750Y-4155500D01*
X25436750Y-4115500D02*
X25396750Y-4155500D01*
X26110750Y-5854500D02*
X26150750Y-5894500D01*
X26150750Y-5854500D02*
X26110750Y-5894500D01*
X26112750Y-7755500D02*
X26152750Y-7795500D01*
X26152750Y-7755500D02*
X26112750Y-7795500D01*
X26906166Y-6218296D02*
X26946166Y-6258296D01*
X26946166Y-6218296D02*
X26906166Y-6258296D01*
X26908250Y-4701500D02*
X26948250Y-4741500D01*
X26948250Y-4701500D02*
X26908250Y-4741500D01*
X26930750Y-6910500D02*
X26970750Y-6950500D01*
X26970750Y-6910500D02*
X26930750Y-6950500D01*
X26934750Y-6635000D02*
X26974750Y-6675000D01*
X26974750Y-6635000D02*
X26934750Y-6675000D01*
X26939251Y-5000500D02*
X26979251Y-5040500D01*
X26979251Y-5000500D02*
X26939251Y-5040500D01*
X26940750Y-3500500D02*
X26980750Y-3540500D01*
X26980750Y-3500500D02*
X26940750Y-3540500D01*
X26941750Y-5435500D02*
X26981750Y-5475500D01*
X26981750Y-5435500D02*
X26941750Y-5475500D01*
X27277750Y-5997500D02*
X27317750Y-6037500D01*
X27317750Y-5997500D02*
X27277750Y-6037500D01*
X27291750Y-7905500D02*
X27331750Y-7945500D01*
X27331750Y-7905500D02*
X27291750Y-7945500D01*
X28011750Y-3976500D02*
X28051750Y-4016500D01*
X28051750Y-3976500D02*
X28011750Y-4016500D01*
X28016750Y-5869500D02*
X28056750Y-5909500D01*
X28056750Y-5869500D02*
X28016750Y-5909500D01*
X12761030Y-3194200D02*
G75*
G03*
X12761030Y-3194200I-40640J0D01*
G01*
X12761030Y-3448200D02*
G75*
G03*
X12761030Y-3448200I-40640J0D01*
G01*
X12761030Y-3702200D02*
G75*
G03*
X12761030Y-3702200I-40640J0D01*
G01*
X12761030Y-3956200D02*
G75*
G03*
X12761030Y-3956200I-40640J0D01*
G01*
X12761030Y-4210200D02*
G75*
G03*
X12761030Y-4210200I-40640J0D01*
G01*
X12761030Y-4464200D02*
G75*
G03*
X12761030Y-4464200I-40640J0D01*
G01*
X12761030Y-4718200D02*
G75*
G03*
X12761030Y-4718200I-40640J0D01*
G01*
X12761030Y-4972200D02*
G75*
G03*
X12761030Y-4972200I-40640J0D01*
G01*
X12761030Y-5226200D02*
G75*
G03*
X12761030Y-5226200I-40640J0D01*
G01*
X12761030Y-5480200D02*
G75*
G03*
X12761030Y-5480200I-40640J0D01*
G01*
X12761030Y-5734200D02*
G75*
G03*
X12761030Y-5734200I-40640J0D01*
G01*
X12761030Y-5988200D02*
G75*
G03*
X12761030Y-5988200I-40640J0D01*
G01*
X13135490Y-6702800D02*
G75*
G03*
X13135490Y-6702800I-40640J0D01*
G01*
X13389490Y-6702800D02*
G75*
G03*
X13389490Y-6702800I-40640J0D01*
G01*
X13643490Y-6702800D02*
G75*
G03*
X13643490Y-6702800I-40640J0D01*
G01*
X13897490Y-6702800D02*
G75*
G03*
X13897490Y-6702800I-40640J0D01*
G01*
X14283030Y-3194200D02*
G75*
G03*
X14283030Y-3194200I-40640J0D01*
G01*
X14283030Y-3448200D02*
G75*
G03*
X14283030Y-3448200I-40640J0D01*
G01*
X14283030Y-3702200D02*
G75*
G03*
X14283030Y-3702200I-40640J0D01*
G01*
X14283030Y-3956200D02*
G75*
G03*
X14283030Y-3956200I-40640J0D01*
G01*
X14283030Y-4210200D02*
G75*
G03*
X14283030Y-4210200I-40640J0D01*
G01*
X14283030Y-4464200D02*
G75*
G03*
X14283030Y-4464200I-40640J0D01*
G01*
X14283030Y-4718200D02*
G75*
G03*
X14283030Y-4718200I-40640J0D01*
G01*
X14283030Y-4972200D02*
G75*
G03*
X14283030Y-4972200I-40640J0D01*
G01*
X14283030Y-5226200D02*
G75*
G03*
X14283030Y-5226200I-40640J0D01*
G01*
X14283030Y-5480200D02*
G75*
G03*
X14283030Y-5480200I-40640J0D01*
G01*
X14283030Y-5734200D02*
G75*
G03*
X14283030Y-5734200I-40640J0D01*
G01*
X14283030Y-5988200D02*
G75*
G03*
X14283030Y-5988200I-40640J0D01*
G01*
X15478530Y-3191200D02*
G75*
G03*
X15478530Y-3191200I-40640J0D01*
G01*
X15478530Y-3445200D02*
G75*
G03*
X15478530Y-3445200I-40640J0D01*
G01*
X15478530Y-3699200D02*
G75*
G03*
X15478530Y-3699200I-40640J0D01*
G01*
X15478530Y-3953200D02*
G75*
G03*
X15478530Y-3953200I-40640J0D01*
G01*
X15478530Y-4207200D02*
G75*
G03*
X15478530Y-4207200I-40640J0D01*
G01*
X15478530Y-4461200D02*
G75*
G03*
X15478530Y-4461200I-40640J0D01*
G01*
X15478530Y-4715200D02*
G75*
G03*
X15478530Y-4715200I-40640J0D01*
G01*
X15478530Y-4969200D02*
G75*
G03*
X15478530Y-4969200I-40640J0D01*
G01*
X15478530Y-5223200D02*
G75*
G03*
X15478530Y-5223200I-40640J0D01*
G01*
X15478530Y-5477200D02*
G75*
G03*
X15478530Y-5477200I-40640J0D01*
G01*
X15478530Y-5731200D02*
G75*
G03*
X15478530Y-5731200I-40640J0D01*
G01*
X15478530Y-5985200D02*
G75*
G03*
X15478530Y-5985200I-40640J0D01*
G01*
X15858390Y-6702000D02*
G75*
G03*
X15858390Y-6702000I-40640J0D01*
G01*
X16112390Y-6702000D02*
G75*
G03*
X16112390Y-6702000I-40640J0D01*
G01*
X16366390Y-6702000D02*
G75*
G03*
X16366390Y-6702000I-40640J0D01*
G01*
X16620390Y-6702000D02*
G75*
G03*
X16620390Y-6702000I-40640J0D01*
G01*
X17000530Y-3191200D02*
G75*
G03*
X17000530Y-3191200I-40640J0D01*
G01*
X17000530Y-3445200D02*
G75*
G03*
X17000530Y-3445200I-40640J0D01*
G01*
X17000530Y-3699200D02*
G75*
G03*
X17000530Y-3699200I-40640J0D01*
G01*
X17000530Y-3953200D02*
G75*
G03*
X17000530Y-3953200I-40640J0D01*
G01*
X17000530Y-4207200D02*
G75*
G03*
X17000530Y-4207200I-40640J0D01*
G01*
X17000530Y-4461200D02*
G75*
G03*
X17000530Y-4461200I-40640J0D01*
G01*
X17000530Y-4715200D02*
G75*
G03*
X17000530Y-4715200I-40640J0D01*
G01*
X17000530Y-4969200D02*
G75*
G03*
X17000530Y-4969200I-40640J0D01*
G01*
X17000530Y-5223200D02*
G75*
G03*
X17000530Y-5223200I-40640J0D01*
G01*
X17000530Y-5477200D02*
G75*
G03*
X17000530Y-5477200I-40640J0D01*
G01*
X17000530Y-5731200D02*
G75*
G03*
X17000530Y-5731200I-40640J0D01*
G01*
X17000530Y-5985200D02*
G75*
G03*
X17000530Y-5985200I-40640J0D01*
G01*
X13233450Y-7169200D02*
X13233450Y-7269200D01*
X13183450Y-7219200D02*
X13283450Y-7219200D01*
X13258450Y-7179200D02*
X13208450Y-7179200D01*
X13258450Y-7259200D02*
X13208450Y-7259200D01*
X13208450Y-7179200D02*
G75*
G03*
X13208450Y-7259200I0J-40000D01*
G01*
X13258450Y-7259200D02*
G75*
G03*
X13258450Y-7179200I0J40000D01*
G01*
X13383450Y-7589200D02*
X13383450Y-7689200D01*
X13333450Y-7639200D02*
X13433450Y-7639200D01*
X13408450Y-7599200D02*
X13358450Y-7599200D01*
X13408450Y-7679200D02*
X13358450Y-7679200D01*
X13358450Y-7599200D02*
G75*
G03*
X13358450Y-7679200I0J-40000D01*
G01*
X13408450Y-7679200D02*
G75*
G03*
X13408450Y-7599200I0J40000D01*
G01*
X13783450Y-7589200D02*
X13783450Y-7689200D01*
X13733450Y-7639200D02*
X13833450Y-7639200D01*
X13808450Y-7599200D02*
X13758450Y-7599200D01*
X13808450Y-7679200D02*
X13758450Y-7679200D01*
X13758450Y-7599200D02*
G75*
G03*
X13758450Y-7679200I0J-40000D01*
G01*
X13808450Y-7679200D02*
G75*
G03*
X13808450Y-7599200I0J40000D01*
G01*
X14083450Y-7589200D02*
X14083450Y-7689200D01*
X14033450Y-7639200D02*
X14133450Y-7639200D01*
X14108450Y-7599200D02*
X14058450Y-7599200D01*
X14108450Y-7679200D02*
X14058450Y-7679200D01*
X14058450Y-7599200D02*
G75*
G03*
X14058450Y-7679200I0J-40000D01*
G01*
X14108450Y-7679200D02*
G75*
G03*
X14108450Y-7599200I0J40000D01*
G01*
X15583750Y-7167000D02*
X15583750Y-7267000D01*
X15533750Y-7217000D02*
X15633750Y-7217000D01*
X15558750Y-7257000D02*
X15608750Y-7257000D01*
X15558750Y-7177000D02*
X15608750Y-7177000D01*
X15608750Y-7257000D02*
G75*
G03*
X15608750Y-7177000I0J40000D01*
G01*
X15558750Y-7177000D02*
G75*
G03*
X15558750Y-7257000I0J-40000D01*
G01*
X15883750Y-7167000D02*
X15883750Y-7267000D01*
X15833750Y-7217000D02*
X15933750Y-7217000D01*
X15858750Y-7257000D02*
X15908750Y-7257000D01*
X15858750Y-7177000D02*
X15908750Y-7177000D01*
X15908750Y-7257000D02*
G75*
G03*
X15908750Y-7177000I0J40000D01*
G01*
X15858750Y-7177000D02*
G75*
G03*
X15858750Y-7257000I0J-40000D01*
G01*
X16283750Y-7167000D02*
X16283750Y-7267000D01*
X16233750Y-7217000D02*
X16333750Y-7217000D01*
X16258750Y-7257000D02*
X16308750Y-7257000D01*
X16258750Y-7177000D02*
X16308750Y-7177000D01*
X16308750Y-7257000D02*
G75*
G03*
X16308750Y-7177000I0J40000D01*
G01*
X16258750Y-7177000D02*
G75*
G03*
X16258750Y-7257000I0J-40000D01*
G01*
X16433750Y-7587000D02*
X16433750Y-7687000D01*
X16383750Y-7637000D02*
X16483750Y-7637000D01*
X16408750Y-7677000D02*
X16458750Y-7677000D01*
X16408750Y-7597000D02*
X16458750Y-7597000D01*
X16458750Y-7677000D02*
G75*
G03*
X16458750Y-7597000I0J40000D01*
G01*
X16408750Y-7597000D02*
G75*
G03*
X16408750Y-7677000I0J-40000D01*
G01*
X14288412Y-6374062D02*
X14288412Y-6282138D01*
X14196488Y-6282138D01*
X14196488Y-6374062D01*
X14288412Y-6374062D01*
X14288412Y-7024062D02*
X14288412Y-6932138D01*
X14196488Y-6932138D01*
X14196488Y-7024062D01*
X14288412Y-7024062D01*
X15476412Y-6373162D02*
X15476412Y-6281238D01*
X15384488Y-6281238D01*
X15384488Y-6373162D01*
X15476412Y-6373162D01*
X15476412Y-7023162D02*
X15476412Y-6931238D01*
X15384488Y-6931238D01*
X15384488Y-7023162D01*
X15476412Y-7023162D01*
D12*
X1345178Y-12239214D02*
X1345178Y-11939214D01*
X1416607Y-11939214D01*
X1459464Y-11953500D01*
X1488036Y-11982071D01*
X1502321Y-12010643D01*
X1516607Y-12067786D01*
X1516607Y-12110643D01*
X1502321Y-12167786D01*
X1488036Y-12196357D01*
X1459464Y-12224929D01*
X1416607Y-12239214D01*
X1345178Y-12239214D01*
X1645178Y-12239214D02*
X1645178Y-12039214D01*
X1645178Y-12096357D02*
X1659464Y-12067786D01*
X1673750Y-12053500D01*
X1702321Y-12039214D01*
X1730893Y-12039214D01*
X1830893Y-12239214D02*
X1830893Y-12039214D01*
X1830893Y-11939214D02*
X1816607Y-11953500D01*
X1830893Y-11967786D01*
X1845178Y-11953500D01*
X1830893Y-11939214D01*
X1830893Y-11967786D01*
X2016607Y-12239214D02*
X1988036Y-12224929D01*
X1973750Y-12196357D01*
X1973750Y-11939214D01*
X2173750Y-12239214D02*
X2145178Y-12224929D01*
X2130893Y-12196357D01*
X2130893Y-11939214D01*
X2516607Y-12239214D02*
X2516607Y-11939214D01*
X2616607Y-12153500D01*
X2716607Y-11939214D01*
X2716607Y-12239214D01*
X2988036Y-12239214D02*
X2988036Y-12082071D01*
X2973750Y-12053500D01*
X2945178Y-12039214D01*
X2888036Y-12039214D01*
X2859464Y-12053500D01*
X2988036Y-12224929D02*
X2959464Y-12239214D01*
X2888036Y-12239214D01*
X2859464Y-12224929D01*
X2845178Y-12196357D01*
X2845178Y-12167786D01*
X2859464Y-12139214D01*
X2888036Y-12124929D01*
X2959464Y-12124929D01*
X2988036Y-12110643D01*
X3130893Y-12039214D02*
X3130893Y-12339214D01*
X3130893Y-12053500D02*
X3159464Y-12039214D01*
X3216607Y-12039214D01*
X3245178Y-12053500D01*
X3259464Y-12067786D01*
X3273750Y-12096357D01*
X3273750Y-12182071D01*
X3259464Y-12210643D01*
X3245178Y-12224929D01*
X3216607Y-12239214D01*
X3159464Y-12239214D01*
X3130893Y-12224929D01*
X3402321Y-12210643D02*
X3416607Y-12224929D01*
X3402321Y-12239214D01*
X3388036Y-12224929D01*
X3402321Y-12210643D01*
X3402321Y-12239214D01*
X3402321Y-12053500D02*
X3416607Y-12067786D01*
X3402321Y-12082071D01*
X3388036Y-12067786D01*
X3402321Y-12053500D01*
X3402321Y-12082071D01*
X1018750Y-12713500D02*
X1058750Y-12753500D01*
X1058750Y-12713500D02*
X1018750Y-12753500D01*
X1402321Y-12569214D02*
X1430893Y-12569214D01*
X1459464Y-12583500D01*
X1473750Y-12597786D01*
X1488036Y-12626357D01*
X1502321Y-12683500D01*
X1502321Y-12754929D01*
X1488036Y-12812071D01*
X1473750Y-12840643D01*
X1459464Y-12854929D01*
X1430893Y-12869214D01*
X1402321Y-12869214D01*
X1373750Y-12854929D01*
X1359464Y-12840643D01*
X1345178Y-12812071D01*
X1330893Y-12754929D01*
X1330893Y-12683500D01*
X1345178Y-12626357D01*
X1359464Y-12597786D01*
X1373750Y-12583500D01*
X1402321Y-12569214D01*
X1630893Y-12840643D02*
X1645178Y-12854929D01*
X1630893Y-12869214D01*
X1616607Y-12854929D01*
X1630893Y-12840643D01*
X1630893Y-12869214D01*
X1902321Y-12669214D02*
X1902321Y-12869214D01*
X1830893Y-12554929D02*
X1759464Y-12769214D01*
X1945178Y-12769214D01*
X2116607Y-12569214D02*
X2145178Y-12569214D01*
X2173750Y-12583500D01*
X2188036Y-12597786D01*
X2202321Y-12626357D01*
X2216607Y-12683500D01*
X2216607Y-12754929D01*
X2202321Y-12812071D01*
X2188036Y-12840643D01*
X2173750Y-12854929D01*
X2145178Y-12869214D01*
X2116607Y-12869214D01*
X2088036Y-12854929D01*
X2073750Y-12840643D01*
X2059464Y-12812071D01*
X2045178Y-12754929D01*
X2045178Y-12683500D01*
X2059464Y-12626357D01*
X2073750Y-12597786D01*
X2088036Y-12583500D01*
X2116607Y-12569214D01*
X2402321Y-12569214D02*
X2430893Y-12569214D01*
X2459464Y-12583500D01*
X2473750Y-12597786D01*
X2488036Y-12626357D01*
X2502321Y-12683500D01*
X2502321Y-12754929D01*
X2488036Y-12812071D01*
X2473750Y-12840643D01*
X2459464Y-12854929D01*
X2430893Y-12869214D01*
X2402321Y-12869214D01*
X2373750Y-12854929D01*
X2359464Y-12840643D01*
X2345178Y-12812071D01*
X2330893Y-12754929D01*
X2330893Y-12683500D01*
X2345178Y-12626357D01*
X2359464Y-12597786D01*
X2373750Y-12583500D01*
X2402321Y-12569214D01*
X2630893Y-12869214D02*
X2630893Y-12669214D01*
X2630893Y-12697786D02*
X2645178Y-12683500D01*
X2673750Y-12669214D01*
X2716607Y-12669214D01*
X2745178Y-12683500D01*
X2759464Y-12712071D01*
X2759464Y-12869214D01*
X2759464Y-12712071D02*
X2773750Y-12683500D01*
X2802321Y-12669214D01*
X2845178Y-12669214D01*
X2873750Y-12683500D01*
X2888036Y-12712071D01*
X2888036Y-12869214D01*
X3030893Y-12869214D02*
X3030893Y-12669214D01*
X3030893Y-12697786D02*
X3045178Y-12683500D01*
X3073750Y-12669214D01*
X3116607Y-12669214D01*
X3145178Y-12683500D01*
X3159464Y-12712071D01*
X3159464Y-12869214D01*
X3159464Y-12712071D02*
X3173750Y-12683500D01*
X3202321Y-12669214D01*
X3245178Y-12669214D01*
X3273750Y-12683500D01*
X3288036Y-12712071D01*
X3288036Y-12869214D01*
X3873750Y-12554929D02*
X3616607Y-12940643D01*
X4259464Y-12569214D02*
X4288036Y-12569214D01*
X4316607Y-12583500D01*
X4330893Y-12597786D01*
X4345178Y-12626357D01*
X4359464Y-12683500D01*
X4359464Y-12754929D01*
X4345178Y-12812071D01*
X4330893Y-12840643D01*
X4316607Y-12854929D01*
X4288036Y-12869214D01*
X4259464Y-12869214D01*
X4230893Y-12854929D01*
X4216607Y-12840643D01*
X4202321Y-12812071D01*
X4188036Y-12754929D01*
X4188036Y-12683500D01*
X4202321Y-12626357D01*
X4216607Y-12597786D01*
X4230893Y-12583500D01*
X4259464Y-12569214D01*
X4488036Y-12840643D02*
X4502321Y-12854929D01*
X4488036Y-12869214D01*
X4473750Y-12854929D01*
X4488036Y-12840643D01*
X4488036Y-12869214D01*
X4688036Y-12569214D02*
X4716607Y-12569214D01*
X4745178Y-12583500D01*
X4759464Y-12597786D01*
X4773750Y-12626357D01*
X4788036Y-12683500D01*
X4788036Y-12754929D01*
X4773750Y-12812071D01*
X4759464Y-12840643D01*
X4745178Y-12854929D01*
X4716607Y-12869214D01*
X4688036Y-12869214D01*
X4659464Y-12854929D01*
X4645178Y-12840643D01*
X4630893Y-12812071D01*
X4616607Y-12754929D01*
X4616607Y-12683500D01*
X4630893Y-12626357D01*
X4645178Y-12597786D01*
X4659464Y-12583500D01*
X4688036Y-12569214D01*
X5073750Y-12869214D02*
X4902321Y-12869214D01*
X4988036Y-12869214D02*
X4988036Y-12569214D01*
X4959464Y-12612071D01*
X4930893Y-12640643D01*
X4902321Y-12654929D01*
X5345178Y-12569214D02*
X5202321Y-12569214D01*
X5188036Y-12712071D01*
X5202321Y-12697786D01*
X5230893Y-12683500D01*
X5302321Y-12683500D01*
X5330893Y-12697786D01*
X5345178Y-12712071D01*
X5359464Y-12740643D01*
X5359464Y-12812071D01*
X5345178Y-12840643D01*
X5330893Y-12854929D01*
X5302321Y-12869214D01*
X5230893Y-12869214D01*
X5202321Y-12854929D01*
X5188036Y-12840643D01*
X5459464Y-12569214D02*
X5659464Y-12569214D01*
X5530893Y-12869214D01*
X5759464Y-12569214D02*
X5759464Y-12626357D01*
X5873750Y-12569214D02*
X5873750Y-12626357D01*
X6316607Y-12983500D02*
X6302321Y-12969214D01*
X6273750Y-12926357D01*
X6259464Y-12897786D01*
X6245178Y-12854929D01*
X6230893Y-12783500D01*
X6230893Y-12726357D01*
X6245178Y-12654929D01*
X6259464Y-12612071D01*
X6273750Y-12583500D01*
X6302321Y-12540643D01*
X6316607Y-12526357D01*
X6416607Y-12597786D02*
X6430893Y-12583500D01*
X6459464Y-12569214D01*
X6530893Y-12569214D01*
X6559464Y-12583500D01*
X6573750Y-12597786D01*
X6588036Y-12626357D01*
X6588036Y-12654929D01*
X6573750Y-12697786D01*
X6402321Y-12869214D01*
X6588036Y-12869214D01*
X6873750Y-12869214D02*
X6702321Y-12869214D01*
X6788036Y-12869214D02*
X6788036Y-12569214D01*
X6759464Y-12612071D01*
X6730893Y-12640643D01*
X6702321Y-12654929D01*
X6988036Y-12597786D02*
X7002321Y-12583500D01*
X7030893Y-12569214D01*
X7102321Y-12569214D01*
X7130893Y-12583500D01*
X7145178Y-12597786D01*
X7159464Y-12626357D01*
X7159464Y-12654929D01*
X7145178Y-12697786D01*
X6973750Y-12869214D01*
X7159464Y-12869214D01*
X7516607Y-12869214D02*
X7516607Y-12569214D01*
X7645178Y-12869214D02*
X7645178Y-12712071D01*
X7630893Y-12683500D01*
X7602321Y-12669214D01*
X7559464Y-12669214D01*
X7530893Y-12683500D01*
X7516607Y-12697786D01*
X7830893Y-12869214D02*
X7802321Y-12854929D01*
X7788036Y-12840643D01*
X7773750Y-12812071D01*
X7773750Y-12726357D01*
X7788036Y-12697786D01*
X7802321Y-12683500D01*
X7830893Y-12669214D01*
X7873750Y-12669214D01*
X7902321Y-12683500D01*
X7916607Y-12697786D01*
X7930893Y-12726357D01*
X7930893Y-12812071D01*
X7916607Y-12840643D01*
X7902321Y-12854929D01*
X7873750Y-12869214D01*
X7830893Y-12869214D01*
X8102321Y-12869214D02*
X8073750Y-12854929D01*
X8059464Y-12826357D01*
X8059464Y-12569214D01*
X8330893Y-12854929D02*
X8302321Y-12869214D01*
X8245178Y-12869214D01*
X8216607Y-12854929D01*
X8202321Y-12826357D01*
X8202321Y-12712071D01*
X8216607Y-12683500D01*
X8245178Y-12669214D01*
X8302321Y-12669214D01*
X8330893Y-12683500D01*
X8345178Y-12712071D01*
X8345178Y-12740643D01*
X8202321Y-12769214D01*
X8459464Y-12854929D02*
X8488036Y-12869214D01*
X8545178Y-12869214D01*
X8573750Y-12854929D01*
X8588036Y-12826357D01*
X8588036Y-12812071D01*
X8573750Y-12783500D01*
X8545178Y-12769214D01*
X8502321Y-12769214D01*
X8473750Y-12754929D01*
X8459464Y-12726357D01*
X8459464Y-12712071D01*
X8473750Y-12683500D01*
X8502321Y-12669214D01*
X8545178Y-12669214D01*
X8573750Y-12683500D01*
X8688036Y-12983500D02*
X8702321Y-12969214D01*
X8730893Y-12926357D01*
X8745178Y-12897786D01*
X8759464Y-12854929D01*
X8773750Y-12783500D01*
X8773750Y-12726357D01*
X8759464Y-12654929D01*
X8745178Y-12612071D01*
X8730893Y-12583500D01*
X8702321Y-12540643D01*
X8688036Y-12526357D01*
X1058750Y-13129500D02*
G75*
G03*
X1058750Y-13129500I-40640J0D01*
G01*
X1402321Y-12965214D02*
X1430893Y-12965214D01*
X1459464Y-12979500D01*
X1473750Y-12993786D01*
X1488036Y-13022357D01*
X1502321Y-13079500D01*
X1502321Y-13150929D01*
X1488036Y-13208071D01*
X1473750Y-13236643D01*
X1459464Y-13250929D01*
X1430893Y-13265214D01*
X1402321Y-13265214D01*
X1373750Y-13250929D01*
X1359464Y-13236643D01*
X1345178Y-13208071D01*
X1330893Y-13150929D01*
X1330893Y-13079500D01*
X1345178Y-13022357D01*
X1359464Y-12993786D01*
X1373750Y-12979500D01*
X1402321Y-12965214D01*
X1630893Y-13236643D02*
X1645178Y-13250929D01*
X1630893Y-13265214D01*
X1616607Y-13250929D01*
X1630893Y-13236643D01*
X1630893Y-13265214D01*
X1816607Y-13093786D02*
X1788036Y-13079500D01*
X1773750Y-13065214D01*
X1759464Y-13036643D01*
X1759464Y-13022357D01*
X1773750Y-12993786D01*
X1788036Y-12979500D01*
X1816607Y-12965214D01*
X1873750Y-12965214D01*
X1902321Y-12979500D01*
X1916607Y-12993786D01*
X1930893Y-13022357D01*
X1930893Y-13036643D01*
X1916607Y-13065214D01*
X1902321Y-13079500D01*
X1873750Y-13093786D01*
X1816607Y-13093786D01*
X1788036Y-13108071D01*
X1773750Y-13122357D01*
X1759464Y-13150929D01*
X1759464Y-13208071D01*
X1773750Y-13236643D01*
X1788036Y-13250929D01*
X1816607Y-13265214D01*
X1873750Y-13265214D01*
X1902321Y-13250929D01*
X1916607Y-13236643D01*
X1930893Y-13208071D01*
X1930893Y-13150929D01*
X1916607Y-13122357D01*
X1902321Y-13108071D01*
X1873750Y-13093786D01*
X2216607Y-13265214D02*
X2045178Y-13265214D01*
X2130893Y-13265214D02*
X2130893Y-12965214D01*
X2102321Y-13008071D01*
X2073750Y-13036643D01*
X2045178Y-13050929D01*
X2316607Y-12965214D02*
X2502321Y-12965214D01*
X2402321Y-13079500D01*
X2445178Y-13079500D01*
X2473750Y-13093786D01*
X2488036Y-13108071D01*
X2502321Y-13136643D01*
X2502321Y-13208071D01*
X2488036Y-13236643D01*
X2473750Y-13250929D01*
X2445178Y-13265214D01*
X2359464Y-13265214D01*
X2330893Y-13250929D01*
X2316607Y-13236643D01*
X2630893Y-13265214D02*
X2630893Y-13065214D01*
X2630893Y-13093786D02*
X2645178Y-13079500D01*
X2673750Y-13065214D01*
X2716607Y-13065214D01*
X2745178Y-13079500D01*
X2759464Y-13108071D01*
X2759464Y-13265214D01*
X2759464Y-13108071D02*
X2773750Y-13079500D01*
X2802321Y-13065214D01*
X2845178Y-13065214D01*
X2873750Y-13079500D01*
X2888036Y-13108071D01*
X2888036Y-13265214D01*
X3030893Y-13265214D02*
X3030893Y-13065214D01*
X3030893Y-13093786D02*
X3045178Y-13079500D01*
X3073750Y-13065214D01*
X3116607Y-13065214D01*
X3145178Y-13079500D01*
X3159464Y-13108071D01*
X3159464Y-13265214D01*
X3159464Y-13108071D02*
X3173750Y-13079500D01*
X3202321Y-13065214D01*
X3245178Y-13065214D01*
X3273750Y-13079500D01*
X3288036Y-13108071D01*
X3288036Y-13265214D01*
X3873750Y-12950929D02*
X3616607Y-13336643D01*
X4259464Y-12965214D02*
X4288036Y-12965214D01*
X4316607Y-12979500D01*
X4330893Y-12993786D01*
X4345178Y-13022357D01*
X4359464Y-13079500D01*
X4359464Y-13150929D01*
X4345178Y-13208071D01*
X4330893Y-13236643D01*
X4316607Y-13250929D01*
X4288036Y-13265214D01*
X4259464Y-13265214D01*
X4230893Y-13250929D01*
X4216607Y-13236643D01*
X4202321Y-13208071D01*
X4188036Y-13150929D01*
X4188036Y-13079500D01*
X4202321Y-13022357D01*
X4216607Y-12993786D01*
X4230893Y-12979500D01*
X4259464Y-12965214D01*
X4488036Y-13236643D02*
X4502321Y-13250929D01*
X4488036Y-13265214D01*
X4473750Y-13250929D01*
X4488036Y-13236643D01*
X4488036Y-13265214D01*
X4688036Y-12965214D02*
X4716607Y-12965214D01*
X4745178Y-12979500D01*
X4759464Y-12993786D01*
X4773750Y-13022357D01*
X4788036Y-13079500D01*
X4788036Y-13150929D01*
X4773750Y-13208071D01*
X4759464Y-13236643D01*
X4745178Y-13250929D01*
X4716607Y-13265214D01*
X4688036Y-13265214D01*
X4659464Y-13250929D01*
X4645178Y-13236643D01*
X4630893Y-13208071D01*
X4616607Y-13150929D01*
X4616607Y-13079500D01*
X4630893Y-13022357D01*
X4645178Y-12993786D01*
X4659464Y-12979500D01*
X4688036Y-12965214D01*
X4888036Y-12965214D02*
X5073750Y-12965214D01*
X4973750Y-13079500D01*
X5016607Y-13079500D01*
X5045178Y-13093786D01*
X5059464Y-13108071D01*
X5073750Y-13136643D01*
X5073750Y-13208071D01*
X5059464Y-13236643D01*
X5045178Y-13250929D01*
X5016607Y-13265214D01*
X4930893Y-13265214D01*
X4902321Y-13250929D01*
X4888036Y-13236643D01*
X5188036Y-12993786D02*
X5202321Y-12979500D01*
X5230893Y-12965214D01*
X5302321Y-12965214D01*
X5330893Y-12979500D01*
X5345178Y-12993786D01*
X5359464Y-13022357D01*
X5359464Y-13050929D01*
X5345178Y-13093786D01*
X5173750Y-13265214D01*
X5359464Y-13265214D01*
X5545178Y-12965214D02*
X5573750Y-12965214D01*
X5602321Y-12979500D01*
X5616607Y-12993786D01*
X5630893Y-13022357D01*
X5645178Y-13079500D01*
X5645178Y-13150929D01*
X5630893Y-13208071D01*
X5616607Y-13236643D01*
X5602321Y-13250929D01*
X5573750Y-13265214D01*
X5545178Y-13265214D01*
X5516607Y-13250929D01*
X5502321Y-13236643D01*
X5488036Y-13208071D01*
X5473750Y-13150929D01*
X5473750Y-13079500D01*
X5488036Y-13022357D01*
X5502321Y-12993786D01*
X5516607Y-12979500D01*
X5545178Y-12965214D01*
X5759464Y-12965214D02*
X5759464Y-13022357D01*
X5873750Y-12965214D02*
X5873750Y-13022357D01*
X6316607Y-13379500D02*
X6302321Y-13365214D01*
X6273750Y-13322357D01*
X6259464Y-13293786D01*
X6245178Y-13250929D01*
X6230893Y-13179500D01*
X6230893Y-13122357D01*
X6245178Y-13050929D01*
X6259464Y-13008071D01*
X6273750Y-12979500D01*
X6302321Y-12936643D01*
X6316607Y-12922357D01*
X6573750Y-12965214D02*
X6430893Y-12965214D01*
X6416607Y-13108071D01*
X6430893Y-13093786D01*
X6459464Y-13079500D01*
X6530893Y-13079500D01*
X6559464Y-13093786D01*
X6573750Y-13108071D01*
X6588036Y-13136643D01*
X6588036Y-13208071D01*
X6573750Y-13236643D01*
X6559464Y-13250929D01*
X6530893Y-13265214D01*
X6459464Y-13265214D01*
X6430893Y-13250929D01*
X6416607Y-13236643D01*
X6845178Y-12965214D02*
X6788036Y-12965214D01*
X6759464Y-12979500D01*
X6745178Y-12993786D01*
X6716607Y-13036643D01*
X6702321Y-13093786D01*
X6702321Y-13208071D01*
X6716607Y-13236643D01*
X6730893Y-13250929D01*
X6759464Y-13265214D01*
X6816607Y-13265214D01*
X6845178Y-13250929D01*
X6859464Y-13236643D01*
X6873750Y-13208071D01*
X6873750Y-13136643D01*
X6859464Y-13108071D01*
X6845178Y-13093786D01*
X6816607Y-13079500D01*
X6759464Y-13079500D01*
X6730893Y-13093786D01*
X6716607Y-13108071D01*
X6702321Y-13136643D01*
X7230893Y-13265214D02*
X7230893Y-12965214D01*
X7359464Y-13265214D02*
X7359464Y-13108071D01*
X7345178Y-13079500D01*
X7316607Y-13065214D01*
X7273750Y-13065214D01*
X7245178Y-13079500D01*
X7230893Y-13093786D01*
X7545178Y-13265214D02*
X7516607Y-13250929D01*
X7502321Y-13236643D01*
X7488036Y-13208071D01*
X7488036Y-13122357D01*
X7502321Y-13093786D01*
X7516607Y-13079500D01*
X7545178Y-13065214D01*
X7588036Y-13065214D01*
X7616607Y-13079500D01*
X7630893Y-13093786D01*
X7645178Y-13122357D01*
X7645178Y-13208071D01*
X7630893Y-13236643D01*
X7616607Y-13250929D01*
X7588036Y-13265214D01*
X7545178Y-13265214D01*
X7816607Y-13265214D02*
X7788036Y-13250929D01*
X7773750Y-13222357D01*
X7773750Y-12965214D01*
X8045178Y-13250929D02*
X8016607Y-13265214D01*
X7959464Y-13265214D01*
X7930893Y-13250929D01*
X7916607Y-13222357D01*
X7916607Y-13108071D01*
X7930893Y-13079500D01*
X7959464Y-13065214D01*
X8016607Y-13065214D01*
X8045178Y-13079500D01*
X8059464Y-13108071D01*
X8059464Y-13136643D01*
X7916607Y-13165214D01*
X8173750Y-13250929D02*
X8202321Y-13265214D01*
X8259464Y-13265214D01*
X8288036Y-13250929D01*
X8302321Y-13222357D01*
X8302321Y-13208071D01*
X8288036Y-13179500D01*
X8259464Y-13165214D01*
X8216607Y-13165214D01*
X8188036Y-13150929D01*
X8173750Y-13122357D01*
X8173750Y-13108071D01*
X8188036Y-13079500D01*
X8216607Y-13065214D01*
X8259464Y-13065214D01*
X8288036Y-13079500D01*
X8402321Y-13379500D02*
X8416607Y-13365214D01*
X8445178Y-13322357D01*
X8459464Y-13293786D01*
X8473750Y-13250929D01*
X8488036Y-13179500D01*
X8488036Y-13122357D01*
X8473750Y-13050929D01*
X8459464Y-13008071D01*
X8445178Y-12979500D01*
X8416607Y-12936643D01*
X8402321Y-12922357D01*
X1008750Y-13475500D02*
X1008750Y-13575500D01*
X958750Y-13525500D02*
X1058750Y-13525500D01*
X1502321Y-13661214D02*
X1330893Y-13661214D01*
X1416607Y-13661214D02*
X1416607Y-13361214D01*
X1388036Y-13404071D01*
X1359464Y-13432643D01*
X1330893Y-13446929D01*
X1630893Y-13632643D02*
X1645178Y-13646929D01*
X1630893Y-13661214D01*
X1616607Y-13646929D01*
X1630893Y-13632643D01*
X1630893Y-13661214D01*
X1830893Y-13361214D02*
X1859464Y-13361214D01*
X1888036Y-13375500D01*
X1902321Y-13389786D01*
X1916607Y-13418357D01*
X1930893Y-13475500D01*
X1930893Y-13546929D01*
X1916607Y-13604071D01*
X1902321Y-13632643D01*
X1888036Y-13646929D01*
X1859464Y-13661214D01*
X1830893Y-13661214D01*
X1802321Y-13646929D01*
X1788036Y-13632643D01*
X1773750Y-13604071D01*
X1759464Y-13546929D01*
X1759464Y-13475500D01*
X1773750Y-13418357D01*
X1788036Y-13389786D01*
X1802321Y-13375500D01*
X1830893Y-13361214D01*
X2116607Y-13361214D02*
X2145178Y-13361214D01*
X2173750Y-13375500D01*
X2188036Y-13389786D01*
X2202321Y-13418357D01*
X2216607Y-13475500D01*
X2216607Y-13546929D01*
X2202321Y-13604071D01*
X2188036Y-13632643D01*
X2173750Y-13646929D01*
X2145178Y-13661214D01*
X2116607Y-13661214D01*
X2088036Y-13646929D01*
X2073750Y-13632643D01*
X2059464Y-13604071D01*
X2045178Y-13546929D01*
X2045178Y-13475500D01*
X2059464Y-13418357D01*
X2073750Y-13389786D01*
X2088036Y-13375500D01*
X2116607Y-13361214D01*
X2402321Y-13361214D02*
X2430893Y-13361214D01*
X2459464Y-13375500D01*
X2473750Y-13389786D01*
X2488036Y-13418357D01*
X2502321Y-13475500D01*
X2502321Y-13546929D01*
X2488036Y-13604071D01*
X2473750Y-13632643D01*
X2459464Y-13646929D01*
X2430893Y-13661214D01*
X2402321Y-13661214D01*
X2373750Y-13646929D01*
X2359464Y-13632643D01*
X2345178Y-13604071D01*
X2330893Y-13546929D01*
X2330893Y-13475500D01*
X2345178Y-13418357D01*
X2359464Y-13389786D01*
X2373750Y-13375500D01*
X2402321Y-13361214D01*
X2630893Y-13661214D02*
X2630893Y-13461214D01*
X2630893Y-13489786D02*
X2645178Y-13475500D01*
X2673750Y-13461214D01*
X2716607Y-13461214D01*
X2745178Y-13475500D01*
X2759464Y-13504071D01*
X2759464Y-13661214D01*
X2759464Y-13504071D02*
X2773750Y-13475500D01*
X2802321Y-13461214D01*
X2845178Y-13461214D01*
X2873750Y-13475500D01*
X2888036Y-13504071D01*
X2888036Y-13661214D01*
X3030893Y-13661214D02*
X3030893Y-13461214D01*
X3030893Y-13489786D02*
X3045178Y-13475500D01*
X3073750Y-13461214D01*
X3116607Y-13461214D01*
X3145178Y-13475500D01*
X3159464Y-13504071D01*
X3159464Y-13661214D01*
X3159464Y-13504071D02*
X3173750Y-13475500D01*
X3202321Y-13461214D01*
X3245178Y-13461214D01*
X3273750Y-13475500D01*
X3288036Y-13504071D01*
X3288036Y-13661214D01*
X3873750Y-13346929D02*
X3616607Y-13732643D01*
X4259464Y-13361214D02*
X4288036Y-13361214D01*
X4316607Y-13375500D01*
X4330893Y-13389786D01*
X4345178Y-13418357D01*
X4359464Y-13475500D01*
X4359464Y-13546929D01*
X4345178Y-13604071D01*
X4330893Y-13632643D01*
X4316607Y-13646929D01*
X4288036Y-13661214D01*
X4259464Y-13661214D01*
X4230893Y-13646929D01*
X4216607Y-13632643D01*
X4202321Y-13604071D01*
X4188036Y-13546929D01*
X4188036Y-13475500D01*
X4202321Y-13418357D01*
X4216607Y-13389786D01*
X4230893Y-13375500D01*
X4259464Y-13361214D01*
X4488036Y-13632643D02*
X4502321Y-13646929D01*
X4488036Y-13661214D01*
X4473750Y-13646929D01*
X4488036Y-13632643D01*
X4488036Y-13661214D01*
X4688036Y-13361214D02*
X4716607Y-13361214D01*
X4745178Y-13375500D01*
X4759464Y-13389786D01*
X4773750Y-13418357D01*
X4788036Y-13475500D01*
X4788036Y-13546929D01*
X4773750Y-13604071D01*
X4759464Y-13632643D01*
X4745178Y-13646929D01*
X4716607Y-13661214D01*
X4688036Y-13661214D01*
X4659464Y-13646929D01*
X4645178Y-13632643D01*
X4630893Y-13604071D01*
X4616607Y-13546929D01*
X4616607Y-13475500D01*
X4630893Y-13418357D01*
X4645178Y-13389786D01*
X4659464Y-13375500D01*
X4688036Y-13361214D01*
X4888036Y-13361214D02*
X5073750Y-13361214D01*
X4973750Y-13475500D01*
X5016607Y-13475500D01*
X5045178Y-13489786D01*
X5059464Y-13504071D01*
X5073750Y-13532643D01*
X5073750Y-13604071D01*
X5059464Y-13632643D01*
X5045178Y-13646929D01*
X5016607Y-13661214D01*
X4930893Y-13661214D01*
X4902321Y-13646929D01*
X4888036Y-13632643D01*
X5216607Y-13661214D02*
X5273750Y-13661214D01*
X5302321Y-13646929D01*
X5316607Y-13632643D01*
X5345178Y-13589786D01*
X5359464Y-13532643D01*
X5359464Y-13418357D01*
X5345178Y-13389786D01*
X5330893Y-13375500D01*
X5302321Y-13361214D01*
X5245178Y-13361214D01*
X5216607Y-13375500D01*
X5202321Y-13389786D01*
X5188036Y-13418357D01*
X5188036Y-13489786D01*
X5202321Y-13518357D01*
X5216607Y-13532643D01*
X5245178Y-13546929D01*
X5302321Y-13546929D01*
X5330893Y-13532643D01*
X5345178Y-13518357D01*
X5359464Y-13489786D01*
X5616607Y-13461214D02*
X5616607Y-13661214D01*
X5545178Y-13346929D02*
X5473750Y-13561214D01*
X5659464Y-13561214D01*
X5759464Y-13361214D02*
X5759464Y-13418357D01*
X5873750Y-13361214D02*
X5873750Y-13418357D01*
X6316607Y-13775500D02*
X6302321Y-13761214D01*
X6273750Y-13718357D01*
X6259464Y-13689786D01*
X6245178Y-13646929D01*
X6230893Y-13575500D01*
X6230893Y-13518357D01*
X6245178Y-13446929D01*
X6259464Y-13404071D01*
X6273750Y-13375500D01*
X6302321Y-13332643D01*
X6316607Y-13318357D01*
X6488036Y-13361214D02*
X6516607Y-13361214D01*
X6545178Y-13375500D01*
X6559464Y-13389786D01*
X6573750Y-13418357D01*
X6588036Y-13475500D01*
X6588036Y-13546929D01*
X6573750Y-13604071D01*
X6559464Y-13632643D01*
X6545178Y-13646929D01*
X6516607Y-13661214D01*
X6488036Y-13661214D01*
X6459464Y-13646929D01*
X6445178Y-13632643D01*
X6430893Y-13604071D01*
X6416607Y-13546929D01*
X6416607Y-13475500D01*
X6430893Y-13418357D01*
X6445178Y-13389786D01*
X6459464Y-13375500D01*
X6488036Y-13361214D01*
X6945178Y-13661214D02*
X6945178Y-13361214D01*
X7073750Y-13661214D02*
X7073750Y-13504071D01*
X7059464Y-13475500D01*
X7030893Y-13461214D01*
X6988036Y-13461214D01*
X6959464Y-13475500D01*
X6945178Y-13489786D01*
X7259464Y-13661214D02*
X7230893Y-13646929D01*
X7216607Y-13632643D01*
X7202321Y-13604071D01*
X7202321Y-13518357D01*
X7216607Y-13489786D01*
X7230893Y-13475500D01*
X7259464Y-13461214D01*
X7302321Y-13461214D01*
X7330893Y-13475500D01*
X7345178Y-13489786D01*
X7359464Y-13518357D01*
X7359464Y-13604071D01*
X7345178Y-13632643D01*
X7330893Y-13646929D01*
X7302321Y-13661214D01*
X7259464Y-13661214D01*
X7530893Y-13661214D02*
X7502321Y-13646929D01*
X7488036Y-13618357D01*
X7488036Y-13361214D01*
X7759464Y-13646929D02*
X7730893Y-13661214D01*
X7673750Y-13661214D01*
X7645178Y-13646929D01*
X7630893Y-13618357D01*
X7630893Y-13504071D01*
X7645178Y-13475500D01*
X7673750Y-13461214D01*
X7730893Y-13461214D01*
X7759464Y-13475500D01*
X7773750Y-13504071D01*
X7773750Y-13532643D01*
X7630893Y-13561214D01*
X7888036Y-13646929D02*
X7916607Y-13661214D01*
X7973750Y-13661214D01*
X8002321Y-13646929D01*
X8016607Y-13618357D01*
X8016607Y-13604071D01*
X8002321Y-13575500D01*
X7973750Y-13561214D01*
X7930893Y-13561214D01*
X7902321Y-13546929D01*
X7888036Y-13518357D01*
X7888036Y-13504071D01*
X7902321Y-13475500D01*
X7930893Y-13461214D01*
X7973750Y-13461214D01*
X8002321Y-13475500D01*
X8373750Y-13546929D02*
X8602321Y-13546929D01*
X8488036Y-13661214D02*
X8488036Y-13432643D01*
X9016607Y-13489786D02*
X8988036Y-13475500D01*
X8973750Y-13461214D01*
X8959464Y-13432643D01*
X8959464Y-13418357D01*
X8973750Y-13389786D01*
X8988036Y-13375500D01*
X9016607Y-13361214D01*
X9073750Y-13361214D01*
X9102321Y-13375500D01*
X9116607Y-13389786D01*
X9130893Y-13418357D01*
X9130893Y-13432643D01*
X9116607Y-13461214D01*
X9102321Y-13475500D01*
X9073750Y-13489786D01*
X9016607Y-13489786D01*
X8988036Y-13504071D01*
X8973750Y-13518357D01*
X8959464Y-13546929D01*
X8959464Y-13604071D01*
X8973750Y-13632643D01*
X8988036Y-13646929D01*
X9016607Y-13661214D01*
X9073750Y-13661214D01*
X9102321Y-13646929D01*
X9116607Y-13632643D01*
X9130893Y-13604071D01*
X9130893Y-13546929D01*
X9116607Y-13518357D01*
X9102321Y-13504071D01*
X9073750Y-13489786D01*
X9473750Y-13646929D02*
X9502321Y-13661214D01*
X9559464Y-13661214D01*
X9588036Y-13646929D01*
X9602321Y-13618357D01*
X9602321Y-13604071D01*
X9588036Y-13575500D01*
X9559464Y-13561214D01*
X9516607Y-13561214D01*
X9488036Y-13546929D01*
X9473750Y-13518357D01*
X9473750Y-13504071D01*
X9488036Y-13475500D01*
X9516607Y-13461214D01*
X9559464Y-13461214D01*
X9588036Y-13475500D01*
X9773750Y-13661214D02*
X9745178Y-13646929D01*
X9730893Y-13618357D01*
X9730893Y-13361214D01*
X9930893Y-13661214D02*
X9902321Y-13646929D01*
X9888036Y-13632643D01*
X9873750Y-13604071D01*
X9873750Y-13518357D01*
X9888036Y-13489786D01*
X9902321Y-13475500D01*
X9930893Y-13461214D01*
X9973750Y-13461214D01*
X10002321Y-13475500D01*
X10016607Y-13489786D01*
X10030893Y-13518357D01*
X10030893Y-13604071D01*
X10016607Y-13632643D01*
X10002321Y-13646929D01*
X9973750Y-13661214D01*
X9930893Y-13661214D01*
X10116607Y-13461214D02*
X10230893Y-13461214D01*
X10159464Y-13361214D02*
X10159464Y-13618357D01*
X10173750Y-13646929D01*
X10202321Y-13661214D01*
X10230893Y-13661214D01*
X10316607Y-13646929D02*
X10345178Y-13661214D01*
X10402321Y-13661214D01*
X10430893Y-13646929D01*
X10445178Y-13618357D01*
X10445178Y-13604071D01*
X10430893Y-13575500D01*
X10402321Y-13561214D01*
X10359464Y-13561214D01*
X10330893Y-13546929D01*
X10316607Y-13518357D01*
X10316607Y-13504071D01*
X10330893Y-13475500D01*
X10359464Y-13461214D01*
X10402321Y-13461214D01*
X10430893Y-13475500D01*
X10545178Y-13775500D02*
X10559464Y-13761214D01*
X10588036Y-13718357D01*
X10602321Y-13689786D01*
X10616607Y-13646929D01*
X10630893Y-13575500D01*
X10630893Y-13518357D01*
X10616607Y-13446929D01*
X10602321Y-13404071D01*
X10588036Y-13375500D01*
X10559464Y-13332643D01*
X10545178Y-13318357D01*
X1039712Y-13967462D02*
X1039712Y-13875538D01*
X947787Y-13875538D01*
X947787Y-13967462D01*
X1039712Y-13967462D01*
X1502321Y-14057214D02*
X1330893Y-14057214D01*
X1416607Y-14057214D02*
X1416607Y-13757214D01*
X1388036Y-13800071D01*
X1359464Y-13828643D01*
X1330893Y-13842929D01*
X1630893Y-14028643D02*
X1645178Y-14042929D01*
X1630893Y-14057214D01*
X1616607Y-14042929D01*
X1630893Y-14028643D01*
X1630893Y-14057214D01*
X1745178Y-13757214D02*
X1930893Y-13757214D01*
X1830893Y-13871500D01*
X1873750Y-13871500D01*
X1902321Y-13885786D01*
X1916607Y-13900071D01*
X1930893Y-13928643D01*
X1930893Y-14000071D01*
X1916607Y-14028643D01*
X1902321Y-14042929D01*
X1873750Y-14057214D01*
X1788036Y-14057214D01*
X1759464Y-14042929D01*
X1745178Y-14028643D01*
X2116607Y-13757214D02*
X2145178Y-13757214D01*
X2173750Y-13771500D01*
X2188036Y-13785786D01*
X2202321Y-13814357D01*
X2216607Y-13871500D01*
X2216607Y-13942929D01*
X2202321Y-14000071D01*
X2188036Y-14028643D01*
X2173750Y-14042929D01*
X2145178Y-14057214D01*
X2116607Y-14057214D01*
X2088036Y-14042929D01*
X2073750Y-14028643D01*
X2059464Y-14000071D01*
X2045178Y-13942929D01*
X2045178Y-13871500D01*
X2059464Y-13814357D01*
X2073750Y-13785786D01*
X2088036Y-13771500D01*
X2116607Y-13757214D01*
X2402321Y-13757214D02*
X2430893Y-13757214D01*
X2459464Y-13771500D01*
X2473750Y-13785786D01*
X2488036Y-13814357D01*
X2502321Y-13871500D01*
X2502321Y-13942929D01*
X2488036Y-14000071D01*
X2473750Y-14028643D01*
X2459464Y-14042929D01*
X2430893Y-14057214D01*
X2402321Y-14057214D01*
X2373750Y-14042929D01*
X2359464Y-14028643D01*
X2345178Y-14000071D01*
X2330893Y-13942929D01*
X2330893Y-13871500D01*
X2345178Y-13814357D01*
X2359464Y-13785786D01*
X2373750Y-13771500D01*
X2402321Y-13757214D01*
X2630893Y-14057214D02*
X2630893Y-13857214D01*
X2630893Y-13885786D02*
X2645178Y-13871500D01*
X2673750Y-13857214D01*
X2716607Y-13857214D01*
X2745178Y-13871500D01*
X2759464Y-13900071D01*
X2759464Y-14057214D01*
X2759464Y-13900071D02*
X2773750Y-13871500D01*
X2802321Y-13857214D01*
X2845178Y-13857214D01*
X2873750Y-13871500D01*
X2888036Y-13900071D01*
X2888036Y-14057214D01*
X3030893Y-14057214D02*
X3030893Y-13857214D01*
X3030893Y-13885786D02*
X3045178Y-13871500D01*
X3073750Y-13857214D01*
X3116607Y-13857214D01*
X3145178Y-13871500D01*
X3159464Y-13900071D01*
X3159464Y-14057214D01*
X3159464Y-13900071D02*
X3173750Y-13871500D01*
X3202321Y-13857214D01*
X3245178Y-13857214D01*
X3273750Y-13871500D01*
X3288036Y-13900071D01*
X3288036Y-14057214D01*
X3873750Y-13742929D02*
X3616607Y-14128643D01*
X4259464Y-13757214D02*
X4288036Y-13757214D01*
X4316607Y-13771500D01*
X4330893Y-13785786D01*
X4345178Y-13814357D01*
X4359464Y-13871500D01*
X4359464Y-13942929D01*
X4345178Y-14000071D01*
X4330893Y-14028643D01*
X4316607Y-14042929D01*
X4288036Y-14057214D01*
X4259464Y-14057214D01*
X4230893Y-14042929D01*
X4216607Y-14028643D01*
X4202321Y-14000071D01*
X4188036Y-13942929D01*
X4188036Y-13871500D01*
X4202321Y-13814357D01*
X4216607Y-13785786D01*
X4230893Y-13771500D01*
X4259464Y-13757214D01*
X4488036Y-14028643D02*
X4502321Y-14042929D01*
X4488036Y-14057214D01*
X4473750Y-14042929D01*
X4488036Y-14028643D01*
X4488036Y-14057214D01*
X4688036Y-13757214D02*
X4716607Y-13757214D01*
X4745178Y-13771500D01*
X4759464Y-13785786D01*
X4773750Y-13814357D01*
X4788036Y-13871500D01*
X4788036Y-13942929D01*
X4773750Y-14000071D01*
X4759464Y-14028643D01*
X4745178Y-14042929D01*
X4716607Y-14057214D01*
X4688036Y-14057214D01*
X4659464Y-14042929D01*
X4645178Y-14028643D01*
X4630893Y-14000071D01*
X4616607Y-13942929D01*
X4616607Y-13871500D01*
X4630893Y-13814357D01*
X4645178Y-13785786D01*
X4659464Y-13771500D01*
X4688036Y-13757214D01*
X5059464Y-13757214D02*
X4916607Y-13757214D01*
X4902321Y-13900071D01*
X4916607Y-13885786D01*
X4945178Y-13871500D01*
X5016607Y-13871500D01*
X5045178Y-13885786D01*
X5059464Y-13900071D01*
X5073750Y-13928643D01*
X5073750Y-14000071D01*
X5059464Y-14028643D01*
X5045178Y-14042929D01*
X5016607Y-14057214D01*
X4945178Y-14057214D01*
X4916607Y-14042929D01*
X4902321Y-14028643D01*
X5359464Y-14057214D02*
X5188036Y-14057214D01*
X5273750Y-14057214D02*
X5273750Y-13757214D01*
X5245178Y-13800071D01*
X5216607Y-13828643D01*
X5188036Y-13842929D01*
X5473750Y-13785786D02*
X5488036Y-13771500D01*
X5516607Y-13757214D01*
X5588036Y-13757214D01*
X5616607Y-13771500D01*
X5630893Y-13785786D01*
X5645178Y-13814357D01*
X5645178Y-13842929D01*
X5630893Y-13885786D01*
X5459464Y-14057214D01*
X5645178Y-14057214D01*
X5759464Y-13757214D02*
X5759464Y-13814357D01*
X5873750Y-13757214D02*
X5873750Y-13814357D01*
X6316607Y-14171500D02*
X6302321Y-14157214D01*
X6273750Y-14114357D01*
X6259464Y-14085786D01*
X6245178Y-14042929D01*
X6230893Y-13971500D01*
X6230893Y-13914357D01*
X6245178Y-13842929D01*
X6259464Y-13800071D01*
X6273750Y-13771500D01*
X6302321Y-13728643D01*
X6316607Y-13714357D01*
X6559464Y-13857214D02*
X6559464Y-14057214D01*
X6488036Y-13742929D02*
X6416607Y-13957214D01*
X6602321Y-13957214D01*
X6945178Y-14057214D02*
X6945178Y-13757214D01*
X7073750Y-14057214D02*
X7073750Y-13900071D01*
X7059464Y-13871500D01*
X7030893Y-13857214D01*
X6988036Y-13857214D01*
X6959464Y-13871500D01*
X6945178Y-13885786D01*
X7259464Y-14057214D02*
X7230893Y-14042929D01*
X7216607Y-14028643D01*
X7202321Y-14000071D01*
X7202321Y-13914357D01*
X7216607Y-13885786D01*
X7230893Y-13871500D01*
X7259464Y-13857214D01*
X7302321Y-13857214D01*
X7330893Y-13871500D01*
X7345178Y-13885786D01*
X7359464Y-13914357D01*
X7359464Y-14000071D01*
X7345178Y-14028643D01*
X7330893Y-14042929D01*
X7302321Y-14057214D01*
X7259464Y-14057214D01*
X7530893Y-14057214D02*
X7502321Y-14042929D01*
X7488036Y-14014357D01*
X7488036Y-13757214D01*
X7759464Y-14042929D02*
X7730893Y-14057214D01*
X7673750Y-14057214D01*
X7645178Y-14042929D01*
X7630893Y-14014357D01*
X7630893Y-13900071D01*
X7645178Y-13871500D01*
X7673750Y-13857214D01*
X7730893Y-13857214D01*
X7759464Y-13871500D01*
X7773750Y-13900071D01*
X7773750Y-13928643D01*
X7630893Y-13957214D01*
X7888036Y-14042929D02*
X7916607Y-14057214D01*
X7973750Y-14057214D01*
X8002321Y-14042929D01*
X8016607Y-14014357D01*
X8016607Y-14000071D01*
X8002321Y-13971500D01*
X7973750Y-13957214D01*
X7930893Y-13957214D01*
X7902321Y-13942929D01*
X7888036Y-13914357D01*
X7888036Y-13900071D01*
X7902321Y-13871500D01*
X7930893Y-13857214D01*
X7973750Y-13857214D01*
X8002321Y-13871500D01*
X8116607Y-14171500D02*
X8130893Y-14157214D01*
X8159464Y-14114357D01*
X8173750Y-14085786D01*
X8188036Y-14042929D01*
X8202321Y-13971500D01*
X8202321Y-13914357D01*
X8188036Y-13842929D01*
X8173750Y-13800071D01*
X8159464Y-13771500D01*
X8130893Y-13728643D01*
X8116607Y-13714357D01*
M02*
