G04 #@! TF.GenerationSoftware,KiCad,Pcbnew,(5.1.10-1-10_14)*
G04 #@! TF.CreationDate,2022-01-01T08:00:18-07:00*
G04 #@! TF.ProjectId,corne-cherry,636f726e-652d-4636-9865-7272792e6b69,3.0.1*
G04 #@! TF.SameCoordinates,Original*
G04 #@! TF.FileFunction,OtherDrawing,Comment*
%FSLAX46Y46*%
G04 Gerber Fmt 4.6, Leading zero omitted, Abs format (unit mm)*
G04 Created by KiCad (PCBNEW (5.1.10-1-10_14)) date 2022-01-01 08:00:18*
%MOMM*%
%LPD*%
G01*
G04 APERTURE LIST*
%ADD10C,0.150000*%
%ADD11C,0.200000*%
%ADD12C,0.120000*%
G04 APERTURE END LIST*
D10*
X143828620Y-7382457D02*
X143876241Y-7334840D01*
X143971481Y-7287224D01*
X144209576Y-7287233D01*
X144304813Y-7334855D01*
X144352430Y-7382476D01*
X144400045Y-7477716D01*
X144400042Y-7572954D01*
X144352418Y-7715809D01*
X143780968Y-8287217D01*
X144400016Y-8287240D01*
X144733386Y-7287252D02*
X145400052Y-7287276D01*
X144971445Y-8287260D01*
X146257195Y-7287307D02*
X145781005Y-7287290D01*
X145733368Y-7763478D01*
X145780989Y-7715861D01*
X145876229Y-7668246D01*
X146114324Y-7668254D01*
X146209561Y-7715877D01*
X146257178Y-7763497D01*
X146304793Y-7858737D01*
X146304785Y-8096832D01*
X146257162Y-8192069D01*
X146209542Y-8239686D01*
X146114302Y-8287302D01*
X145876207Y-8287293D01*
X145780970Y-8239671D01*
X145733353Y-8192050D01*
X146733353Y-8192086D02*
X146780970Y-8239707D01*
X146733349Y-8287324D01*
X146685732Y-8239703D01*
X146733353Y-8192086D01*
X146733349Y-8287324D01*
X147685767Y-7287359D02*
X147209576Y-7287342D01*
X147161940Y-7763530D01*
X147209561Y-7715913D01*
X147304800Y-7668297D01*
X147542896Y-7668306D01*
X147638132Y-7715928D01*
X147685749Y-7763549D01*
X147733365Y-7858789D01*
X147733356Y-8096884D01*
X147685734Y-8192121D01*
X147638113Y-8239738D01*
X147542873Y-8287354D01*
X147304778Y-8287345D01*
X147209542Y-8239722D01*
X147161924Y-8192102D01*
X148114335Y-7382612D02*
X148161955Y-7334995D01*
X148257195Y-7287380D01*
X148495290Y-7287388D01*
X148590527Y-7335011D01*
X148638144Y-7382631D01*
X148685760Y-7477871D01*
X148685756Y-7573109D01*
X148638132Y-7715965D01*
X148066683Y-8287373D01*
X148685730Y-8287395D01*
X149304814Y-7287418D02*
X149400052Y-7287421D01*
X149495289Y-7335044D01*
X149542906Y-7382664D01*
X149590522Y-7477904D01*
X149638134Y-7668382D01*
X149638125Y-7906477D01*
X149590499Y-8096952D01*
X149542877Y-8192188D01*
X149495256Y-8239805D01*
X149400016Y-8287421D01*
X149304778Y-8287418D01*
X149209542Y-8239795D01*
X149161924Y-8192174D01*
X149114309Y-8096934D01*
X149066697Y-7906457D01*
X149066705Y-7668361D01*
X149114331Y-7477887D01*
X149161954Y-7382650D01*
X149209574Y-7335033D01*
X149304814Y-7287418D01*
X150828587Y-8287473D02*
X150828612Y-7620806D01*
X150828608Y-7716044D02*
X150876229Y-7668427D01*
X150971469Y-7620811D01*
X151114326Y-7620817D01*
X151209562Y-7668439D01*
X151257178Y-7763679D01*
X151257159Y-8287488D01*
X151257178Y-7763679D02*
X151304800Y-7668443D01*
X151400040Y-7620827D01*
X151542897Y-7620832D01*
X151638134Y-7668455D01*
X151685749Y-7763694D01*
X151685730Y-8287504D01*
X152161921Y-8287521D02*
X152161945Y-7620855D01*
X152161942Y-7716093D02*
X152209562Y-7668475D01*
X152304802Y-7620860D01*
X152447659Y-7620865D01*
X152542896Y-7668487D01*
X152590511Y-7763727D01*
X152590492Y-8287537D01*
X152590511Y-7763727D02*
X152638134Y-7668491D01*
X152733374Y-7620875D01*
X152876231Y-7620881D01*
X152971467Y-7668503D01*
X153019083Y-7763743D01*
X153019064Y-8287552D01*
X10687605Y-9130006D02*
X286207605Y-9140006D01*
X10687500Y-12030000D02*
X10687627Y-8543585D01*
X286207500Y-12040000D02*
X286207627Y-8553585D01*
X286207605Y-9140006D02*
X285081080Y-9726386D01*
X286207605Y-9140006D02*
X285081123Y-8553544D01*
X10687605Y-9130006D02*
X11814087Y-9716468D01*
X10687605Y-9130006D02*
X11814130Y-8543626D01*
D11*
X141425358Y-63280464D02*
X141445674Y-63078928D01*
X141445674Y-63078928D02*
X141523968Y-62846922D01*
X141523968Y-62846922D02*
X141653708Y-62644370D01*
X141653708Y-62644370D02*
X141827040Y-62479128D01*
X141827040Y-62479128D02*
X142036110Y-62359048D01*
X142036110Y-62359048D02*
X142273063Y-62291986D01*
X142273063Y-62291986D02*
X142425353Y-62280464D01*
X142425353Y-64280464D02*
X142223819Y-64260147D01*
X142223819Y-64260147D02*
X141991814Y-64181853D01*
X141991814Y-64181853D02*
X141789263Y-64052113D01*
X141789263Y-64052113D02*
X141624021Y-63878780D01*
X141624021Y-63878780D02*
X141503942Y-63669709D01*
X141503942Y-63669709D02*
X141436880Y-63432754D01*
X141436880Y-63432754D02*
X141425358Y-63280464D01*
X143425348Y-63280464D02*
X143405031Y-63481999D01*
X143405031Y-63481999D02*
X143326737Y-63714005D01*
X143326737Y-63714005D02*
X143196997Y-63916557D01*
X143196997Y-63916557D02*
X143023665Y-64081799D01*
X143023665Y-64081799D02*
X142814595Y-64201879D01*
X142814595Y-64201879D02*
X142577642Y-64268941D01*
X142577642Y-64268941D02*
X142425353Y-64280464D01*
X142425353Y-62280464D02*
X142626886Y-62300780D01*
X142626886Y-62300780D02*
X142858891Y-62379074D01*
X142858891Y-62379074D02*
X143061442Y-62508814D01*
X143061442Y-62508814D02*
X143226684Y-62682147D01*
X143226684Y-62682147D02*
X143346763Y-62891218D01*
X143346763Y-62891218D02*
X143413825Y-63128173D01*
X143413825Y-63128173D02*
X143425348Y-63280464D01*
X153295394Y-63280464D02*
X153315710Y-63078928D01*
X153315710Y-63078928D02*
X153394004Y-62846922D01*
X153394004Y-62846922D02*
X153523744Y-62644370D01*
X153523744Y-62644370D02*
X153697076Y-62479128D01*
X153697076Y-62479128D02*
X153906146Y-62359048D01*
X153906146Y-62359048D02*
X154143099Y-62291986D01*
X154143099Y-62291986D02*
X154295389Y-62280464D01*
X154295389Y-64280464D02*
X154093855Y-64260147D01*
X154093855Y-64260147D02*
X153861850Y-64181853D01*
X153861850Y-64181853D02*
X153659299Y-64052113D01*
X153659299Y-64052113D02*
X153494057Y-63878780D01*
X153494057Y-63878780D02*
X153373978Y-63669709D01*
X153373978Y-63669709D02*
X153306916Y-63432754D01*
X153306916Y-63432754D02*
X153295394Y-63280464D01*
X155295384Y-63280464D02*
X155275067Y-63481999D01*
X155275067Y-63481999D02*
X155196773Y-63714005D01*
X155196773Y-63714005D02*
X155067033Y-63916557D01*
X155067033Y-63916557D02*
X154893701Y-64081799D01*
X154893701Y-64081799D02*
X154684631Y-64201879D01*
X154684631Y-64201879D02*
X154447678Y-64268941D01*
X154447678Y-64268941D02*
X154295389Y-64280464D01*
X154295389Y-62280464D02*
X154496922Y-62300780D01*
X154496922Y-62300780D02*
X154728927Y-62379074D01*
X154728927Y-62379074D02*
X154931478Y-62508814D01*
X154931478Y-62508814D02*
X155096720Y-62682147D01*
X155096720Y-62682147D02*
X155216799Y-62891218D01*
X155216799Y-62891218D02*
X155283861Y-63128173D01*
X155283861Y-63128173D02*
X155295384Y-63280464D01*
X141425358Y-63280464D02*
X141445674Y-63078928D01*
X141445674Y-63078928D02*
X141523968Y-62846922D01*
X141523968Y-62846922D02*
X141653708Y-62644370D01*
X141653708Y-62644370D02*
X141827040Y-62479128D01*
X141827040Y-62479128D02*
X142036110Y-62359048D01*
X142036110Y-62359048D02*
X142273063Y-62291986D01*
X142273063Y-62291986D02*
X142425353Y-62280464D01*
X142425353Y-64280464D02*
X142223819Y-64260147D01*
X142223819Y-64260147D02*
X141991814Y-64181853D01*
X141991814Y-64181853D02*
X141789263Y-64052113D01*
X141789263Y-64052113D02*
X141624021Y-63878780D01*
X141624021Y-63878780D02*
X141503942Y-63669709D01*
X141503942Y-63669709D02*
X141436880Y-63432754D01*
X141436880Y-63432754D02*
X141425358Y-63280464D01*
X143425348Y-63280464D02*
X143405031Y-63481999D01*
X143405031Y-63481999D02*
X143326737Y-63714005D01*
X143326737Y-63714005D02*
X143196997Y-63916557D01*
X143196997Y-63916557D02*
X143023665Y-64081799D01*
X143023665Y-64081799D02*
X142814595Y-64201879D01*
X142814595Y-64201879D02*
X142577642Y-64268941D01*
X142577642Y-64268941D02*
X142425353Y-64280464D01*
X142425353Y-62280464D02*
X142626886Y-62300780D01*
X142626886Y-62300780D02*
X142858891Y-62379074D01*
X142858891Y-62379074D02*
X143061442Y-62508814D01*
X143061442Y-62508814D02*
X143226684Y-62682147D01*
X143226684Y-62682147D02*
X143346763Y-62891218D01*
X143346763Y-62891218D02*
X143413825Y-63128173D01*
X143413825Y-63128173D02*
X143425348Y-63280464D01*
X153295394Y-63280464D02*
X153315710Y-63078928D01*
X153315710Y-63078928D02*
X153394004Y-62846922D01*
X153394004Y-62846922D02*
X153523744Y-62644370D01*
X153523744Y-62644370D02*
X153697076Y-62479128D01*
X153697076Y-62479128D02*
X153906146Y-62359048D01*
X153906146Y-62359048D02*
X154143099Y-62291986D01*
X154143099Y-62291986D02*
X154295389Y-62280464D01*
X154295389Y-64280464D02*
X154093855Y-64260147D01*
X154093855Y-64260147D02*
X153861850Y-64181853D01*
X153861850Y-64181853D02*
X153659299Y-64052113D01*
X153659299Y-64052113D02*
X153494057Y-63878780D01*
X153494057Y-63878780D02*
X153373978Y-63669709D01*
X153373978Y-63669709D02*
X153306916Y-63432754D01*
X153306916Y-63432754D02*
X153295394Y-63280464D01*
X155295384Y-63280464D02*
X155275067Y-63481999D01*
X155275067Y-63481999D02*
X155196773Y-63714005D01*
X155196773Y-63714005D02*
X155067033Y-63916557D01*
X155067033Y-63916557D02*
X154893701Y-64081799D01*
X154893701Y-64081799D02*
X154684631Y-64201879D01*
X154684631Y-64201879D02*
X154447678Y-64268941D01*
X154447678Y-64268941D02*
X154295389Y-64280464D01*
X154295389Y-62280464D02*
X154496922Y-62300780D01*
X154496922Y-62300780D02*
X154728927Y-62379074D01*
X154728927Y-62379074D02*
X154931478Y-62508814D01*
X154931478Y-62508814D02*
X155096720Y-62682147D01*
X155096720Y-62682147D02*
X155216799Y-62891218D01*
X155216799Y-62891218D02*
X155283861Y-63128173D01*
X155283861Y-63128173D02*
X155295384Y-63280464D01*
D10*
X5532119Y-60836380D02*
X5532119Y-60264952D01*
X5532119Y-60550666D02*
X6532119Y-60550666D01*
X6389261Y-60455428D01*
X6294023Y-60360190D01*
X6246404Y-60264952D01*
X6532119Y-61455428D02*
X6532119Y-61550666D01*
X6484500Y-61645904D01*
X6436880Y-61693523D01*
X6341642Y-61741142D01*
X6151166Y-61788761D01*
X5913071Y-61788761D01*
X5722595Y-61741142D01*
X5627357Y-61693523D01*
X5579738Y-61645904D01*
X5532119Y-61550666D01*
X5532119Y-61455428D01*
X5579738Y-61360190D01*
X5627357Y-61312571D01*
X5722595Y-61264952D01*
X5913071Y-61217333D01*
X6151166Y-61217333D01*
X6341642Y-61264952D01*
X6436880Y-61312571D01*
X6484500Y-61360190D01*
X6532119Y-61455428D01*
X6532119Y-62693523D02*
X6532119Y-62217333D01*
X6055928Y-62169714D01*
X6103547Y-62217333D01*
X6151166Y-62312571D01*
X6151166Y-62550666D01*
X6103547Y-62645904D01*
X6055928Y-62693523D01*
X5960690Y-62741142D01*
X5722595Y-62741142D01*
X5627357Y-62693523D01*
X5579738Y-62645904D01*
X5532119Y-62550666D01*
X5532119Y-62312571D01*
X5579738Y-62217333D01*
X5627357Y-62169714D01*
X5627357Y-63169714D02*
X5579738Y-63217333D01*
X5532119Y-63169714D01*
X5579738Y-63122095D01*
X5627357Y-63169714D01*
X5532119Y-63169714D01*
X6103547Y-63788761D02*
X6151166Y-63693523D01*
X6198785Y-63645904D01*
X6294023Y-63598285D01*
X6341642Y-63598285D01*
X6436880Y-63645904D01*
X6484500Y-63693523D01*
X6532119Y-63788761D01*
X6532119Y-63979238D01*
X6484500Y-64074476D01*
X6436880Y-64122095D01*
X6341642Y-64169714D01*
X6294023Y-64169714D01*
X6198785Y-64122095D01*
X6151166Y-64074476D01*
X6103547Y-63979238D01*
X6103547Y-63788761D01*
X6055928Y-63693523D01*
X6008309Y-63645904D01*
X5913071Y-63598285D01*
X5722595Y-63598285D01*
X5627357Y-63645904D01*
X5579738Y-63693523D01*
X5532119Y-63788761D01*
X5532119Y-63979238D01*
X5579738Y-64074476D01*
X5627357Y-64122095D01*
X5722595Y-64169714D01*
X5913071Y-64169714D01*
X6008309Y-64122095D01*
X6055928Y-64074476D01*
X6103547Y-63979238D01*
X6532119Y-64788761D02*
X6532119Y-64884000D01*
X6484500Y-64979238D01*
X6436880Y-65026857D01*
X6341642Y-65074476D01*
X6151166Y-65122095D01*
X5913071Y-65122095D01*
X5722595Y-65074476D01*
X5627357Y-65026857D01*
X5579738Y-64979238D01*
X5532119Y-64884000D01*
X5532119Y-64788761D01*
X5579738Y-64693523D01*
X5627357Y-64645904D01*
X5722595Y-64598285D01*
X5913071Y-64550666D01*
X6151166Y-64550666D01*
X6341642Y-64598285D01*
X6436880Y-64645904D01*
X6484500Y-64693523D01*
X6532119Y-64788761D01*
X6532119Y-65741142D02*
X6532119Y-65836380D01*
X6484500Y-65931619D01*
X6436880Y-65979238D01*
X6341642Y-66026857D01*
X6151166Y-66074476D01*
X5913071Y-66074476D01*
X5722595Y-66026857D01*
X5627357Y-65979238D01*
X5579738Y-65931619D01*
X5532119Y-65836380D01*
X5532119Y-65741142D01*
X5579738Y-65645904D01*
X5627357Y-65598285D01*
X5722595Y-65550666D01*
X5913071Y-65503047D01*
X6151166Y-65503047D01*
X6341642Y-65550666D01*
X6436880Y-65598285D01*
X6484500Y-65645904D01*
X6532119Y-65741142D01*
X5532119Y-67264952D02*
X6198785Y-67264952D01*
X6103547Y-67264952D02*
X6151166Y-67312571D01*
X6198785Y-67407809D01*
X6198785Y-67550666D01*
X6151166Y-67645904D01*
X6055928Y-67693523D01*
X5532119Y-67693523D01*
X6055928Y-67693523D02*
X6151166Y-67741142D01*
X6198785Y-67836380D01*
X6198785Y-67979238D01*
X6151166Y-68074476D01*
X6055928Y-68122095D01*
X5532119Y-68122095D01*
X5532119Y-68598285D02*
X6198785Y-68598285D01*
X6103547Y-68598285D02*
X6151166Y-68645904D01*
X6198785Y-68741142D01*
X6198785Y-68884000D01*
X6151166Y-68979238D01*
X6055928Y-69026857D01*
X5532119Y-69026857D01*
X6055928Y-69026857D02*
X6151166Y-69074476D01*
X6198785Y-69169714D01*
X6198785Y-69312571D01*
X6151166Y-69407809D01*
X6055928Y-69455428D01*
X5532119Y-69455428D01*
X7284500Y-11984000D02*
X7284500Y-117784000D01*
X10584500Y-11984000D02*
X6698079Y-11984000D01*
X10584500Y-117784000D02*
X6698079Y-117784000D01*
X7284500Y-117784000D02*
X6698079Y-116657496D01*
X7284500Y-117784000D02*
X7870921Y-116657496D01*
X7284500Y-11984000D02*
X6698079Y-13110504D01*
X7284500Y-11984000D02*
X7870921Y-13110504D01*
X132419678Y-104717178D02*
X132919678Y-103851152D01*
X127295322Y-85592822D02*
X128161348Y-86092822D01*
X120295322Y-97717178D02*
X120795322Y-96851152D01*
X139419678Y-92592822D02*
X138553652Y-92092822D01*
X138919678Y-93458848D02*
X139419678Y-92592822D01*
X131553652Y-104217178D02*
X132419678Y-104717178D01*
X127295322Y-85592822D02*
X126795322Y-86458848D01*
X121161348Y-98217178D02*
X120295322Y-97717178D01*
X130962642Y-112290838D02*
X114464858Y-102765838D01*
X145250142Y-87544162D02*
X130962642Y-112290838D01*
X128752358Y-78019162D02*
X145250142Y-87544162D01*
X114464858Y-102765838D02*
X128752358Y-78019162D01*
X157302322Y-92587822D02*
X157802322Y-93453848D01*
X176426678Y-97712178D02*
X175560652Y-98212178D01*
X169426678Y-85587822D02*
X169926678Y-86453848D01*
X164302322Y-104712178D02*
X165168348Y-104212178D01*
X163802322Y-103846152D02*
X164302322Y-104712178D01*
X158168348Y-92087822D02*
X157302322Y-92587822D01*
X176426678Y-97712178D02*
X175926678Y-96846152D01*
X168560652Y-86087822D02*
X169426678Y-85587822D01*
X151471858Y-87539162D02*
X167969642Y-78014162D01*
X165759358Y-112285838D02*
X151471858Y-87539162D01*
X182257142Y-102760838D02*
X165759358Y-112285838D01*
X167969642Y-78014162D02*
X182257142Y-102760838D01*
D12*
X105013802Y-94902889D02*
X105967716Y-94433797D01*
X109122169Y-97111469D02*
X108946172Y-97768298D01*
X108946172Y-97768298D02*
X107651831Y-97421481D01*
X107827828Y-96764651D02*
X109122169Y-97111469D01*
X109484516Y-95759172D02*
X109308519Y-96416002D01*
X109308519Y-96416002D02*
X108014178Y-96069184D01*
X108190175Y-95412355D02*
X109484516Y-95759172D01*
X103628875Y-94894146D02*
X103804872Y-94237316D01*
X103804872Y-94237316D02*
X105099212Y-94584134D01*
X104923215Y-95240963D02*
X103628875Y-94894146D01*
X103442525Y-95589613D02*
X104736866Y-95936430D01*
X103266528Y-96246442D02*
X103442525Y-95589613D01*
X104560869Y-96593260D02*
X103266528Y-96246442D01*
X107561245Y-97759555D02*
X108285938Y-95054962D01*
X104470282Y-96931334D02*
X105194975Y-94226741D01*
X105194975Y-94226741D02*
X108285938Y-95054962D01*
X104470282Y-96931334D02*
X107561245Y-97759555D01*
X18507500Y-39830000D02*
X19307500Y-39130000D01*
X23047500Y-40900000D02*
X23047500Y-41580000D01*
X23047500Y-41580000D02*
X21707500Y-41580000D01*
X21707500Y-40900000D02*
X23047500Y-40900000D01*
X23047500Y-39500000D02*
X23047500Y-40180000D01*
X23047500Y-40180000D02*
X21707500Y-40180000D01*
X21707500Y-39500000D02*
X23047500Y-39500000D01*
X17167500Y-40180000D02*
X17167500Y-39500000D01*
X17167500Y-39500000D02*
X18507500Y-39500000D01*
X18507500Y-40180000D02*
X17167500Y-40180000D01*
X17167500Y-40900000D02*
X18507500Y-40900000D01*
X17167500Y-41580000D02*
X17167500Y-40900000D01*
X18507500Y-41580000D02*
X17167500Y-41580000D01*
X21707500Y-41930000D02*
X21707500Y-39130000D01*
X18507500Y-41930000D02*
X18507500Y-39130000D01*
X18507500Y-39130000D02*
X21707500Y-39130000D01*
X18507500Y-41930000D02*
X21707500Y-41930000D01*
X37507500Y-39830000D02*
X38307500Y-39130000D01*
X42047500Y-40900000D02*
X42047500Y-41580000D01*
X42047500Y-41580000D02*
X40707500Y-41580000D01*
X40707500Y-40900000D02*
X42047500Y-40900000D01*
X42047500Y-39500000D02*
X42047500Y-40180000D01*
X42047500Y-40180000D02*
X40707500Y-40180000D01*
X40707500Y-39500000D02*
X42047500Y-39500000D01*
X36167500Y-40180000D02*
X36167500Y-39500000D01*
X36167500Y-39500000D02*
X37507500Y-39500000D01*
X37507500Y-40180000D02*
X36167500Y-40180000D01*
X36167500Y-40900000D02*
X37507500Y-40900000D01*
X36167500Y-41580000D02*
X36167500Y-40900000D01*
X37507500Y-41580000D02*
X36167500Y-41580000D01*
X40707500Y-41930000D02*
X40707500Y-39130000D01*
X37507500Y-41930000D02*
X37507500Y-39130000D01*
X37507500Y-39130000D02*
X40707500Y-39130000D01*
X37507500Y-41930000D02*
X40707500Y-41930000D01*
X56507500Y-35080000D02*
X57307500Y-34380000D01*
X61047500Y-36150000D02*
X61047500Y-36830000D01*
X61047500Y-36830000D02*
X59707500Y-36830000D01*
X59707500Y-36150000D02*
X61047500Y-36150000D01*
X61047500Y-34750000D02*
X61047500Y-35430000D01*
X61047500Y-35430000D02*
X59707500Y-35430000D01*
X59707500Y-34750000D02*
X61047500Y-34750000D01*
X55167500Y-35430000D02*
X55167500Y-34750000D01*
X55167500Y-34750000D02*
X56507500Y-34750000D01*
X56507500Y-35430000D02*
X55167500Y-35430000D01*
X55167500Y-36150000D02*
X56507500Y-36150000D01*
X55167500Y-36830000D02*
X55167500Y-36150000D01*
X56507500Y-36830000D02*
X55167500Y-36830000D01*
X59707500Y-37180000D02*
X59707500Y-34380000D01*
X56507500Y-37180000D02*
X56507500Y-34380000D01*
X56507500Y-34380000D02*
X59707500Y-34380000D01*
X56507500Y-37180000D02*
X59707500Y-37180000D01*
X75507500Y-32705000D02*
X76307500Y-32005000D01*
X80047500Y-33775000D02*
X80047500Y-34455000D01*
X80047500Y-34455000D02*
X78707500Y-34455000D01*
X78707500Y-33775000D02*
X80047500Y-33775000D01*
X80047500Y-32375000D02*
X80047500Y-33055000D01*
X80047500Y-33055000D02*
X78707500Y-33055000D01*
X78707500Y-32375000D02*
X80047500Y-32375000D01*
X74167500Y-33055000D02*
X74167500Y-32375000D01*
X74167500Y-32375000D02*
X75507500Y-32375000D01*
X75507500Y-33055000D02*
X74167500Y-33055000D01*
X74167500Y-33775000D02*
X75507500Y-33775000D01*
X74167500Y-34455000D02*
X74167500Y-33775000D01*
X75507500Y-34455000D02*
X74167500Y-34455000D01*
X78707500Y-34805000D02*
X78707500Y-32005000D01*
X75507500Y-34805000D02*
X75507500Y-32005000D01*
X75507500Y-32005000D02*
X78707500Y-32005000D01*
X75507500Y-34805000D02*
X78707500Y-34805000D01*
X94507500Y-35080000D02*
X95307500Y-34380000D01*
X99047500Y-36150000D02*
X99047500Y-36830000D01*
X99047500Y-36830000D02*
X97707500Y-36830000D01*
X97707500Y-36150000D02*
X99047500Y-36150000D01*
X99047500Y-34750000D02*
X99047500Y-35430000D01*
X99047500Y-35430000D02*
X97707500Y-35430000D01*
X97707500Y-34750000D02*
X99047500Y-34750000D01*
X93167500Y-35430000D02*
X93167500Y-34750000D01*
X93167500Y-34750000D02*
X94507500Y-34750000D01*
X94507500Y-35430000D02*
X93167500Y-35430000D01*
X93167500Y-36150000D02*
X94507500Y-36150000D01*
X93167500Y-36830000D02*
X93167500Y-36150000D01*
X94507500Y-36830000D02*
X93167500Y-36830000D01*
X97707500Y-37180000D02*
X97707500Y-34380000D01*
X94507500Y-37180000D02*
X94507500Y-34380000D01*
X94507500Y-34380000D02*
X97707500Y-34380000D01*
X94507500Y-37180000D02*
X97707500Y-37180000D01*
X113507500Y-37455000D02*
X114307500Y-36755000D01*
X118047500Y-38525000D02*
X118047500Y-39205000D01*
X118047500Y-39205000D02*
X116707500Y-39205000D01*
X116707500Y-38525000D02*
X118047500Y-38525000D01*
X118047500Y-37125000D02*
X118047500Y-37805000D01*
X118047500Y-37805000D02*
X116707500Y-37805000D01*
X116707500Y-37125000D02*
X118047500Y-37125000D01*
X112167500Y-37805000D02*
X112167500Y-37125000D01*
X112167500Y-37125000D02*
X113507500Y-37125000D01*
X113507500Y-37805000D02*
X112167500Y-37805000D01*
X112167500Y-38525000D02*
X113507500Y-38525000D01*
X112167500Y-39205000D02*
X112167500Y-38525000D01*
X113507500Y-39205000D02*
X112167500Y-39205000D01*
X116707500Y-39555000D02*
X116707500Y-36755000D01*
X113507500Y-39555000D02*
X113507500Y-36755000D01*
X113507500Y-36755000D02*
X116707500Y-36755000D01*
X113507500Y-39555000D02*
X116707500Y-39555000D01*
X18507500Y-58830000D02*
X19307500Y-58130000D01*
X23047500Y-59900000D02*
X23047500Y-60580000D01*
X23047500Y-60580000D02*
X21707500Y-60580000D01*
X21707500Y-59900000D02*
X23047500Y-59900000D01*
X23047500Y-58500000D02*
X23047500Y-59180000D01*
X23047500Y-59180000D02*
X21707500Y-59180000D01*
X21707500Y-58500000D02*
X23047500Y-58500000D01*
X17167500Y-59180000D02*
X17167500Y-58500000D01*
X17167500Y-58500000D02*
X18507500Y-58500000D01*
X18507500Y-59180000D02*
X17167500Y-59180000D01*
X17167500Y-59900000D02*
X18507500Y-59900000D01*
X17167500Y-60580000D02*
X17167500Y-59900000D01*
X18507500Y-60580000D02*
X17167500Y-60580000D01*
X21707500Y-60930000D02*
X21707500Y-58130000D01*
X18507500Y-60930000D02*
X18507500Y-58130000D01*
X18507500Y-58130000D02*
X21707500Y-58130000D01*
X18507500Y-60930000D02*
X21707500Y-60930000D01*
X37507500Y-58830000D02*
X38307500Y-58130000D01*
X42047500Y-59900000D02*
X42047500Y-60580000D01*
X42047500Y-60580000D02*
X40707500Y-60580000D01*
X40707500Y-59900000D02*
X42047500Y-59900000D01*
X42047500Y-58500000D02*
X42047500Y-59180000D01*
X42047500Y-59180000D02*
X40707500Y-59180000D01*
X40707500Y-58500000D02*
X42047500Y-58500000D01*
X36167500Y-59180000D02*
X36167500Y-58500000D01*
X36167500Y-58500000D02*
X37507500Y-58500000D01*
X37507500Y-59180000D02*
X36167500Y-59180000D01*
X36167500Y-59900000D02*
X37507500Y-59900000D01*
X36167500Y-60580000D02*
X36167500Y-59900000D01*
X37507500Y-60580000D02*
X36167500Y-60580000D01*
X40707500Y-60930000D02*
X40707500Y-58130000D01*
X37507500Y-60930000D02*
X37507500Y-58130000D01*
X37507500Y-58130000D02*
X40707500Y-58130000D01*
X37507500Y-60930000D02*
X40707500Y-60930000D01*
X56507500Y-54080000D02*
X57307500Y-53380000D01*
X61047500Y-55150000D02*
X61047500Y-55830000D01*
X61047500Y-55830000D02*
X59707500Y-55830000D01*
X59707500Y-55150000D02*
X61047500Y-55150000D01*
X61047500Y-53750000D02*
X61047500Y-54430000D01*
X61047500Y-54430000D02*
X59707500Y-54430000D01*
X59707500Y-53750000D02*
X61047500Y-53750000D01*
X55167500Y-54430000D02*
X55167500Y-53750000D01*
X55167500Y-53750000D02*
X56507500Y-53750000D01*
X56507500Y-54430000D02*
X55167500Y-54430000D01*
X55167500Y-55150000D02*
X56507500Y-55150000D01*
X55167500Y-55830000D02*
X55167500Y-55150000D01*
X56507500Y-55830000D02*
X55167500Y-55830000D01*
X59707500Y-56180000D02*
X59707500Y-53380000D01*
X56507500Y-56180000D02*
X56507500Y-53380000D01*
X56507500Y-53380000D02*
X59707500Y-53380000D01*
X56507500Y-56180000D02*
X59707500Y-56180000D01*
X75507500Y-51705000D02*
X76307500Y-51005000D01*
X80047500Y-52775000D02*
X80047500Y-53455000D01*
X80047500Y-53455000D02*
X78707500Y-53455000D01*
X78707500Y-52775000D02*
X80047500Y-52775000D01*
X80047500Y-51375000D02*
X80047500Y-52055000D01*
X80047500Y-52055000D02*
X78707500Y-52055000D01*
X78707500Y-51375000D02*
X80047500Y-51375000D01*
X74167500Y-52055000D02*
X74167500Y-51375000D01*
X74167500Y-51375000D02*
X75507500Y-51375000D01*
X75507500Y-52055000D02*
X74167500Y-52055000D01*
X74167500Y-52775000D02*
X75507500Y-52775000D01*
X74167500Y-53455000D02*
X74167500Y-52775000D01*
X75507500Y-53455000D02*
X74167500Y-53455000D01*
X78707500Y-53805000D02*
X78707500Y-51005000D01*
X75507500Y-53805000D02*
X75507500Y-51005000D01*
X75507500Y-51005000D02*
X78707500Y-51005000D01*
X75507500Y-53805000D02*
X78707500Y-53805000D01*
X94507500Y-54080000D02*
X95307500Y-53380000D01*
X99047500Y-55150000D02*
X99047500Y-55830000D01*
X99047500Y-55830000D02*
X97707500Y-55830000D01*
X97707500Y-55150000D02*
X99047500Y-55150000D01*
X99047500Y-53750000D02*
X99047500Y-54430000D01*
X99047500Y-54430000D02*
X97707500Y-54430000D01*
X97707500Y-53750000D02*
X99047500Y-53750000D01*
X93167500Y-54430000D02*
X93167500Y-53750000D01*
X93167500Y-53750000D02*
X94507500Y-53750000D01*
X94507500Y-54430000D02*
X93167500Y-54430000D01*
X93167500Y-55150000D02*
X94507500Y-55150000D01*
X93167500Y-55830000D02*
X93167500Y-55150000D01*
X94507500Y-55830000D02*
X93167500Y-55830000D01*
X97707500Y-56180000D02*
X97707500Y-53380000D01*
X94507500Y-56180000D02*
X94507500Y-53380000D01*
X94507500Y-53380000D02*
X97707500Y-53380000D01*
X94507500Y-56180000D02*
X97707500Y-56180000D01*
X113507500Y-56455000D02*
X114307500Y-55755000D01*
X118047500Y-57525000D02*
X118047500Y-58205000D01*
X118047500Y-58205000D02*
X116707500Y-58205000D01*
X116707500Y-57525000D02*
X118047500Y-57525000D01*
X118047500Y-56125000D02*
X118047500Y-56805000D01*
X118047500Y-56805000D02*
X116707500Y-56805000D01*
X116707500Y-56125000D02*
X118047500Y-56125000D01*
X112167500Y-56805000D02*
X112167500Y-56125000D01*
X112167500Y-56125000D02*
X113507500Y-56125000D01*
X113507500Y-56805000D02*
X112167500Y-56805000D01*
X112167500Y-57525000D02*
X113507500Y-57525000D01*
X112167500Y-58205000D02*
X112167500Y-57525000D01*
X113507500Y-58205000D02*
X112167500Y-58205000D01*
X116707500Y-58555000D02*
X116707500Y-55755000D01*
X113507500Y-58555000D02*
X113507500Y-55755000D01*
X113507500Y-55755000D02*
X116707500Y-55755000D01*
X113507500Y-58555000D02*
X116707500Y-58555000D01*
X18507500Y-77830000D02*
X19307500Y-77130000D01*
X23047500Y-78900000D02*
X23047500Y-79580000D01*
X23047500Y-79580000D02*
X21707500Y-79580000D01*
X21707500Y-78900000D02*
X23047500Y-78900000D01*
X23047500Y-77500000D02*
X23047500Y-78180000D01*
X23047500Y-78180000D02*
X21707500Y-78180000D01*
X21707500Y-77500000D02*
X23047500Y-77500000D01*
X17167500Y-78180000D02*
X17167500Y-77500000D01*
X17167500Y-77500000D02*
X18507500Y-77500000D01*
X18507500Y-78180000D02*
X17167500Y-78180000D01*
X17167500Y-78900000D02*
X18507500Y-78900000D01*
X17167500Y-79580000D02*
X17167500Y-78900000D01*
X18507500Y-79580000D02*
X17167500Y-79580000D01*
X21707500Y-79930000D02*
X21707500Y-77130000D01*
X18507500Y-79930000D02*
X18507500Y-77130000D01*
X18507500Y-77130000D02*
X21707500Y-77130000D01*
X18507500Y-79930000D02*
X21707500Y-79930000D01*
X37507500Y-77830000D02*
X38307500Y-77130000D01*
X42047500Y-78900000D02*
X42047500Y-79580000D01*
X42047500Y-79580000D02*
X40707500Y-79580000D01*
X40707500Y-78900000D02*
X42047500Y-78900000D01*
X42047500Y-77500000D02*
X42047500Y-78180000D01*
X42047500Y-78180000D02*
X40707500Y-78180000D01*
X40707500Y-77500000D02*
X42047500Y-77500000D01*
X36167500Y-78180000D02*
X36167500Y-77500000D01*
X36167500Y-77500000D02*
X37507500Y-77500000D01*
X37507500Y-78180000D02*
X36167500Y-78180000D01*
X36167500Y-78900000D02*
X37507500Y-78900000D01*
X36167500Y-79580000D02*
X36167500Y-78900000D01*
X37507500Y-79580000D02*
X36167500Y-79580000D01*
X40707500Y-79930000D02*
X40707500Y-77130000D01*
X37507500Y-79930000D02*
X37507500Y-77130000D01*
X37507500Y-77130000D02*
X40707500Y-77130000D01*
X37507500Y-79930000D02*
X40707500Y-79930000D01*
X56507500Y-73080000D02*
X57307500Y-72380000D01*
X61047500Y-74150000D02*
X61047500Y-74830000D01*
X61047500Y-74830000D02*
X59707500Y-74830000D01*
X59707500Y-74150000D02*
X61047500Y-74150000D01*
X61047500Y-72750000D02*
X61047500Y-73430000D01*
X61047500Y-73430000D02*
X59707500Y-73430000D01*
X59707500Y-72750000D02*
X61047500Y-72750000D01*
X55167500Y-73430000D02*
X55167500Y-72750000D01*
X55167500Y-72750000D02*
X56507500Y-72750000D01*
X56507500Y-73430000D02*
X55167500Y-73430000D01*
X55167500Y-74150000D02*
X56507500Y-74150000D01*
X55167500Y-74830000D02*
X55167500Y-74150000D01*
X56507500Y-74830000D02*
X55167500Y-74830000D01*
X59707500Y-75180000D02*
X59707500Y-72380000D01*
X56507500Y-75180000D02*
X56507500Y-72380000D01*
X56507500Y-72380000D02*
X59707500Y-72380000D01*
X56507500Y-75180000D02*
X59707500Y-75180000D01*
X75507500Y-70705000D02*
X76307500Y-70005000D01*
X80047500Y-71775000D02*
X80047500Y-72455000D01*
X80047500Y-72455000D02*
X78707500Y-72455000D01*
X78707500Y-71775000D02*
X80047500Y-71775000D01*
X80047500Y-70375000D02*
X80047500Y-71055000D01*
X80047500Y-71055000D02*
X78707500Y-71055000D01*
X78707500Y-70375000D02*
X80047500Y-70375000D01*
X74167500Y-71055000D02*
X74167500Y-70375000D01*
X74167500Y-70375000D02*
X75507500Y-70375000D01*
X75507500Y-71055000D02*
X74167500Y-71055000D01*
X74167500Y-71775000D02*
X75507500Y-71775000D01*
X74167500Y-72455000D02*
X74167500Y-71775000D01*
X75507500Y-72455000D02*
X74167500Y-72455000D01*
X78707500Y-72805000D02*
X78707500Y-70005000D01*
X75507500Y-72805000D02*
X75507500Y-70005000D01*
X75507500Y-70005000D02*
X78707500Y-70005000D01*
X75507500Y-72805000D02*
X78707500Y-72805000D01*
X113507500Y-75455000D02*
X114307500Y-74755000D01*
X118047500Y-76525000D02*
X118047500Y-77205000D01*
X118047500Y-77205000D02*
X116707500Y-77205000D01*
X116707500Y-76525000D02*
X118047500Y-76525000D01*
X118047500Y-75125000D02*
X118047500Y-75805000D01*
X118047500Y-75805000D02*
X116707500Y-75805000D01*
X116707500Y-75125000D02*
X118047500Y-75125000D01*
X112167500Y-75805000D02*
X112167500Y-75125000D01*
X112167500Y-75125000D02*
X113507500Y-75125000D01*
X113507500Y-75805000D02*
X112167500Y-75805000D01*
X112167500Y-76525000D02*
X113507500Y-76525000D01*
X112167500Y-77205000D02*
X112167500Y-76525000D01*
X113507500Y-77205000D02*
X112167500Y-77205000D01*
X116707500Y-77555000D02*
X116707500Y-74755000D01*
X113507500Y-77555000D02*
X113507500Y-74755000D01*
X113507500Y-74755000D02*
X116707500Y-74755000D01*
X113507500Y-77555000D02*
X116707500Y-77555000D01*
X85007500Y-92705000D02*
X85807500Y-92005000D01*
X89547500Y-93775000D02*
X89547500Y-94455000D01*
X89547500Y-94455000D02*
X88207500Y-94455000D01*
X88207500Y-93775000D02*
X89547500Y-93775000D01*
X89547500Y-92375000D02*
X89547500Y-93055000D01*
X89547500Y-93055000D02*
X88207500Y-93055000D01*
X88207500Y-92375000D02*
X89547500Y-92375000D01*
X83667500Y-93055000D02*
X83667500Y-92375000D01*
X83667500Y-92375000D02*
X85007500Y-92375000D01*
X85007500Y-93055000D02*
X83667500Y-93055000D01*
X83667500Y-93775000D02*
X85007500Y-93775000D01*
X83667500Y-94455000D02*
X83667500Y-93775000D01*
X85007500Y-94455000D02*
X83667500Y-94455000D01*
X88207500Y-94805000D02*
X88207500Y-92005000D01*
X85007500Y-94805000D02*
X85007500Y-92005000D01*
X85007500Y-92005000D02*
X88207500Y-92005000D01*
X85007500Y-94805000D02*
X88207500Y-94805000D01*
X132564903Y-98565641D02*
X132358685Y-97522820D01*
X135761550Y-95168885D02*
X136350448Y-95508885D01*
X136350448Y-95508885D02*
X135680448Y-96669359D01*
X135091550Y-96329359D02*
X135761550Y-95168885D01*
X134549115Y-94468885D02*
X135138012Y-94808885D01*
X135138012Y-94808885D02*
X134468012Y-95969359D01*
X133879115Y-95629359D02*
X134549115Y-94468885D01*
X132198012Y-99901115D02*
X131609115Y-99561115D01*
X131609115Y-99561115D02*
X132279115Y-98400641D01*
X132868012Y-98740641D02*
X132198012Y-99901115D01*
X132821550Y-100261115D02*
X133491550Y-99100641D01*
X133410448Y-100601115D02*
X132821550Y-100261115D01*
X134080448Y-99440641D02*
X133410448Y-100601115D01*
X135983557Y-96844359D02*
X133558685Y-95444359D01*
X134383557Y-99615641D02*
X131958685Y-98215641D01*
X131958685Y-98215641D02*
X133558685Y-95444359D01*
X134383557Y-99615641D02*
X135983557Y-96844359D01*
X218007500Y-51705000D02*
X218807500Y-51005000D01*
X222547500Y-52775000D02*
X222547500Y-53455000D01*
X222547500Y-53455000D02*
X221207500Y-53455000D01*
X221207500Y-52775000D02*
X222547500Y-52775000D01*
X222547500Y-51375000D02*
X222547500Y-52055000D01*
X222547500Y-52055000D02*
X221207500Y-52055000D01*
X221207500Y-51375000D02*
X222547500Y-51375000D01*
X216667500Y-52055000D02*
X216667500Y-51375000D01*
X216667500Y-51375000D02*
X218007500Y-51375000D01*
X218007500Y-52055000D02*
X216667500Y-52055000D01*
X216667500Y-52775000D02*
X218007500Y-52775000D01*
X216667500Y-53455000D02*
X216667500Y-52775000D01*
X218007500Y-53455000D02*
X216667500Y-53455000D01*
X221207500Y-53805000D02*
X221207500Y-51005000D01*
X218007500Y-53805000D02*
X218007500Y-51005000D01*
X218007500Y-51005000D02*
X221207500Y-51005000D01*
X218007500Y-53805000D02*
X221207500Y-53805000D01*
X199007500Y-54080000D02*
X199807500Y-53380000D01*
X203547500Y-55150000D02*
X203547500Y-55830000D01*
X203547500Y-55830000D02*
X202207500Y-55830000D01*
X202207500Y-55150000D02*
X203547500Y-55150000D01*
X203547500Y-53750000D02*
X203547500Y-54430000D01*
X203547500Y-54430000D02*
X202207500Y-54430000D01*
X202207500Y-53750000D02*
X203547500Y-53750000D01*
X197667500Y-54430000D02*
X197667500Y-53750000D01*
X197667500Y-53750000D02*
X199007500Y-53750000D01*
X199007500Y-54430000D02*
X197667500Y-54430000D01*
X197667500Y-55150000D02*
X199007500Y-55150000D01*
X197667500Y-55830000D02*
X197667500Y-55150000D01*
X199007500Y-55830000D02*
X197667500Y-55830000D01*
X202207500Y-56180000D02*
X202207500Y-53380000D01*
X199007500Y-56180000D02*
X199007500Y-53380000D01*
X199007500Y-53380000D02*
X202207500Y-53380000D01*
X199007500Y-56180000D02*
X202207500Y-56180000D01*
X180007500Y-56455000D02*
X180807500Y-55755000D01*
X184547500Y-57525000D02*
X184547500Y-58205000D01*
X184547500Y-58205000D02*
X183207500Y-58205000D01*
X183207500Y-57525000D02*
X184547500Y-57525000D01*
X184547500Y-56125000D02*
X184547500Y-56805000D01*
X184547500Y-56805000D02*
X183207500Y-56805000D01*
X183207500Y-56125000D02*
X184547500Y-56125000D01*
X178667500Y-56805000D02*
X178667500Y-56125000D01*
X178667500Y-56125000D02*
X180007500Y-56125000D01*
X180007500Y-56805000D02*
X178667500Y-56805000D01*
X178667500Y-57525000D02*
X180007500Y-57525000D01*
X178667500Y-58205000D02*
X178667500Y-57525000D01*
X180007500Y-58205000D02*
X178667500Y-58205000D01*
X183207500Y-58555000D02*
X183207500Y-55755000D01*
X180007500Y-58555000D02*
X180007500Y-55755000D01*
X180007500Y-55755000D02*
X183207500Y-55755000D01*
X180007500Y-58555000D02*
X183207500Y-58555000D01*
X275007500Y-77830000D02*
X275807500Y-77130000D01*
X279547500Y-78900000D02*
X279547500Y-79580000D01*
X279547500Y-79580000D02*
X278207500Y-79580000D01*
X278207500Y-78900000D02*
X279547500Y-78900000D01*
X279547500Y-77500000D02*
X279547500Y-78180000D01*
X279547500Y-78180000D02*
X278207500Y-78180000D01*
X278207500Y-77500000D02*
X279547500Y-77500000D01*
X273667500Y-78180000D02*
X273667500Y-77500000D01*
X273667500Y-77500000D02*
X275007500Y-77500000D01*
X275007500Y-78180000D02*
X273667500Y-78180000D01*
X273667500Y-78900000D02*
X275007500Y-78900000D01*
X273667500Y-79580000D02*
X273667500Y-78900000D01*
X275007500Y-79580000D02*
X273667500Y-79580000D01*
X278207500Y-79930000D02*
X278207500Y-77130000D01*
X275007500Y-79930000D02*
X275007500Y-77130000D01*
X275007500Y-77130000D02*
X278207500Y-77130000D01*
X275007500Y-79930000D02*
X278207500Y-79930000D01*
X256007500Y-77830000D02*
X256807500Y-77130000D01*
X260547500Y-78900000D02*
X260547500Y-79580000D01*
X260547500Y-79580000D02*
X259207500Y-79580000D01*
X259207500Y-78900000D02*
X260547500Y-78900000D01*
X260547500Y-77500000D02*
X260547500Y-78180000D01*
X260547500Y-78180000D02*
X259207500Y-78180000D01*
X259207500Y-77500000D02*
X260547500Y-77500000D01*
X254667500Y-78180000D02*
X254667500Y-77500000D01*
X254667500Y-77500000D02*
X256007500Y-77500000D01*
X256007500Y-78180000D02*
X254667500Y-78180000D01*
X254667500Y-78900000D02*
X256007500Y-78900000D01*
X254667500Y-79580000D02*
X254667500Y-78900000D01*
X256007500Y-79580000D02*
X254667500Y-79580000D01*
X259207500Y-79930000D02*
X259207500Y-77130000D01*
X256007500Y-79930000D02*
X256007500Y-77130000D01*
X256007500Y-77130000D02*
X259207500Y-77130000D01*
X256007500Y-79930000D02*
X259207500Y-79930000D01*
X237007500Y-73080000D02*
X237807500Y-72380000D01*
X241547500Y-74150000D02*
X241547500Y-74830000D01*
X241547500Y-74830000D02*
X240207500Y-74830000D01*
X240207500Y-74150000D02*
X241547500Y-74150000D01*
X241547500Y-72750000D02*
X241547500Y-73430000D01*
X241547500Y-73430000D02*
X240207500Y-73430000D01*
X240207500Y-72750000D02*
X241547500Y-72750000D01*
X235667500Y-73430000D02*
X235667500Y-72750000D01*
X235667500Y-72750000D02*
X237007500Y-72750000D01*
X237007500Y-73430000D02*
X235667500Y-73430000D01*
X235667500Y-74150000D02*
X237007500Y-74150000D01*
X235667500Y-74830000D02*
X235667500Y-74150000D01*
X237007500Y-74830000D02*
X235667500Y-74830000D01*
X240207500Y-75180000D02*
X240207500Y-72380000D01*
X237007500Y-75180000D02*
X237007500Y-72380000D01*
X237007500Y-72380000D02*
X240207500Y-72380000D01*
X237007500Y-75180000D02*
X240207500Y-75180000D01*
X218007500Y-70705000D02*
X218807500Y-70005000D01*
X222547500Y-71775000D02*
X222547500Y-72455000D01*
X222547500Y-72455000D02*
X221207500Y-72455000D01*
X221207500Y-71775000D02*
X222547500Y-71775000D01*
X222547500Y-70375000D02*
X222547500Y-71055000D01*
X222547500Y-71055000D02*
X221207500Y-71055000D01*
X221207500Y-70375000D02*
X222547500Y-70375000D01*
X216667500Y-71055000D02*
X216667500Y-70375000D01*
X216667500Y-70375000D02*
X218007500Y-70375000D01*
X218007500Y-71055000D02*
X216667500Y-71055000D01*
X216667500Y-71775000D02*
X218007500Y-71775000D01*
X216667500Y-72455000D02*
X216667500Y-71775000D01*
X218007500Y-72455000D02*
X216667500Y-72455000D01*
X221207500Y-72805000D02*
X221207500Y-70005000D01*
X218007500Y-72805000D02*
X218007500Y-70005000D01*
X218007500Y-70005000D02*
X221207500Y-70005000D01*
X218007500Y-72805000D02*
X221207500Y-72805000D01*
X199007500Y-73080000D02*
X199807500Y-72380000D01*
X203547500Y-74150000D02*
X203547500Y-74830000D01*
X203547500Y-74830000D02*
X202207500Y-74830000D01*
X202207500Y-74150000D02*
X203547500Y-74150000D01*
X203547500Y-72750000D02*
X203547500Y-73430000D01*
X203547500Y-73430000D02*
X202207500Y-73430000D01*
X202207500Y-72750000D02*
X203547500Y-72750000D01*
X197667500Y-73430000D02*
X197667500Y-72750000D01*
X197667500Y-72750000D02*
X199007500Y-72750000D01*
X199007500Y-73430000D02*
X197667500Y-73430000D01*
X197667500Y-74150000D02*
X199007500Y-74150000D01*
X197667500Y-74830000D02*
X197667500Y-74150000D01*
X199007500Y-74830000D02*
X197667500Y-74830000D01*
X202207500Y-75180000D02*
X202207500Y-72380000D01*
X199007500Y-75180000D02*
X199007500Y-72380000D01*
X199007500Y-72380000D02*
X202207500Y-72380000D01*
X199007500Y-75180000D02*
X202207500Y-75180000D01*
X180007500Y-75455000D02*
X180807500Y-74755000D01*
X184547500Y-76525000D02*
X184547500Y-77205000D01*
X184547500Y-77205000D02*
X183207500Y-77205000D01*
X183207500Y-76525000D02*
X184547500Y-76525000D01*
X184547500Y-75125000D02*
X184547500Y-75805000D01*
X184547500Y-75805000D02*
X183207500Y-75805000D01*
X183207500Y-75125000D02*
X184547500Y-75125000D01*
X178667500Y-75805000D02*
X178667500Y-75125000D01*
X178667500Y-75125000D02*
X180007500Y-75125000D01*
X180007500Y-75805000D02*
X178667500Y-75805000D01*
X178667500Y-76525000D02*
X180007500Y-76525000D01*
X178667500Y-77205000D02*
X178667500Y-76525000D01*
X180007500Y-77205000D02*
X178667500Y-77205000D01*
X183207500Y-77555000D02*
X183207500Y-74755000D01*
X180007500Y-77555000D02*
X180007500Y-74755000D01*
X180007500Y-74755000D02*
X183207500Y-74755000D01*
X180007500Y-77555000D02*
X183207500Y-77555000D01*
X208507500Y-92705000D02*
X209307500Y-92005000D01*
X213047500Y-93775000D02*
X213047500Y-94455000D01*
X213047500Y-94455000D02*
X211707500Y-94455000D01*
X211707500Y-93775000D02*
X213047500Y-93775000D01*
X213047500Y-92375000D02*
X213047500Y-93055000D01*
X213047500Y-93055000D02*
X211707500Y-93055000D01*
X211707500Y-92375000D02*
X213047500Y-92375000D01*
X207167500Y-93055000D02*
X207167500Y-92375000D01*
X207167500Y-92375000D02*
X208507500Y-92375000D01*
X208507500Y-93055000D02*
X207167500Y-93055000D01*
X207167500Y-93775000D02*
X208507500Y-93775000D01*
X207167500Y-94455000D02*
X207167500Y-93775000D01*
X208507500Y-94455000D02*
X207167500Y-94455000D01*
X211707500Y-94805000D02*
X211707500Y-92005000D01*
X208507500Y-94805000D02*
X208507500Y-92005000D01*
X208507500Y-92005000D02*
X211707500Y-92005000D01*
X208507500Y-94805000D02*
X211707500Y-94805000D01*
X188617235Y-95726110D02*
X189208803Y-94842907D01*
X193279475Y-95584613D02*
X193455472Y-96241442D01*
X193455472Y-96241442D02*
X192161131Y-96588260D01*
X191985134Y-95931430D02*
X193279475Y-95584613D01*
X192917128Y-94232316D02*
X193093125Y-94889146D01*
X193093125Y-94889146D02*
X191798785Y-95235963D01*
X191622788Y-94579134D02*
X192917128Y-94232316D01*
X187413481Y-96411002D02*
X187237484Y-95754172D01*
X187237484Y-95754172D02*
X188531825Y-95407355D01*
X188707822Y-96064184D02*
X187413481Y-96411002D01*
X187599831Y-97106469D02*
X188894172Y-96759651D01*
X187775828Y-97763298D02*
X187599831Y-97106469D01*
X189070169Y-97416481D02*
X187775828Y-97763298D01*
X192251718Y-96926334D02*
X191527025Y-94221741D01*
X189160755Y-97754555D02*
X188436062Y-95049962D01*
X188436062Y-95049962D02*
X191527025Y-94221741D01*
X189160755Y-97754555D02*
X192251718Y-96926334D01*
X162557097Y-95789359D02*
X163563315Y-96132180D01*
X163900450Y-100256115D02*
X163311552Y-100596115D01*
X163311552Y-100596115D02*
X162641552Y-99435641D01*
X163230450Y-99095641D02*
X163900450Y-100256115D01*
X165112885Y-99556115D02*
X164523988Y-99896115D01*
X164523988Y-99896115D02*
X163853988Y-98735641D01*
X164442885Y-98395641D02*
X165112885Y-99556115D01*
X161583988Y-94803885D02*
X162172885Y-94463885D01*
X162172885Y-94463885D02*
X162842885Y-95624359D01*
X162253988Y-95964359D02*
X161583988Y-94803885D01*
X160960450Y-95163885D02*
X161630450Y-96324359D01*
X160371552Y-95503885D02*
X160960450Y-95163885D01*
X161041552Y-96664359D02*
X160371552Y-95503885D01*
X162338443Y-99610641D02*
X164763315Y-98210641D01*
X160738443Y-96839359D02*
X163163315Y-95439359D01*
X163163315Y-95439359D02*
X164763315Y-98210641D01*
X160738443Y-96839359D02*
X162338443Y-99610641D01*
X94507500Y-73080000D02*
X95307500Y-72380000D01*
X99047500Y-74150000D02*
X99047500Y-74830000D01*
X99047500Y-74830000D02*
X97707500Y-74830000D01*
X97707500Y-74150000D02*
X99047500Y-74150000D01*
X99047500Y-72750000D02*
X99047500Y-73430000D01*
X99047500Y-73430000D02*
X97707500Y-73430000D01*
X97707500Y-72750000D02*
X99047500Y-72750000D01*
X93167500Y-73430000D02*
X93167500Y-72750000D01*
X93167500Y-72750000D02*
X94507500Y-72750000D01*
X94507500Y-73430000D02*
X93167500Y-73430000D01*
X93167500Y-74150000D02*
X94507500Y-74150000D01*
X93167500Y-74830000D02*
X93167500Y-74150000D01*
X94507500Y-74830000D02*
X93167500Y-74830000D01*
X97707500Y-75180000D02*
X97707500Y-72380000D01*
X94507500Y-75180000D02*
X94507500Y-72380000D01*
X94507500Y-72380000D02*
X97707500Y-72380000D01*
X94507500Y-75180000D02*
X97707500Y-75180000D01*
X275007500Y-39830000D02*
X275807500Y-39130000D01*
X279547500Y-40900000D02*
X279547500Y-41580000D01*
X279547500Y-41580000D02*
X278207500Y-41580000D01*
X278207500Y-40900000D02*
X279547500Y-40900000D01*
X279547500Y-39500000D02*
X279547500Y-40180000D01*
X279547500Y-40180000D02*
X278207500Y-40180000D01*
X278207500Y-39500000D02*
X279547500Y-39500000D01*
X273667500Y-40180000D02*
X273667500Y-39500000D01*
X273667500Y-39500000D02*
X275007500Y-39500000D01*
X275007500Y-40180000D02*
X273667500Y-40180000D01*
X273667500Y-40900000D02*
X275007500Y-40900000D01*
X273667500Y-41580000D02*
X273667500Y-40900000D01*
X275007500Y-41580000D02*
X273667500Y-41580000D01*
X278207500Y-41930000D02*
X278207500Y-39130000D01*
X275007500Y-41930000D02*
X275007500Y-39130000D01*
X275007500Y-39130000D02*
X278207500Y-39130000D01*
X275007500Y-41930000D02*
X278207500Y-41930000D01*
X256007500Y-39830000D02*
X256807500Y-39130000D01*
X260547500Y-40900000D02*
X260547500Y-41580000D01*
X260547500Y-41580000D02*
X259207500Y-41580000D01*
X259207500Y-40900000D02*
X260547500Y-40900000D01*
X260547500Y-39500000D02*
X260547500Y-40180000D01*
X260547500Y-40180000D02*
X259207500Y-40180000D01*
X259207500Y-39500000D02*
X260547500Y-39500000D01*
X254667500Y-40180000D02*
X254667500Y-39500000D01*
X254667500Y-39500000D02*
X256007500Y-39500000D01*
X256007500Y-40180000D02*
X254667500Y-40180000D01*
X254667500Y-40900000D02*
X256007500Y-40900000D01*
X254667500Y-41580000D02*
X254667500Y-40900000D01*
X256007500Y-41580000D02*
X254667500Y-41580000D01*
X259207500Y-41930000D02*
X259207500Y-39130000D01*
X256007500Y-41930000D02*
X256007500Y-39130000D01*
X256007500Y-39130000D02*
X259207500Y-39130000D01*
X256007500Y-41930000D02*
X259207500Y-41930000D01*
X237007500Y-35080000D02*
X237807500Y-34380000D01*
X241547500Y-36150000D02*
X241547500Y-36830000D01*
X241547500Y-36830000D02*
X240207500Y-36830000D01*
X240207500Y-36150000D02*
X241547500Y-36150000D01*
X241547500Y-34750000D02*
X241547500Y-35430000D01*
X241547500Y-35430000D02*
X240207500Y-35430000D01*
X240207500Y-34750000D02*
X241547500Y-34750000D01*
X235667500Y-35430000D02*
X235667500Y-34750000D01*
X235667500Y-34750000D02*
X237007500Y-34750000D01*
X237007500Y-35430000D02*
X235667500Y-35430000D01*
X235667500Y-36150000D02*
X237007500Y-36150000D01*
X235667500Y-36830000D02*
X235667500Y-36150000D01*
X237007500Y-36830000D02*
X235667500Y-36830000D01*
X240207500Y-37180000D02*
X240207500Y-34380000D01*
X237007500Y-37180000D02*
X237007500Y-34380000D01*
X237007500Y-34380000D02*
X240207500Y-34380000D01*
X237007500Y-37180000D02*
X240207500Y-37180000D01*
X218007500Y-32705000D02*
X218807500Y-32005000D01*
X222547500Y-33775000D02*
X222547500Y-34455000D01*
X222547500Y-34455000D02*
X221207500Y-34455000D01*
X221207500Y-33775000D02*
X222547500Y-33775000D01*
X222547500Y-32375000D02*
X222547500Y-33055000D01*
X222547500Y-33055000D02*
X221207500Y-33055000D01*
X221207500Y-32375000D02*
X222547500Y-32375000D01*
X216667500Y-33055000D02*
X216667500Y-32375000D01*
X216667500Y-32375000D02*
X218007500Y-32375000D01*
X218007500Y-33055000D02*
X216667500Y-33055000D01*
X216667500Y-33775000D02*
X218007500Y-33775000D01*
X216667500Y-34455000D02*
X216667500Y-33775000D01*
X218007500Y-34455000D02*
X216667500Y-34455000D01*
X221207500Y-34805000D02*
X221207500Y-32005000D01*
X218007500Y-34805000D02*
X218007500Y-32005000D01*
X218007500Y-32005000D02*
X221207500Y-32005000D01*
X218007500Y-34805000D02*
X221207500Y-34805000D01*
X199007500Y-35080000D02*
X199807500Y-34380000D01*
X203547500Y-36150000D02*
X203547500Y-36830000D01*
X203547500Y-36830000D02*
X202207500Y-36830000D01*
X202207500Y-36150000D02*
X203547500Y-36150000D01*
X203547500Y-34750000D02*
X203547500Y-35430000D01*
X203547500Y-35430000D02*
X202207500Y-35430000D01*
X202207500Y-34750000D02*
X203547500Y-34750000D01*
X197667500Y-35430000D02*
X197667500Y-34750000D01*
X197667500Y-34750000D02*
X199007500Y-34750000D01*
X199007500Y-35430000D02*
X197667500Y-35430000D01*
X197667500Y-36150000D02*
X199007500Y-36150000D01*
X197667500Y-36830000D02*
X197667500Y-36150000D01*
X199007500Y-36830000D02*
X197667500Y-36830000D01*
X202207500Y-37180000D02*
X202207500Y-34380000D01*
X199007500Y-37180000D02*
X199007500Y-34380000D01*
X199007500Y-34380000D02*
X202207500Y-34380000D01*
X199007500Y-37180000D02*
X202207500Y-37180000D01*
X180007500Y-37455000D02*
X180807500Y-36755000D01*
X184547500Y-38525000D02*
X184547500Y-39205000D01*
X184547500Y-39205000D02*
X183207500Y-39205000D01*
X183207500Y-38525000D02*
X184547500Y-38525000D01*
X184547500Y-37125000D02*
X184547500Y-37805000D01*
X184547500Y-37805000D02*
X183207500Y-37805000D01*
X183207500Y-37125000D02*
X184547500Y-37125000D01*
X178667500Y-37805000D02*
X178667500Y-37125000D01*
X178667500Y-37125000D02*
X180007500Y-37125000D01*
X180007500Y-37805000D02*
X178667500Y-37805000D01*
X178667500Y-38525000D02*
X180007500Y-38525000D01*
X178667500Y-39205000D02*
X178667500Y-38525000D01*
X180007500Y-39205000D02*
X178667500Y-39205000D01*
X183207500Y-39555000D02*
X183207500Y-36755000D01*
X180007500Y-39555000D02*
X180007500Y-36755000D01*
X180007500Y-36755000D02*
X183207500Y-36755000D01*
X180007500Y-39555000D02*
X183207500Y-39555000D01*
X275007500Y-58830000D02*
X275807500Y-58130000D01*
X279547500Y-59900000D02*
X279547500Y-60580000D01*
X279547500Y-60580000D02*
X278207500Y-60580000D01*
X278207500Y-59900000D02*
X279547500Y-59900000D01*
X279547500Y-58500000D02*
X279547500Y-59180000D01*
X279547500Y-59180000D02*
X278207500Y-59180000D01*
X278207500Y-58500000D02*
X279547500Y-58500000D01*
X273667500Y-59180000D02*
X273667500Y-58500000D01*
X273667500Y-58500000D02*
X275007500Y-58500000D01*
X275007500Y-59180000D02*
X273667500Y-59180000D01*
X273667500Y-59900000D02*
X275007500Y-59900000D01*
X273667500Y-60580000D02*
X273667500Y-59900000D01*
X275007500Y-60580000D02*
X273667500Y-60580000D01*
X278207500Y-60930000D02*
X278207500Y-58130000D01*
X275007500Y-60930000D02*
X275007500Y-58130000D01*
X275007500Y-58130000D02*
X278207500Y-58130000D01*
X275007500Y-60930000D02*
X278207500Y-60930000D01*
X256007500Y-58830000D02*
X256807500Y-58130000D01*
X260547500Y-59900000D02*
X260547500Y-60580000D01*
X260547500Y-60580000D02*
X259207500Y-60580000D01*
X259207500Y-59900000D02*
X260547500Y-59900000D01*
X260547500Y-58500000D02*
X260547500Y-59180000D01*
X260547500Y-59180000D02*
X259207500Y-59180000D01*
X259207500Y-58500000D02*
X260547500Y-58500000D01*
X254667500Y-59180000D02*
X254667500Y-58500000D01*
X254667500Y-58500000D02*
X256007500Y-58500000D01*
X256007500Y-59180000D02*
X254667500Y-59180000D01*
X254667500Y-59900000D02*
X256007500Y-59900000D01*
X254667500Y-60580000D02*
X254667500Y-59900000D01*
X256007500Y-60580000D02*
X254667500Y-60580000D01*
X259207500Y-60930000D02*
X259207500Y-58130000D01*
X256007500Y-60930000D02*
X256007500Y-58130000D01*
X256007500Y-58130000D02*
X259207500Y-58130000D01*
X256007500Y-60930000D02*
X259207500Y-60930000D01*
X237007500Y-54080000D02*
X237807500Y-53380000D01*
X241547500Y-55150000D02*
X241547500Y-55830000D01*
X241547500Y-55830000D02*
X240207500Y-55830000D01*
X240207500Y-55150000D02*
X241547500Y-55150000D01*
X241547500Y-53750000D02*
X241547500Y-54430000D01*
X241547500Y-54430000D02*
X240207500Y-54430000D01*
X240207500Y-53750000D02*
X241547500Y-53750000D01*
X235667500Y-54430000D02*
X235667500Y-53750000D01*
X235667500Y-53750000D02*
X237007500Y-53750000D01*
X237007500Y-54430000D02*
X235667500Y-54430000D01*
X235667500Y-55150000D02*
X237007500Y-55150000D01*
X235667500Y-55830000D02*
X235667500Y-55150000D01*
X237007500Y-55830000D02*
X235667500Y-55830000D01*
X240207500Y-56180000D02*
X240207500Y-53380000D01*
X237007500Y-56180000D02*
X237007500Y-53380000D01*
X237007500Y-53380000D02*
X240207500Y-53380000D01*
X237007500Y-56180000D02*
X240207500Y-56180000D01*
D10*
X108107500Y-40405000D02*
X109107500Y-40405000D01*
X122107500Y-26405000D02*
X122107500Y-27405000D01*
X108107500Y-26405000D02*
X109107500Y-26405000D01*
X122107500Y-40405000D02*
X122107500Y-39405000D01*
X121107500Y-40405000D02*
X122107500Y-40405000D01*
X108107500Y-39405000D02*
X108107500Y-40405000D01*
X122107500Y-26405000D02*
X121107500Y-26405000D01*
X108107500Y-27405000D02*
X108107500Y-26405000D01*
X105582500Y-42930000D02*
X105582500Y-23880000D01*
X124632500Y-42930000D02*
X105582500Y-42930000D01*
X124632500Y-23880000D02*
X124632500Y-42930000D01*
X105582500Y-23880000D02*
X124632500Y-23880000D01*
X174614500Y-59400000D02*
X175614500Y-59400000D01*
X188614500Y-45400000D02*
X188614500Y-46400000D01*
X174614500Y-45400000D02*
X175614500Y-45400000D01*
X188614500Y-59400000D02*
X188614500Y-58400000D01*
X187614500Y-59400000D02*
X188614500Y-59400000D01*
X174614500Y-58400000D02*
X174614500Y-59400000D01*
X188614500Y-45400000D02*
X187614500Y-45400000D01*
X174614500Y-46400000D02*
X174614500Y-45400000D01*
X172089500Y-61925000D02*
X172089500Y-42875000D01*
X191139500Y-61925000D02*
X172089500Y-61925000D01*
X191139500Y-42875000D02*
X191139500Y-61925000D01*
X172089500Y-42875000D02*
X191139500Y-42875000D01*
X174614500Y-78400000D02*
X175614500Y-78400000D01*
X188614500Y-64400000D02*
X188614500Y-65400000D01*
X174614500Y-64400000D02*
X175614500Y-64400000D01*
X188614500Y-78400000D02*
X188614500Y-77400000D01*
X187614500Y-78400000D02*
X188614500Y-78400000D01*
X174614500Y-77400000D02*
X174614500Y-78400000D01*
X188614500Y-64400000D02*
X187614500Y-64400000D01*
X174614500Y-65400000D02*
X174614500Y-64400000D01*
X172089500Y-80925000D02*
X172089500Y-61875000D01*
X191139500Y-80925000D02*
X172089500Y-80925000D01*
X191139500Y-61875000D02*
X191139500Y-80925000D01*
X172089500Y-61875000D02*
X191139500Y-61875000D01*
X13107500Y-80780000D02*
X14107500Y-80780000D01*
X27107500Y-66780000D02*
X27107500Y-67780000D01*
X13107500Y-66780000D02*
X14107500Y-66780000D01*
X27107500Y-80780000D02*
X27107500Y-79780000D01*
X26107500Y-80780000D02*
X27107500Y-80780000D01*
X13107500Y-79780000D02*
X13107500Y-80780000D01*
X27107500Y-66780000D02*
X26107500Y-66780000D01*
X13107500Y-67780000D02*
X13107500Y-66780000D01*
X10582500Y-83305000D02*
X10582500Y-64255000D01*
X29632500Y-83305000D02*
X10582500Y-83305000D01*
X29632500Y-64255000D02*
X29632500Y-83305000D01*
X10582500Y-64255000D02*
X29632500Y-64255000D01*
X250614500Y-80775000D02*
X251614500Y-80775000D01*
X264614500Y-66775000D02*
X264614500Y-67775000D01*
X250614500Y-66775000D02*
X251614500Y-66775000D01*
X264614500Y-80775000D02*
X264614500Y-79775000D01*
X263614500Y-80775000D02*
X264614500Y-80775000D01*
X250614500Y-79775000D02*
X250614500Y-80775000D01*
X264614500Y-66775000D02*
X263614500Y-66775000D01*
X250614500Y-67775000D02*
X250614500Y-66775000D01*
X248089500Y-83300000D02*
X248089500Y-64250000D01*
X267139500Y-83300000D02*
X248089500Y-83300000D01*
X267139500Y-64250000D02*
X267139500Y-83300000D01*
X248089500Y-64250000D02*
X267139500Y-64250000D01*
X212614500Y-73650000D02*
X213614500Y-73650000D01*
X226614500Y-59650000D02*
X226614500Y-60650000D01*
X212614500Y-59650000D02*
X213614500Y-59650000D01*
X226614500Y-73650000D02*
X226614500Y-72650000D01*
X225614500Y-73650000D02*
X226614500Y-73650000D01*
X212614500Y-72650000D02*
X212614500Y-73650000D01*
X226614500Y-59650000D02*
X225614500Y-59650000D01*
X212614500Y-60650000D02*
X212614500Y-59650000D01*
X210089500Y-76175000D02*
X210089500Y-57125000D01*
X229139500Y-76175000D02*
X210089500Y-76175000D01*
X229139500Y-57125000D02*
X229139500Y-76175000D01*
X210089500Y-57125000D02*
X229139500Y-57125000D01*
X32107500Y-80780000D02*
X33107500Y-80780000D01*
X46107500Y-66780000D02*
X46107500Y-67780000D01*
X32107500Y-66780000D02*
X33107500Y-66780000D01*
X46107500Y-80780000D02*
X46107500Y-79780000D01*
X45107500Y-80780000D02*
X46107500Y-80780000D01*
X32107500Y-79780000D02*
X32107500Y-80780000D01*
X46107500Y-66780000D02*
X45107500Y-66780000D01*
X32107500Y-67780000D02*
X32107500Y-66780000D01*
X29582500Y-83305000D02*
X29582500Y-64255000D01*
X48632500Y-83305000D02*
X29582500Y-83305000D01*
X48632500Y-64255000D02*
X48632500Y-83305000D01*
X29582500Y-64255000D02*
X48632500Y-64255000D01*
X13107500Y-61780000D02*
X14107500Y-61780000D01*
X27107500Y-47780000D02*
X27107500Y-48780000D01*
X13107500Y-47780000D02*
X14107500Y-47780000D01*
X27107500Y-61780000D02*
X27107500Y-60780000D01*
X26107500Y-61780000D02*
X27107500Y-61780000D01*
X13107500Y-60780000D02*
X13107500Y-61780000D01*
X27107500Y-47780000D02*
X26107500Y-47780000D01*
X13107500Y-48780000D02*
X13107500Y-47780000D01*
X10582500Y-64305000D02*
X10582500Y-45255000D01*
X29632500Y-64305000D02*
X10582500Y-64305000D01*
X29632500Y-45255000D02*
X29632500Y-64305000D01*
X10582500Y-45255000D02*
X29632500Y-45255000D01*
X32107500Y-61780000D02*
X33107500Y-61780000D01*
X46107500Y-47780000D02*
X46107500Y-48780000D01*
X32107500Y-47780000D02*
X33107500Y-47780000D01*
X46107500Y-61780000D02*
X46107500Y-60780000D01*
X45107500Y-61780000D02*
X46107500Y-61780000D01*
X32107500Y-60780000D02*
X32107500Y-61780000D01*
X46107500Y-47780000D02*
X45107500Y-47780000D01*
X32107500Y-48780000D02*
X32107500Y-47780000D01*
X29582500Y-64305000D02*
X29582500Y-45255000D01*
X48632500Y-64305000D02*
X29582500Y-64305000D01*
X48632500Y-45255000D02*
X48632500Y-64305000D01*
X29582500Y-45255000D02*
X48632500Y-45255000D01*
X13107500Y-42780000D02*
X14107500Y-42780000D01*
X27107500Y-28780000D02*
X27107500Y-29780000D01*
X13107500Y-28780000D02*
X14107500Y-28780000D01*
X27107500Y-42780000D02*
X27107500Y-41780000D01*
X26107500Y-42780000D02*
X27107500Y-42780000D01*
X13107500Y-41780000D02*
X13107500Y-42780000D01*
X27107500Y-28780000D02*
X26107500Y-28780000D01*
X13107500Y-29780000D02*
X13107500Y-28780000D01*
X10582500Y-45305000D02*
X10582500Y-26255000D01*
X29632500Y-45305000D02*
X10582500Y-45305000D01*
X29632500Y-26255000D02*
X29632500Y-45305000D01*
X10582500Y-26255000D02*
X29632500Y-26255000D01*
X32107500Y-42780000D02*
X33107500Y-42780000D01*
X46107500Y-28780000D02*
X46107500Y-29780000D01*
X32107500Y-28780000D02*
X33107500Y-28780000D01*
X46107500Y-42780000D02*
X46107500Y-41780000D01*
X45107500Y-42780000D02*
X46107500Y-42780000D01*
X32107500Y-41780000D02*
X32107500Y-42780000D01*
X46107500Y-28780000D02*
X45107500Y-28780000D01*
X32107500Y-29780000D02*
X32107500Y-28780000D01*
X29582500Y-45305000D02*
X29582500Y-26255000D01*
X48632500Y-45305000D02*
X29582500Y-45305000D01*
X48632500Y-26255000D02*
X48632500Y-45305000D01*
X29582500Y-26255000D02*
X48632500Y-26255000D01*
X51107500Y-38030000D02*
X52107500Y-38030000D01*
X65107500Y-24030000D02*
X65107500Y-25030000D01*
X51107500Y-24030000D02*
X52107500Y-24030000D01*
X65107500Y-38030000D02*
X65107500Y-37030000D01*
X64107500Y-38030000D02*
X65107500Y-38030000D01*
X51107500Y-37030000D02*
X51107500Y-38030000D01*
X65107500Y-24030000D02*
X64107500Y-24030000D01*
X51107500Y-25030000D02*
X51107500Y-24030000D01*
X48582500Y-40555000D02*
X48582500Y-21505000D01*
X67632500Y-40555000D02*
X48582500Y-40555000D01*
X67632500Y-21505000D02*
X67632500Y-40555000D01*
X48582500Y-21505000D02*
X67632500Y-21505000D01*
X70107500Y-35655000D02*
X71107500Y-35655000D01*
X84107500Y-21655000D02*
X84107500Y-22655000D01*
X70107500Y-21655000D02*
X71107500Y-21655000D01*
X84107500Y-35655000D02*
X84107500Y-34655000D01*
X83107500Y-35655000D02*
X84107500Y-35655000D01*
X70107500Y-34655000D02*
X70107500Y-35655000D01*
X84107500Y-21655000D02*
X83107500Y-21655000D01*
X70107500Y-22655000D02*
X70107500Y-21655000D01*
X67582500Y-38180000D02*
X67582500Y-19130000D01*
X86632500Y-38180000D02*
X67582500Y-38180000D01*
X86632500Y-19130000D02*
X86632500Y-38180000D01*
X67582500Y-19130000D02*
X86632500Y-19130000D01*
X89107500Y-38030000D02*
X90107500Y-38030000D01*
X103107500Y-24030000D02*
X103107500Y-25030000D01*
X89107500Y-24030000D02*
X90107500Y-24030000D01*
X103107500Y-38030000D02*
X103107500Y-37030000D01*
X102107500Y-38030000D02*
X103107500Y-38030000D01*
X89107500Y-37030000D02*
X89107500Y-38030000D01*
X103107500Y-24030000D02*
X102107500Y-24030000D01*
X89107500Y-25030000D02*
X89107500Y-24030000D01*
X86582500Y-40555000D02*
X86582500Y-21505000D01*
X105632500Y-40555000D02*
X86582500Y-40555000D01*
X105632500Y-21505000D02*
X105632500Y-40555000D01*
X86582500Y-21505000D02*
X105632500Y-21505000D01*
X51107500Y-57030000D02*
X52107500Y-57030000D01*
X65107500Y-43030000D02*
X65107500Y-44030000D01*
X51107500Y-43030000D02*
X52107500Y-43030000D01*
X65107500Y-57030000D02*
X65107500Y-56030000D01*
X64107500Y-57030000D02*
X65107500Y-57030000D01*
X51107500Y-56030000D02*
X51107500Y-57030000D01*
X65107500Y-43030000D02*
X64107500Y-43030000D01*
X51107500Y-44030000D02*
X51107500Y-43030000D01*
X48582500Y-59555000D02*
X48582500Y-40505000D01*
X67632500Y-59555000D02*
X48582500Y-59555000D01*
X67632500Y-40505000D02*
X67632500Y-59555000D01*
X48582500Y-40505000D02*
X67632500Y-40505000D01*
X70107500Y-54655000D02*
X71107500Y-54655000D01*
X84107500Y-40655000D02*
X84107500Y-41655000D01*
X70107500Y-40655000D02*
X71107500Y-40655000D01*
X84107500Y-54655000D02*
X84107500Y-53655000D01*
X83107500Y-54655000D02*
X84107500Y-54655000D01*
X70107500Y-53655000D02*
X70107500Y-54655000D01*
X84107500Y-40655000D02*
X83107500Y-40655000D01*
X70107500Y-41655000D02*
X70107500Y-40655000D01*
X67582500Y-57180000D02*
X67582500Y-38130000D01*
X86632500Y-57180000D02*
X67582500Y-57180000D01*
X86632500Y-38130000D02*
X86632500Y-57180000D01*
X67582500Y-38130000D02*
X86632500Y-38130000D01*
X89107500Y-57030000D02*
X90107500Y-57030000D01*
X103107500Y-43030000D02*
X103107500Y-44030000D01*
X89107500Y-43030000D02*
X90107500Y-43030000D01*
X103107500Y-57030000D02*
X103107500Y-56030000D01*
X102107500Y-57030000D02*
X103107500Y-57030000D01*
X89107500Y-56030000D02*
X89107500Y-57030000D01*
X103107500Y-43030000D02*
X102107500Y-43030000D01*
X89107500Y-44030000D02*
X89107500Y-43030000D01*
X86582500Y-59555000D02*
X86582500Y-40505000D01*
X105632500Y-59555000D02*
X86582500Y-59555000D01*
X105632500Y-40505000D02*
X105632500Y-59555000D01*
X86582500Y-40505000D02*
X105632500Y-40505000D01*
X108107500Y-59405000D02*
X109107500Y-59405000D01*
X122107500Y-45405000D02*
X122107500Y-46405000D01*
X108107500Y-45405000D02*
X109107500Y-45405000D01*
X122107500Y-59405000D02*
X122107500Y-58405000D01*
X121107500Y-59405000D02*
X122107500Y-59405000D01*
X108107500Y-58405000D02*
X108107500Y-59405000D01*
X122107500Y-45405000D02*
X121107500Y-45405000D01*
X108107500Y-46405000D02*
X108107500Y-45405000D01*
X105582500Y-61930000D02*
X105582500Y-42880000D01*
X124632500Y-61930000D02*
X105582500Y-61930000D01*
X124632500Y-42880000D02*
X124632500Y-61930000D01*
X105582500Y-42880000D02*
X124632500Y-42880000D01*
X51107500Y-76030000D02*
X52107500Y-76030000D01*
X65107500Y-62030000D02*
X65107500Y-63030000D01*
X51107500Y-62030000D02*
X52107500Y-62030000D01*
X65107500Y-76030000D02*
X65107500Y-75030000D01*
X64107500Y-76030000D02*
X65107500Y-76030000D01*
X51107500Y-75030000D02*
X51107500Y-76030000D01*
X65107500Y-62030000D02*
X64107500Y-62030000D01*
X51107500Y-63030000D02*
X51107500Y-62030000D01*
X48582500Y-78555000D02*
X48582500Y-59505000D01*
X67632500Y-78555000D02*
X48582500Y-78555000D01*
X67632500Y-59505000D02*
X67632500Y-78555000D01*
X48582500Y-59505000D02*
X67632500Y-59505000D01*
X70107500Y-73655000D02*
X71107500Y-73655000D01*
X84107500Y-59655000D02*
X84107500Y-60655000D01*
X70107500Y-59655000D02*
X71107500Y-59655000D01*
X84107500Y-73655000D02*
X84107500Y-72655000D01*
X83107500Y-73655000D02*
X84107500Y-73655000D01*
X70107500Y-72655000D02*
X70107500Y-73655000D01*
X84107500Y-59655000D02*
X83107500Y-59655000D01*
X70107500Y-60655000D02*
X70107500Y-59655000D01*
X67582500Y-76180000D02*
X67582500Y-57130000D01*
X86632500Y-76180000D02*
X67582500Y-76180000D01*
X86632500Y-57130000D02*
X86632500Y-76180000D01*
X67582500Y-57130000D02*
X86632500Y-57130000D01*
X89107500Y-76030000D02*
X90107500Y-76030000D01*
X103107500Y-62030000D02*
X103107500Y-63030000D01*
X89107500Y-62030000D02*
X90107500Y-62030000D01*
X103107500Y-76030000D02*
X103107500Y-75030000D01*
X102107500Y-76030000D02*
X103107500Y-76030000D01*
X89107500Y-75030000D02*
X89107500Y-76030000D01*
X103107500Y-62030000D02*
X102107500Y-62030000D01*
X89107500Y-63030000D02*
X89107500Y-62030000D01*
X86582500Y-78555000D02*
X86582500Y-59505000D01*
X105632500Y-78555000D02*
X86582500Y-78555000D01*
X105632500Y-59505000D02*
X105632500Y-78555000D01*
X86582500Y-59505000D02*
X105632500Y-59505000D01*
X108107500Y-78405000D02*
X109107500Y-78405000D01*
X122107500Y-64405000D02*
X122107500Y-65405000D01*
X108107500Y-64405000D02*
X109107500Y-64405000D01*
X122107500Y-78405000D02*
X122107500Y-77405000D01*
X121107500Y-78405000D02*
X122107500Y-78405000D01*
X108107500Y-77405000D02*
X108107500Y-78405000D01*
X122107500Y-64405000D02*
X121107500Y-64405000D01*
X108107500Y-65405000D02*
X108107500Y-64405000D01*
X105582500Y-80930000D02*
X105582500Y-61880000D01*
X124632500Y-80930000D02*
X105582500Y-80930000D01*
X124632500Y-61880000D02*
X124632500Y-80930000D01*
X105582500Y-61880000D02*
X124632500Y-61880000D01*
X79607500Y-95655000D02*
X80607500Y-95655000D01*
X93607500Y-81655000D02*
X93607500Y-82655000D01*
X79607500Y-81655000D02*
X80607500Y-81655000D01*
X93607500Y-95655000D02*
X93607500Y-94655000D01*
X92607500Y-95655000D02*
X93607500Y-95655000D01*
X79607500Y-94655000D02*
X79607500Y-95655000D01*
X93607500Y-81655000D02*
X92607500Y-81655000D01*
X79607500Y-82655000D02*
X79607500Y-81655000D01*
X77082500Y-98180000D02*
X77082500Y-79130000D01*
X96132500Y-98180000D02*
X77082500Y-98180000D01*
X96132500Y-79130000D02*
X96132500Y-98180000D01*
X77082500Y-79130000D02*
X96132500Y-79130000D01*
X99034286Y-96354747D02*
X100000212Y-96613567D01*
X116180714Y-86455253D02*
X115921895Y-87421178D01*
X102657753Y-82831786D02*
X103623678Y-83090605D01*
X112557247Y-99978214D02*
X112816067Y-99012288D01*
X111591322Y-99719395D02*
X112557247Y-99978214D01*
X99293105Y-95388822D02*
X99034286Y-96354747D01*
X116180714Y-86455253D02*
X115214788Y-86196433D01*
X102398933Y-83797712D02*
X102657753Y-82831786D01*
X95941805Y-98140192D02*
X100872308Y-79739305D01*
X114342692Y-103070695D02*
X95941805Y-98140192D01*
X119273195Y-84669808D02*
X114342692Y-103070695D01*
X100872308Y-79739305D02*
X119273195Y-84669808D01*
X269614500Y-42775000D02*
X270614500Y-42775000D01*
X283614500Y-28775000D02*
X283614500Y-29775000D01*
X269614500Y-28775000D02*
X270614500Y-28775000D01*
X283614500Y-42775000D02*
X283614500Y-41775000D01*
X282614500Y-42775000D02*
X283614500Y-42775000D01*
X269614500Y-41775000D02*
X269614500Y-42775000D01*
X283614500Y-28775000D02*
X282614500Y-28775000D01*
X269614500Y-29775000D02*
X269614500Y-28775000D01*
X267089500Y-45300000D02*
X267089500Y-26250000D01*
X286139500Y-45300000D02*
X267089500Y-45300000D01*
X286139500Y-26250000D02*
X286139500Y-45300000D01*
X267089500Y-26250000D02*
X286139500Y-26250000D01*
X250614500Y-42775000D02*
X251614500Y-42775000D01*
X264614500Y-28775000D02*
X264614500Y-29775000D01*
X250614500Y-28775000D02*
X251614500Y-28775000D01*
X264614500Y-42775000D02*
X264614500Y-41775000D01*
X263614500Y-42775000D02*
X264614500Y-42775000D01*
X250614500Y-41775000D02*
X250614500Y-42775000D01*
X264614500Y-28775000D02*
X263614500Y-28775000D01*
X250614500Y-29775000D02*
X250614500Y-28775000D01*
X248089500Y-45300000D02*
X248089500Y-26250000D01*
X267139500Y-45300000D02*
X248089500Y-45300000D01*
X267139500Y-26250000D02*
X267139500Y-45300000D01*
X248089500Y-26250000D02*
X267139500Y-26250000D01*
X231614500Y-38025000D02*
X232614500Y-38025000D01*
X245614500Y-24025000D02*
X245614500Y-25025000D01*
X231614500Y-24025000D02*
X232614500Y-24025000D01*
X245614500Y-38025000D02*
X245614500Y-37025000D01*
X244614500Y-38025000D02*
X245614500Y-38025000D01*
X231614500Y-37025000D02*
X231614500Y-38025000D01*
X245614500Y-24025000D02*
X244614500Y-24025000D01*
X231614500Y-25025000D02*
X231614500Y-24025000D01*
X229089500Y-40550000D02*
X229089500Y-21500000D01*
X248139500Y-40550000D02*
X229089500Y-40550000D01*
X248139500Y-21500000D02*
X248139500Y-40550000D01*
X229089500Y-21500000D02*
X248139500Y-21500000D01*
X212614500Y-35650000D02*
X213614500Y-35650000D01*
X226614500Y-21650000D02*
X226614500Y-22650000D01*
X212614500Y-21650000D02*
X213614500Y-21650000D01*
X226614500Y-35650000D02*
X226614500Y-34650000D01*
X225614500Y-35650000D02*
X226614500Y-35650000D01*
X212614500Y-34650000D02*
X212614500Y-35650000D01*
X226614500Y-21650000D02*
X225614500Y-21650000D01*
X212614500Y-22650000D02*
X212614500Y-21650000D01*
X210089500Y-38175000D02*
X210089500Y-19125000D01*
X229139500Y-38175000D02*
X210089500Y-38175000D01*
X229139500Y-19125000D02*
X229139500Y-38175000D01*
X210089500Y-19125000D02*
X229139500Y-19125000D01*
X193614500Y-38025000D02*
X194614500Y-38025000D01*
X207614500Y-24025000D02*
X207614500Y-25025000D01*
X193614500Y-24025000D02*
X194614500Y-24025000D01*
X207614500Y-38025000D02*
X207614500Y-37025000D01*
X206614500Y-38025000D02*
X207614500Y-38025000D01*
X193614500Y-37025000D02*
X193614500Y-38025000D01*
X207614500Y-24025000D02*
X206614500Y-24025000D01*
X193614500Y-25025000D02*
X193614500Y-24025000D01*
X191089500Y-40550000D02*
X191089500Y-21500000D01*
X210139500Y-40550000D02*
X191089500Y-40550000D01*
X210139500Y-21500000D02*
X210139500Y-40550000D01*
X191089500Y-21500000D02*
X210139500Y-21500000D01*
X174607500Y-40405000D02*
X175607500Y-40405000D01*
X188607500Y-26405000D02*
X188607500Y-27405000D01*
X174607500Y-26405000D02*
X175607500Y-26405000D01*
X188607500Y-40405000D02*
X188607500Y-39405000D01*
X187607500Y-40405000D02*
X188607500Y-40405000D01*
X174607500Y-39405000D02*
X174607500Y-40405000D01*
X188607500Y-26405000D02*
X187607500Y-26405000D01*
X174607500Y-27405000D02*
X174607500Y-26405000D01*
X172082500Y-42930000D02*
X172082500Y-23880000D01*
X191132500Y-42930000D02*
X172082500Y-42930000D01*
X191132500Y-23880000D02*
X191132500Y-42930000D01*
X172082500Y-23880000D02*
X191132500Y-23880000D01*
X269614500Y-61775000D02*
X270614500Y-61775000D01*
X283614500Y-47775000D02*
X283614500Y-48775000D01*
X269614500Y-47775000D02*
X270614500Y-47775000D01*
X283614500Y-61775000D02*
X283614500Y-60775000D01*
X282614500Y-61775000D02*
X283614500Y-61775000D01*
X269614500Y-60775000D02*
X269614500Y-61775000D01*
X283614500Y-47775000D02*
X282614500Y-47775000D01*
X269614500Y-48775000D02*
X269614500Y-47775000D01*
X267089500Y-64300000D02*
X267089500Y-45250000D01*
X286139500Y-64300000D02*
X267089500Y-64300000D01*
X286139500Y-45250000D02*
X286139500Y-64300000D01*
X267089500Y-45250000D02*
X286139500Y-45250000D01*
X250614500Y-61775000D02*
X251614500Y-61775000D01*
X264614500Y-47775000D02*
X264614500Y-48775000D01*
X250614500Y-47775000D02*
X251614500Y-47775000D01*
X264614500Y-61775000D02*
X264614500Y-60775000D01*
X263614500Y-61775000D02*
X264614500Y-61775000D01*
X250614500Y-60775000D02*
X250614500Y-61775000D01*
X264614500Y-47775000D02*
X263614500Y-47775000D01*
X250614500Y-48775000D02*
X250614500Y-47775000D01*
X248089500Y-64300000D02*
X248089500Y-45250000D01*
X267139500Y-64300000D02*
X248089500Y-64300000D01*
X267139500Y-45250000D02*
X267139500Y-64300000D01*
X248089500Y-45250000D02*
X267139500Y-45250000D01*
X231614500Y-57025000D02*
X232614500Y-57025000D01*
X245614500Y-43025000D02*
X245614500Y-44025000D01*
X231614500Y-43025000D02*
X232614500Y-43025000D01*
X245614500Y-57025000D02*
X245614500Y-56025000D01*
X244614500Y-57025000D02*
X245614500Y-57025000D01*
X231614500Y-56025000D02*
X231614500Y-57025000D01*
X245614500Y-43025000D02*
X244614500Y-43025000D01*
X231614500Y-44025000D02*
X231614500Y-43025000D01*
X229089500Y-59550000D02*
X229089500Y-40500000D01*
X248139500Y-59550000D02*
X229089500Y-59550000D01*
X248139500Y-40500000D02*
X248139500Y-59550000D01*
X229089500Y-40500000D02*
X248139500Y-40500000D01*
X212614500Y-54650000D02*
X213614500Y-54650000D01*
X226614500Y-40650000D02*
X226614500Y-41650000D01*
X212614500Y-40650000D02*
X213614500Y-40650000D01*
X226614500Y-54650000D02*
X226614500Y-53650000D01*
X225614500Y-54650000D02*
X226614500Y-54650000D01*
X212614500Y-53650000D02*
X212614500Y-54650000D01*
X226614500Y-40650000D02*
X225614500Y-40650000D01*
X212614500Y-41650000D02*
X212614500Y-40650000D01*
X210089500Y-57175000D02*
X210089500Y-38125000D01*
X229139500Y-57175000D02*
X210089500Y-57175000D01*
X229139500Y-38125000D02*
X229139500Y-57175000D01*
X210089500Y-38125000D02*
X229139500Y-38125000D01*
X193614500Y-57025000D02*
X194614500Y-57025000D01*
X207614500Y-43025000D02*
X207614500Y-44025000D01*
X193614500Y-43025000D02*
X194614500Y-43025000D01*
X207614500Y-57025000D02*
X207614500Y-56025000D01*
X206614500Y-57025000D02*
X207614500Y-57025000D01*
X193614500Y-56025000D02*
X193614500Y-57025000D01*
X207614500Y-43025000D02*
X206614500Y-43025000D01*
X193614500Y-44025000D02*
X193614500Y-43025000D01*
X191089500Y-59550000D02*
X191089500Y-40500000D01*
X210139500Y-59550000D02*
X191089500Y-59550000D01*
X210139500Y-40500000D02*
X210139500Y-59550000D01*
X191089500Y-40500000D02*
X210139500Y-40500000D01*
X269614500Y-80775000D02*
X270614500Y-80775000D01*
X283614500Y-66775000D02*
X283614500Y-67775000D01*
X269614500Y-66775000D02*
X270614500Y-66775000D01*
X283614500Y-80775000D02*
X283614500Y-79775000D01*
X282614500Y-80775000D02*
X283614500Y-80775000D01*
X269614500Y-79775000D02*
X269614500Y-80775000D01*
X283614500Y-66775000D02*
X282614500Y-66775000D01*
X269614500Y-67775000D02*
X269614500Y-66775000D01*
X267089500Y-83300000D02*
X267089500Y-64250000D01*
X286139500Y-83300000D02*
X267089500Y-83300000D01*
X286139500Y-64250000D02*
X286139500Y-83300000D01*
X267089500Y-64250000D02*
X286139500Y-64250000D01*
X231614500Y-76025000D02*
X232614500Y-76025000D01*
X245614500Y-62025000D02*
X245614500Y-63025000D01*
X231614500Y-62025000D02*
X232614500Y-62025000D01*
X245614500Y-76025000D02*
X245614500Y-75025000D01*
X244614500Y-76025000D02*
X245614500Y-76025000D01*
X231614500Y-75025000D02*
X231614500Y-76025000D01*
X245614500Y-62025000D02*
X244614500Y-62025000D01*
X231614500Y-63025000D02*
X231614500Y-62025000D01*
X229089500Y-78550000D02*
X229089500Y-59500000D01*
X248139500Y-78550000D02*
X229089500Y-78550000D01*
X248139500Y-59500000D02*
X248139500Y-78550000D01*
X229089500Y-59500000D02*
X248139500Y-59500000D01*
X193614500Y-76025000D02*
X194614500Y-76025000D01*
X207614500Y-62025000D02*
X207614500Y-63025000D01*
X193614500Y-62025000D02*
X194614500Y-62025000D01*
X207614500Y-76025000D02*
X207614500Y-75025000D01*
X206614500Y-76025000D02*
X207614500Y-76025000D01*
X193614500Y-75025000D02*
X193614500Y-76025000D01*
X207614500Y-62025000D02*
X206614500Y-62025000D01*
X193614500Y-63025000D02*
X193614500Y-62025000D01*
X191089500Y-78550000D02*
X191089500Y-59500000D01*
X210139500Y-78550000D02*
X191089500Y-78550000D01*
X210139500Y-59500000D02*
X210139500Y-78550000D01*
X191089500Y-59500000D02*
X210139500Y-59500000D01*
X203114500Y-95650000D02*
X204114500Y-95650000D01*
X217114500Y-81650000D02*
X217114500Y-82650000D01*
X203114500Y-81650000D02*
X204114500Y-81650000D01*
X217114500Y-95650000D02*
X217114500Y-94650000D01*
X216114500Y-95650000D02*
X217114500Y-95650000D01*
X203114500Y-94650000D02*
X203114500Y-95650000D01*
X217114500Y-81650000D02*
X216114500Y-81650000D01*
X203114500Y-82650000D02*
X203114500Y-81650000D01*
X200589500Y-98175000D02*
X200589500Y-79125000D01*
X219639500Y-98175000D02*
X200589500Y-98175000D01*
X219639500Y-79125000D02*
X219639500Y-98175000D01*
X200589500Y-79125000D02*
X219639500Y-79125000D01*
X184164753Y-99973214D02*
X185130678Y-99714395D01*
X194064247Y-82826786D02*
X194323067Y-83792712D01*
X180541286Y-86450253D02*
X181507212Y-86191433D01*
X197687714Y-96349747D02*
X197428895Y-95383822D01*
X196721788Y-96608567D02*
X197687714Y-96349747D01*
X183905933Y-99007288D02*
X184164753Y-99973214D01*
X194064247Y-82826786D02*
X193098322Y-83085605D01*
X180800105Y-87416178D02*
X180541286Y-86450253D01*
X182379308Y-103065695D02*
X177448805Y-84664808D01*
X200780195Y-98135192D02*
X182379308Y-103065695D01*
X195849692Y-79734305D02*
X200780195Y-98135192D01*
X177448805Y-84664808D02*
X195849692Y-79734305D01*
M02*
